<?xml version="1.0" encoding="UTF-8" standalone="no"?>
<svg
   xmlns:dc="http://purl.org/dc/elements/1.1/"
   xmlns:cc="http://creativecommons.org/ns#"
   xmlns:rdf="http://www.w3.org/1999/02/22-rdf-syntax-ns#"
   xmlns:svg="http://www.w3.org/2000/svg"
   xmlns="http://www.w3.org/2000/svg"
   id="svg8"
   version="1.1"
   viewBox="0 0 210 297"
   height="297mm"
   width="210mm">
  <defs
     id="defs2" />
  <metadata
     id="metadata5">
    <rdf:RDF>
      <cc:Work
         rdf:about="">
        <dc:format>image/svg+xml</dc:format>
        <dc:type
           rdf:resource="http://purl.org/dc/dcmitype/StillImage" />
        <dc:title></dc:title>
      </cc:Work>
    </rdf:RDF>
  </metadata>
  <g
     id="layer1">
    <path
       id="path21"
       d="m 58.140578,164.59424 c -0.0035,-0.5805 -0.472994,-0.70598 -1.614496,-0.43172 -1.857825,0.4464 -8.238226,-0.83168 -8.233933,-1.64938 0.0052,-1.03322 -1.745305,-2.27971 -3.212276,-2.28709 -1.811808,-0.009 -3.869266,-1.42066 -3.321218,-2.27858 0.223209,-0.34938 0.900565,-0.50598 1.505239,-0.34798 0.636889,0.1665 1.610134,-0.26636 2.313369,-1.02868 1.213119,-1.31507 1.212997,-1.31567 -0.159322,-0.90532 -0.944173,0.28231 -1.765007,0.0499 -2.626866,-0.74411 -1.966018,-1.81102 -7.228492,-2.76937 -10.542223,-1.91984 -2.230497,0.5718 -3.073021,0.54364 -4.511687,-0.15079 -1.975371,-0.95357 -2.768022,-2.36511 -1.324051,-2.35785 1.553262,0.009 1.68278,-0.90504 0.719149,-5.06836 -0.833921,-3.60292 -0.827482,-4.14904 0.06876,-5.82388 0.657166,-1.22815 1.301017,-1.72915 1.919233,-1.49342 0.511664,0.19511 1.177555,0.35598 1.479762,0.3575 0.788881,0.003 2.445171,3.38723 1.921065,3.92411 -0.616314,0.63135 2.473895,-0.3027 3.415887,-1.03247 1.051423,-0.81457 0.97794,-1.65496 -0.145188,-1.6606 -0.507877,-0.002 -0.929427,0.33419 -0.936791,0.74836 -0.01047,0.54527 -0.160369,0.52324 -0.546373,-0.0799 -0.303917,-0.47495 -0.862522,-0.63593 -1.299708,-0.37452 -0.485628,0.29036 -0.668369,0.17453 -0.498437,-0.31595 0.31601,-0.91214 4.828273,-1.48556 4.823701,-0.61303 -0.0017,0.32774 0.524943,1.08353 1.170382,1.67953 0.991516,0.9156 2.078661,1.05869 7.008948,0.92257 l 5.835424,-0.16104 0.428932,-3.42215 c 0.669765,-5.34363 2.228158,-10.88858 4.258096,-15.15084 l 1.860565,-3.90664 0.15496,-13.70347 c 0.08533,-7.53692 0.362777,-13.703198 0.616716,-13.70286 0.253956,3.71e-4 0.458021,0.703765 0.453519,1.563137 -0.0052,1.055863 0.390488,1.666686 1.221356,1.883787 1.451928,0.379387 1.604654,1.282602 0.298542,1.765582 -0.678211,0.250772 -0.930231,1.294004 -0.943947,3.907234 -0.01989,3.78329 -0.06928,3.72137 3.975418,4.97387 1.192649,0.36932 1.230691,0.10386 1.278069,-8.919123 0.04485,-8.551468 -0.04293,-9.32378 -1.091821,-9.597837 -1.574552,-0.411421 -0.911191,-1.882641 0.84488,-1.873812 1.206401,0.0061 1.579264,-0.50281 2.376278,-3.243112 l 0.945342,-3.250306 -1.900701,-1.679232 c -1.198356,-1.058793 -2.340975,-1.568986 -3.092199,-1.380765 -0.828005,0.207458 -1.700562,-0.316272 -2.86009,-1.716696 l -1.668576,-2.015233 0.456835,1.809676 c 0.251269,0.99532 0.438198,3.02956 0.415408,4.520533 -0.02827,1.851565 0.05305,2.139047 0.256486,0.906936 0.291335,-1.764032 1.111959,-2.698968 2.346071,-2.672845 0.338538,0.0072 0.125817,0.372915 -0.47282,0.812773 -0.963682,0.708132 -0.982249,0.886828 -0.162114,1.559942 1.403992,1.152269 1.139042,2.908625 -0.471284,3.124185 -0.860655,0.115221 -1.368777,0.585313 -1.34035,1.240081 0.02513,0.579995 0.0862,2.155165 0.13559,3.500377 0.05602,1.525456 0.332326,2.300811 0.734366,2.060435 0.902816,-0.539791 2.431037,0.854109 2.423917,2.210873 -0.007,1.379149 -1.985422,1.515318 -3.079215,0.211981 -0.418898,-0.499135 -1.14323,-0.909438 -1.609645,-0.911782 -0.466415,-0.0024 -0.846747,-0.249984 -0.845177,-0.550308 0.0016,-0.300323 -0.586108,-0.398475 -1.305955,-0.218114 -1.294979,0.324456 -1.293409,0.336402 0.147979,1.127912 0.957383,0.52573 1.127787,0.805655 0.497058,0.816504 -0.527875,0.0092 -1.495414,-0.384206 -2.150084,-0.873988 -0.705068,-0.527469 -0.8687,-0.896707 -0.401395,-0.905706 1.2999,-0.02502 1.568601,-1.715085 0.44872,-2.822331 -0.986455,-0.975341 -0.98054,-1.080896 0.10383,-1.852467 1.102728,-0.784616 1.087005,-0.866164 -0.383002,-1.987294 -0.8431,-0.643005 -1.845243,-1.176698 -2.226971,-1.185987 -1.199194,-0.02917 -2.031492,-1.536545 -1.640236,-2.970593 0.292295,-1.071312 0.733441,-1.330425 1.981112,-1.16361 1.981479,0.264929 5.40986,-2.851267 5.142625,-4.674355 -0.0965,-0.658737 0.133844,-1.982064 0.512117,-2.940725 l 0.687669,-1.743021 1.551762,1.961082 c 1.583784,2.001538 6.345605,4.855872 6.351102,3.806989 0.0017,-0.318522 -0.301858,-0.765665 -0.674512,-0.99365 -1.452085,-0.888378 -2.958511,-5.463795 -2.95338,-8.970192 0.0035,-1.964576 -0.317842,-4.460533 -0.712693,-5.546569 -0.534769,-1.470814 -0.54037,-2.350834 -0.02199,-3.44919 0.580384,-1.229811 0.499117,-1.650667 -0.489641,-2.535435 -1.736562,-1.55392 -1.559737,-5.184975 0.355954,-7.309204 l 1.517506,-1.682727 -0.132972,1.806096 c -0.105749,1.435075 0.138208,1.845453 1.187292,1.997677 0.97548,0.141537 1.787954,-0.483595 3.110871,-2.393585 1.051598,-1.518261 2.360328,-2.662528 3.171127,-2.772617 0.759321,-0.103113 1.968793,-0.957743 2.687733,-1.899202 1.605282,-2.102175 3.895163,-2.743454 5.675072,-1.589308 0.764259,0.495573 2.159682,0.738632 3.318845,0.578089 2.441088,-0.338089 4.896416,1.101835 5.417014,3.176814 0.204066,0.813342 0.88451,1.641143 1.512115,1.839558 1.885449,0.596075 4.104341,3.710543 5.115157,7.179727 1.157697,3.973183 1.181517,5.627692 0.109589,7.612669 -0.450989,0.835178 -0.709901,2.484393 -0.575341,3.664921 0.266381,2.33727 -0.989701,4.142694 -2.875639,4.133213 -0.652017,-0.0032 -1.362424,0.790669 -1.835942,2.051855 -0.424813,1.13146 -1.798197,3.022301 -3.051975,4.20187 -2.279253,2.144353 -2.279358,2.144669 -0.67706,2.152726 1.048824,0.0053 2.457736,-0.820301 4.077608,-2.389336 2.225366,-2.155527 4.512506,-3.311698 3.540151,-1.789579 -0.210993,0.330293 -0.117616,0.601869 0.207503,0.603503 0.825335,0.0041 3.153973,4.054077 3.146522,5.472389 -0.0087,1.508059 1.0279,1.522168 1.523527,0.0208 0.377627,-1.143956 4.608703,-3.663322 6.055593,-3.605756 0.41274,0.01639 -0.74271,1.325616 -2.56762,2.909321 -2.961581,2.570133 -3.243492,3.017483 -2.624107,4.164181 0.537543,0.995212 0.487216,1.761935 -0.223348,3.402468 -0.504509,1.164766 -1.208425,2.116291 -1.564291,2.114503 -1.065908,-0.0053 -0.738991,1.641399 0.419211,2.111713 0.859469,0.349005 0.567227,0.650068 -1.457303,1.50133 -2.897609,1.218347 -3.137918,1.870245 -3.767443,10.21935 -0.535012,7.09604 0.453903,13.13068 3.945822,24.07838 3.229533,10.12513 4.680569,16.25582 4.863359,20.54789 0.12599,2.95728 -0.86561,6.02024 -1.947113,6.01481 -0.375184,-0.002 -0.567331,0.33602 -0.427012,0.75093 0.140301,0.41488 1.061945,0.75841 2.048045,0.76336 1.15639,0.005 1.73206,0.29009 1.62145,0.8007 -0.0942,0.43543 0.79827,1.91204 1.98353,3.28133 2.47243,2.85629 2.77841,5.26634 0.89968,7.08612 -0.68066,0.65927 -1.87585,1.19548 -2.65603,1.19155 -1.59432,-0.009 -7.182836,-3.29743 -7.177967,-4.22495 0.0017,-0.33038 -1.240533,-1.1627 -2.760588,-1.8496 -2.775718,-1.25435 -3.420319,-2.09442 -1.987168,-2.58975 0.523897,-0.18107 0.332693,-0.65205 -0.596717,-1.46988 -0.752201,-0.6619 -1.197484,-1.36827 -0.989544,-1.56968 0.207956,-0.20143 -0.350021,-0.69534 -1.239958,-1.09755 -1.046188,-0.47285 -1.839049,-1.4962 -2.243375,-2.89553 -0.343948,-1.19031 -3.039184,-6.90007 -5.989441,-12.68838 l -5.364105,-10.52417 -2.988369,5.06005 c -3.124691,5.29089 -6.836764,15.62138 -5.837134,16.24441 0.564993,0.35215 -0.0965,1.05108 -1.95649,2.06744 -0.79827,0.43619 -0.80874,0.36593 -0.07591,-0.50905 0.732656,-0.87468 0.712117,-1.01574 -0.148503,-1.02006 -1.469763,-0.007 -1.287668,2.44551 0.210609,2.83701 0.672452,0.17571 1.05877,0.57602 0.858456,0.88956 -0.200296,0.31354 0.0869,1.06305 0.638424,1.66552 0.935134,1.02174 0.917195,1.11684 -0.266607,1.41344 -1.12393,0.28159 -1.187014,0.49692 -0.551294,1.88118 0.394851,0.85974 0.966806,1.56442 1.271037,1.56596 0.304213,0.002 0.35447,-0.31541 0.111682,-0.70429 -0.296814,-0.47542 -0.106447,-0.57935 0.580943,-0.31721 0.562305,0.2144 1.023764,0.12722 1.025439,-0.19371 0.0035,-0.72268 0.657253,-0.72907 1.792892,-0.0174 0.738485,0.46269 0.725432,0.67956 -0.0883,1.46778 -0.525153,0.50868 -1.169458,0.73339 -1.43179,0.49933 -0.262315,-0.23405 -0.305452,0.0499 -0.0958,0.6309 0.349654,0.96919 0.21663,0.98818 -1.610884,0.2301 -1.690545,-0.70125 -2.114975,-0.6988 -2.804494,0.0154 -0.635474,0.65891 -1.004237,0.68504 -1.692848,0.11988 -0.715119,-0.58689 -0.808584,-0.53653 -0.497844,0.26827 0.210418,0.54496 0.765359,0.99274 1.233222,0.9951 0.506045,0.002 0.800888,0.55315 0.727788,1.35919 -0.09528,1.05046 -0.524961,1.36805 -1.912375,1.41329 -0.98424,0.0321 -2.035035,0.43349 -2.335112,0.89195 -0.450867,0.68888 -0.54646,0.69151 -0.550701,0.0154 z m 46.325972,-1.89597 c 0.59483,-0.43719 1.08451,-1.36554 1.08817,-2.06301 0.009,-1.70268 -3.47621,-5.57764 -4.63211,-5.15021 -0.6487,0.23987 -0.78267,0.0442 -0.48378,-0.70647 0.33721,-0.84695 0.16892,-0.96366 -0.913126,-0.63354 -0.792041,0.24163 -1.325134,0.1455 -1.323109,-0.23835 0.0017,-0.35368 0.335798,-0.64137 0.742097,-0.63932 0.543563,0.003 0.558204,-0.17479 0.05549,-0.67193 -0.502799,-0.49712 -1.059817,-0.42034 -2.108483,0.29064 -0.783874,0.53145 -2.230497,0.96219 -3.214736,0.95724 l -1.789559,-0.009 3.343119,3.78219 c 1.838716,2.0802 4.287151,4.26094 5.440957,4.8461 2.47601,1.25569 2.41266,1.25177 3.79514,0.23566 z M 56.7803,162.00982 c 0.219299,0.64918 0.379948,0.66287 0.761885,0.0649 0.266189,-0.41669 0.187366,-1.07157 -0.175167,-1.45528 -0.753056,-0.79712 -4.137305,-0.50797 -4.141825,0.35388 -0.0016,0.31326 0.274914,0.40345 0.614569,0.20038 0.339656,-0.20308 0.615163,0.0866 0.612249,0.64373 -0.0052,0.87438 0.135415,0.90056 1.022525,0.19132 0.866344,-0.69255 1.071544,-0.69238 1.305764,0.001 z m -4.092283,-3.51331 c -0.568169,-0.34761 -0.705992,-1.04741 -0.420678,-2.13612 0.28685,-1.09465 0.207468,-1.48952 -0.245056,-1.21895 -0.368152,0.22011 -1.140124,0.0355 -1.715482,-0.40998 -0.951904,-0.73724 -0.967033,-0.71074 -0.168048,0.29442 0.763003,0.95991 0.761868,1.17577 -0.0087,1.6475 -0.728189,0.44582 -0.694126,0.54547 0.190559,0.55751 0.592494,0.009 1.075121,0.42128 1.07252,0.9183 -0.0017,0.49702 0.288631,0.90513 0.647185,0.90693 0.358571,0.002 0.454653,0.34117 0.21354,0.75417 -0.327614,0.56111 -0.221376,0.5553 0.420364,-0.0231 0.728398,-0.6564 0.730492,-0.85231 0.01396,-1.29081 z m 5.014922,-0.28528 c 0.930561,0.10844 1.714103,0.012 1.741186,-0.21328 0.02705,-0.22578 0.14449,-0.88445 0.261024,-1.46373 0.270045,-1.34317 -0.848702,-1.3694 -1.8502,-0.0436 -0.721313,0.95503 -0.830221,0.95449 -1.804758,-0.009 -1.375268,-1.35977 -2.386067,-1.34429 -1.675154,0.0258 0.3017,0.58138 0.400278,1.46296 0.219073,1.9591 -0.258389,0.70739 -0.141,0.75589 0.54372,0.22475 0.480253,-0.37251 1.634564,-0.58852 2.565109,-0.48004 z m 5.99684,-0.75323 c -0.0035,-0.24856 -0.273466,-0.8599 -0.599073,-1.35856 -0.478718,-0.73316 -0.595165,-0.64728 -0.608549,0.44878 -0.0087,0.7455 0.260482,1.35685 0.599073,1.35856 0.338573,0.002 0.612423,-0.20025 0.608549,-0.44878 z m -19.66838,-4.20106 c 0.0035,-0.51658 -0.277514,-0.77035 -0.622701,-0.56397 -0.345204,0.2064 -0.469591,0.62843 -0.276397,0.93787 0.523321,0.83826 0.893532,0.68431 0.899098,-0.3739 z m 5.817084,-2.73788 c 0.279486,-1.98362 0.179949,-3.32274 -0.288456,-3.88088 -0.419596,-0.49998 -0.460761,-0.85095 -0.09964,-0.84912 0.338573,0.002 0.96384,0.41805 1.389473,0.92523 0.425651,0.50718 0.906585,0.79362 1.068769,0.63651 0.416839,-0.40374 1.987116,1.24554 1.982718,2.08251 -0.0017,0.38262 0.343285,0.57315 0.767313,0.42342 0.42401,-0.14977 0.683865,-0.64546 0.577417,-1.10161 -0.15496,-0.66436 -0.03856,-0.67876 0.585218,-0.0724 0.964084,0.93714 2.378109,0.99537 2.382821,0.0982 0.0017,-0.37328 -0.471668,-0.50776 -1.075732,-0.30546 -0.782477,0.26206 -0.696691,0.0464 0.311927,-0.78362 1.636047,-1.34663 1.754658,-1.8538 0.435144,-1.86042 -0.527858,-0.003 -0.789074,-0.27198 -0.580506,-0.59848 0.219003,-0.34281 -0.03298,-0.44121 -0.596404,-0.23286 -0.662366,0.2449 -0.852645,0.77372 -0.592564,1.64687 0.379617,1.2745 0.374399,1.2752 -0.578098,0.0763 -0.528643,-0.66538 -0.968237,-1.54352 -0.976857,-1.95144 -0.0253,-1.19513 -2.936454,-1.683 -10.262546,-1.71984 -3.936607,-0.0198 -6.718206,-0.26625 -6.51976,-0.57771 0.190367,-0.29875 0.007,-0.34004 -0.408968,-0.0917 -0.415285,0.2483 -0.625074,0.78817 -0.466171,1.19968 0.158974,0.41154 0.03979,1.12906 -0.264793,1.59451 -0.447167,0.68347 -0.554417,0.64347 -0.557576,-0.20806 -0.0035,-1.14087 -2.119389,-1.49564 -2.777271,-0.4658 -0.611847,0.9578 -1.711154,0.68764 -1.30927,-0.32175 0.297495,-0.74718 0.139778,-0.79952 -0.856066,-0.28434 -1.051232,0.54379 -1.218389,0.44034 -1.204045,-0.7452 0.01396,-1.10979 0.131402,-1.20089 0.608654,-0.46998 0.482329,0.73868 0.595024,0.66466 0.608287,-0.39951 0.0087,-0.71839 -0.17611,-1.80376 -0.411272,-2.41191 -0.375847,-0.97197 -0.480393,-0.92378 -0.864163,0.39823 -0.414465,1.42775 -0.439332,1.43523 -0.490845,0.14806 -0.06753,-1.68931 -0.746338,-1.73688 -1.786628,-0.12535 -1.145847,1.7752 0.214763,5.54795 1.823779,5.05708 0.664426,-0.20271 1.107038,-0.0357 1.104648,0.41662 -0.0017,0.41513 0.615878,1.41908 1.373436,2.23093 l 1.377397,1.47612 -1.331189,-0.40726 c -0.750787,-0.22969 -1.516407,-0.11732 -1.755967,0.25764 -0.724053,1.13346 0.05898,1.27256 2.701728,0.47993 2.052415,-0.61555 2.557937,-1.05343 2.623132,-2.27216 0.07451,-1.39192 0.110461,-1.37092 0.460953,0.26907 0.347839,1.62747 0.693986,1.83619 4.069719,2.45395 3.540361,0.64788 7.681383,2.51976 7.676392,3.46998 -0.0013,0.24952 0.380454,0.31209 0.848353,0.13901 0.479188,-0.17719 1.037079,-1.63727 1.277458,-3.34328 z m -3.222187,0.37664 c 0.0178,-0.99395 0.157403,-1.327 0.310478,-0.74003 0.15304,0.58693 0.138556,1.40019 -0.03228,1.80721 -0.170839,0.40702 -0.295959,-0.0733 -0.278194,-1.06718 z m 0.56658,-4.26456 c 0.03316,-0.70167 0.179862,-0.84369 0.373841,-0.36211 0.175551,0.43577 0.150946,0.95529 -0.05462,1.15443 -0.205601,0.19918 -0.349235,-0.15728 -0.319168,-0.79232 z m 6.289903,0.24701 c -1.17944,-1.50628 -1.466953,-2.28116 -0.845246,-2.27804 0.694439,0.003 2.153243,2.36626 1.720036,2.78588 -0.149201,0.14465 -0.5429,-0.084 -0.87479,-0.50784 z m -6.019892,-2.30404 c -0.207503,-0.33242 0.07085,-0.60212 0.618775,-0.59937 0.547838,0.003 0.823433,0.27525 0.61244,0.60555 -0.210993,0.33029 -0.489432,0.59999 -0.618775,0.59934 -0.129308,-6.4e-4 -0.40492,-0.27313 -0.61244,-0.60552 z m 4.370547,7.59319 c -0.828511,-2.14581 -1.59195,-0.71759 -1.086464,2.03253 0.0274,0.14925 0.36529,-0.0342 0.750805,-0.40757 0.385515,-0.37341 0.536566,-1.10463 0.335659,-1.62496 z m 8.538967,1.15246 c -1.460078,-1.05613 -2.17647,-1.09117 -2.181077,-0.10656 -0.0017,0.41418 0.753893,0.79994 1.679621,0.85723 1.593085,0.0987 1.619924,0.0586 0.501456,-0.75055 z m 4.283138,-0.22479 c -0.207521,-0.33241 -0.637988,-0.60568 -0.95658,-0.60727 -0.318593,-0.002 -0.580698,0.26819 -0.582426,0.59954 -0.0017,0.33132 0.428705,0.60459 0.956563,0.60725 0.527858,0.003 0.789963,-0.26714 0.582443,-0.59952 z m 32.581139,-2.99912 c 2.809062,-2.43889 2.430793,-7.25871 -1.643673,-20.94371 -1.432628,-4.81183 -2.951095,-10.10603 -3.374372,-11.76492 -1.35192,-5.29834 -1.16719,-5.21402 -6.168815,-2.81567 -3.998504,1.91735 -5.026142,2.14391 -10.589287,2.33456 l -6.161066,0.21115 2.00474,1.55171 c 3.668046,2.83916 7.552354,9.46526 15.301357,26.10192 1.469658,3.15523 2.951723,5.93739 3.293507,6.18255 1.404707,1.00758 5.778047,0.49644 7.337609,-0.85759 z m -45.18541,-0.041 c 0.0016,-0.3118 -0.273169,-0.73583 -0.61066,-0.94233 -0.337509,-0.20648 -0.615878,0.0473 -0.618583,0.5638 -0.0035,0.51657 0.272087,0.94062 0.610678,0.94232 0.338573,0.002 0.616925,-0.25201 0.618565,-0.56379 z m 1.04008,-0.74577 c -0.193996,-0.48156 -0.340615,-0.33955 -0.37384,0.36211 -0.03001,0.63496 0.113602,0.99151 0.319186,0.79234 0.205601,-0.19917 0.230206,-0.71867 0.05462,-1.15445 z m -22.98609,-1.0569 c 0.155134,-0.24772 -0.08516,-0.78571 -0.533826,-1.19553 -0.65919,-0.60212 -0.799299,-0.51615 -0.730161,0.44819 0.08603,1.19953 0.73927,1.58577 1.263987,0.74734 z m 29.959073,-0.10041 c 0.0017,-0.38658 0.176424,-0.53205 0.387556,-0.32331 0.211133,0.20874 1.142114,6.1e-4 2.068836,-0.46246 1.433378,-0.71627 1.748184,-1.34602 2.108344,-4.21765 0.518068,-4.1305 2.477961,-8.89288 5.899152,-14.33444 1.422996,-2.26335 2.588527,-4.35494 2.590063,-4.64796 0.0015,-0.29303 -1.16609,-2.14893 -2.594739,-4.12424 -1.853602,-2.56286 -3.125843,-3.71171 -4.442182,-4.01138 -1.014568,-0.23097 -2.705741,-0.93725 -3.758159,-1.56951 -1.052418,-0.63224 -2.051333,-1.15024 -2.219817,-1.15109 -0.168571,-8.4e-4 -0.451059,1.82772 -0.627954,4.06344 -0.239298,3.02432 -0.722954,4.63575 -1.889148,6.29444 -1.928186,2.74246 -4.103766,10.36985 -4.330674,15.18302 l -0.16892,3.58474 2.08749,0.54057 c 1.697788,0.43965 2.237495,0.34195 2.890996,-0.52329 0.759966,-1.00621 0.803208,-1.00672 0.797973,-0.0102 -0.0035,0.57991 0.272366,0.88821 0.612021,0.68512 0.893148,-0.53401 0.753964,4.12469 -0.149375,4.99968 -0.577522,0.55939 -0.57836,0.72003 -0.0035,0.72292 0.406298,0.002 0.740386,-0.31257 0.742411,-0.69913 z m 0.680183,-2.52564 c 0.141697,-0.12006 0.951903,-0.53761 1.80043,-0.92787 1.454703,-0.66902 1.474265,-0.6564 0.342884,0.22134 -0.984693,0.76396 -2.991929,1.42561 -2.143314,0.70653 z m 24.435261,-32.29885 4.932381,-1.41264 0.208987,-2.33144 c 0.114998,-1.28231 0.05253,-2.95475 -0.138557,-3.71657 l -0.347508,-1.38512 -3.235501,1.4544 c -3.223444,1.44898 -6.161119,1.81841 -8.219275,1.03363 -0.725519,-0.27667 0.193386,-0.66108 2.784077,-1.16468 2.126875,-0.41343 5.114058,-1.33474 6.638161,-2.04734 l 2.771093,-1.29563 -0.174853,-3.386632 c -0.09615,-1.862642 0.05654,-3.742388 0.339358,-4.177196 0.282819,-0.434826 0.348206,-0.954713 0.145362,-1.155302 -0.202896,-0.200606 0.09284,-0.858845 0.657061,-1.462774 0.964259,-1.032003 0.94618,-1.098429 -0.300671,-1.104698 -0.729637,-0.0036 -1.328117,0.280429 -1.329967,0.631324 -0.0017,0.350901 -0.279486,0.469064 -0.616994,0.262573 -1.057968,-0.647252 -0.661581,-2.013178 0.705241,-2.430161 0.82202,-0.250779 1.505815,-0.09411 1.83521,0.420474 0.416524,0.650674 0.528067,0.615625 0.539672,-0.169596 0.007,-0.544376 0.47069,-1.15842 1.028127,-1.364544 0.557436,-0.206125 0.842925,-0.543434 0.634427,-0.749576 -0.208497,-0.206145 -0.803103,-0.03402 -1.321364,0.382532 -0.807658,0.649148 -0.940962,0.50582 -0.933039,-1.003264 0.0052,-0.968336 0.327963,-2.069327 0.717509,-2.446649 0.531854,-0.515156 0.26495,-0.792303 -1.071491,-1.11264 -1.887072,-0.452321 -3.314029,-1.337131 -3.310277,-2.052592 0.0012,-0.237586 0.696447,-0.737298 1.544887,-1.110468 0.84844,-0.373171 1.544031,-0.950237 1.545776,-1.282373 0.0017,-0.332134 -0.688489,-0.777467 -1.533858,-0.989628 -1.646395,-0.413193 -2.019939,-1.211034 -0.760996,-1.625356 0.423976,-0.139522 0.130181,-0.151596 -0.652803,-0.02681 -0.783018,0.124785 -2.256637,1.145722 -3.274695,2.268751 -2.048715,2.259947 -5.825983,3.817482 -6.836031,2.818807 -0.413837,-0.409162 -0.02077,-0.734576 1.195319,-0.989558 0.996559,-0.208954 2.760396,-1.165366 3.919628,-2.125363 l 2.107716,-1.745446 -1.614532,-0.0326 c -0.887982,-0.01796 -2.940903,0.533618 -4.562013,1.225663 -3.685269,1.57321 -7.692516,1.267321 -9.867799,-0.753245 -0.820066,-0.761739 -1.700964,-1.180889 -1.957537,-0.931449 -0.256591,0.249442 0.155658,0.952439 0.916235,1.562216 0.760507,0.609777 1.096881,1.200344 0.747489,1.31237 -0.349393,0.112027 -1.376752,3.993226 -2.28304,8.624892 -1.533928,7.839367 -1.597709,8.78873 -0.92318,13.740758 0.398515,2.92575 0.565673,5.47348 0.371467,5.66159 -0.194223,0.18812 -1.54356,-0.10973 -2.998542,-0.66193 -1.454982,-0.55217 -2.843932,-1.00497 -3.086545,-1.00619 -0.242631,-0.001 -0.448912,1.48187 -0.45844,3.29576 -0.01571,3.11012 0.09615,3.35609 1.974115,4.31848 3.531251,1.8096 4.954055,2.03031 11.84502,1.83744 4.809879,-0.13463 8.202365,-0.59899 11.705207,-1.60221 z m -10.024679,-8.12146 c -1.18799,-2.58673 -1.831161,-9.063071 -1.267337,-12.761104 0.521436,-3.420057 3.028661,-10.694876 3.518879,-10.210184 0.13908,0.137558 -0.203193,1.442296 -0.760717,2.899428 -1.319915,3.449738 -1.906843,13.82544 -1.017517,17.98776 0.772845,3.61714 0.593489,4.40695 -0.473308,2.0841 z m 13.67756,-17.147992 c 0.324456,-0.936463 1.702551,-1.093815 1.746125,-0.199373 0.0157,0.331434 -0.433207,0.693949 -0.998566,0.80559 -0.642577,0.126902 -0.922814,-0.100364 -0.747559,-0.606217 z m -6.143459,-2.799492 c 0.125469,-0.579235 0.702136,-1.013119 1.281438,-0.964186 0.579302,0.04894 1.055367,-0.30641 1.057897,-0.789655 0.0052,-0.98838 2.556505,-0.87839 2.857997,0.123196 0.162463,0.539513 -3.817195,2.691875 -4.966428,2.686098 -0.25249,-0.0013 -0.35639,-0.476228 -0.230904,-1.055465 z m 14.344638,-1.885873 c 0.210993,-0.33029 0.09022,-0.602004 -0.268318,-0.603806 -0.358554,-0.0019 -0.653362,0.267821 -0.655089,0.599164 -0.0017,0.331344 0.119012,0.603058 0.2683,0.603808 0.149376,7.51e-4 0.444096,-0.268873 0.655107,-0.599166 z M 53.877403,80.866242 c 0.168746,-0.264181 -0.227571,-0.810686 -0.880723,-1.214451 -0.952794,-0.588981 -1.188409,-0.574303 -1.191812,0.07424 -0.007,1.402666 1.407586,2.181107 2.072535,1.140206 z m 4.326415,-2.699614 c 0.169444,-0.888185 0.04939,-1.616183 -0.266834,-1.617771 -0.316167,-0.0016 -0.585654,0.06484 -0.598881,0.147599 -0.560805,3.510593 -0.577784,4.839079 -0.05148,4.026009 0.335031,-0.517528 0.747733,-1.667658 0.917142,-2.555841 z m 38.536256,2.528858 c 0.0017,-0.477461 -0.271581,-1.037052 -0.60909,-1.243536 -0.337509,-0.206484 -0.616576,0.182772 -0.620171,0.865016 -0.0035,0.682242 0.270517,1.241833 0.60909,1.243536 0.338591,0.0017 0.617658,-0.387556 0.620171,-0.865016 z m -2.534082,-3.164608 c -0.370682,-0.441683 -1.124994,-0.773881 -1.676253,-0.738216 -0.84563,0.05472 -0.834131,0.108765 0.07347,0.345777 1.048457,0.273765 1.534713,1.399802 0.602494,1.395114 -0.25715,-0.0013 -0.82811,0.556283 -1.268838,1.239059 -0.765533,1.18602 -0.717754,1.181618 1.070845,-0.09864 1.439207,-1.030153 1.716285,-1.52575 1.198182,-2.143103 z m -17.764869,0.01469 1.543543,-0.853229 -1.538639,-0.07958 c -0.846241,-0.04375 0.05322,-0.405935 1.998912,-0.804822 4.315473,-0.88473 7.617548,-3.29683 9.732349,-7.109258 0.881246,-1.58867 2.052659,-2.86032 2.72293,-2.955914 1.911258,-0.272592 2.605558,-1.913446 1.643481,-3.88401 -0.458562,-0.939256 -0.77438,-2.035966 -0.701821,-2.437132 0.07259,-0.401162 -1.009734,-1.306614 -2.405071,-2.012111 -2.823776,-1.427717 -2.945388,-2.178004 -0.194904,-1.202338 l 1.775023,0.629647 -1.838943,-1.508914 c -1.01141,-0.829904 -1.837548,-1.771894 -1.835873,-2.093312 0.0017,-0.32142 -0.521698,-0.963983 -1.163089,-1.427922 -0.804342,-0.581802 -0.945534,-0.975445 -0.455054,-1.268698 0.827377,-0.494681 0.985949,-3.364974 0.186108,-3.368996 -0.297233,-0.0015 -1.503947,0.38559 -2.681607,0.86019 -1.846168,0.744008 -2.311432,0.744941 -3.376658,0.0068 -1.064581,-0.737735 -1.39675,-0.737902 -2.401755,-0.0011 -0.641461,0.470204 -2.283965,0.857922 -3.650002,0.861592 -2.034773,0.0055 -2.674104,0.30516 -3.537255,1.658138 -1.54801,2.426454 -4.961122,6.021673 -4.553811,4.796779 0.248057,-0.746011 0.01571,-1.054218 -0.796037,-1.058301 -1.299429,-0.0065 -1.919407,1.156083 -1.868539,3.50402 0.03124,1.439845 0.09074,1.482168 0.570227,0.405437 0.366442,-0.822847 0.541679,0.20161 0.555308,3.246421 0.01047,2.446757 0.35475,5.566212 0.763997,6.932123 0.782495,2.611698 4.992132,7.320099 6.983121,7.810492 0.629071,0.154943 0.221429,0.189142 -0.905904,0.07599 -1.691837,-0.169801 -1.92644,-0.05887 -1.34377,0.635411 0.659923,0.786339 2.137293,1.277058 4.307115,1.43064 0.507703,0.03595 1.617672,-0.318619 2.466618,-0.787896 z m -3.66014,-6.394433 c 0.01221,-2.304928 1.461089,-2.090827 1.732496,0.255991 0.1321,1.141883 -0.09458,1.609827 -0.777958,1.606391 -0.666833,-0.0034 -0.961292,-0.577862 -0.954538,-1.862382 z M 71.368545,66.57538 c -0.567366,-0.560976 -0.411481,-4.468394 0.236314,-5.922994 0.404099,-0.907419 0.542359,-0.509173 0.563823,1.624043 0.0157,1.554448 0.304562,2.99521 0.642071,3.201695 0.337509,0.206484 0.612318,0.630523 0.610678,0.942313 -0.0035,0.649643 -1.442679,0.758274 -2.052886,0.154943 z m -4.905857,-3.639421 c -0.224552,-0.22203 -0.403541,-1.307356 -0.397748,-2.411836 0.01222,-2.442296 1.596436,-2.760494 2.463041,-0.494898 0.896342,2.343309 -0.560856,4.394204 -2.065293,2.906734 z M 77.783916,60.42183 c -1.053552,-1.95053 -0.766789,-3.658218 0.613139,-3.65128 1.026015,0.0051 1.229103,0.407818 1.218563,2.415963 -0.01396,2.587987 -0.810695,3.125564 -1.831702,1.235317 z m 10.294899,-0.934899 c -2.294976,-1.233408 -2.152231,-1.741598 0.156879,-0.55831 1.01305,0.519142 1.84123,1.072481 1.84041,1.229644 -0.0017,0.387671 -0.06806,0.365477 -1.997237,-0.671334 z M 64.291767,55.745757 c 0.03316,-0.701665 0.179844,-0.843685 0.373841,-0.362107 0.175534,0.435782 0.150946,0.95528 -0.05462,1.154438 -0.205618,0.19916 -0.349253,-0.157385 -0.319186,-0.792331 z m 13.816832,-2.660709 -1.840584,-1.195407 2.148636,0.186691 c 1.467843,0.127534 2.211563,0.521073 2.347205,1.241994 0.249559,1.326462 -0.33243,1.27533 -2.655257,-0.233278 z m 15.86813,21.276797 c 0.196422,-0.30747 0.07643,-0.730734 -0.266538,-0.940585 -0.343006,-0.209852 -0.625877,0.04111 -0.628582,0.557669 -0.0052,1.058207 0.363021,1.215878 0.89512,0.382916 z M 90.507705,54.669292 c -1.285451,-0.864302 -2.467874,-1.444874 -2.627598,-1.290162 -0.325259,0.31504 3.417911,2.726085 4.360461,2.808667 0.332396,0.02912 -0.447394,-0.654204 -1.732863,-1.518505 z m 2.682934,-1.458454 c 0.01396,-2.595383 -1.442644,-5.718779 -3.781717,-8.111037 -1.1073,-1.132489 -2.495133,-2.62204 -3.084067,-3.310114 -0.813068,-0.949964 -1.795684,-1.25469 -4.082912,-1.266189 -2.109583,-0.01059 -3.116926,-0.286457 -3.361773,-0.920592 -0.588987,-1.52548 -2.16963,-1.027987 -4.710116,1.482467 -1.334469,1.318703 -2.985698,2.394828 -3.669389,2.39139 -0.830483,-0.0041 -1.66423,0.791493 -2.511954,2.397207 -1.035666,1.961707 -1.593923,2.401823 -3.037317,2.394567 -1.10538,-0.0056 -1.91892,-0.398623 -2.169769,-1.048329 -0.343809,-0.890424 -0.484163,-0.912722 -0.979057,-0.155524 -0.951711,1.456101 -0.68821,3.518266 0.614081,4.805878 1.973382,1.951143 3.827123,1.530425 6.69224,-1.51884 2.298343,-2.446084 2.782942,-2.699457 4.457607,-2.33067 1.373785,0.302534 2.209574,0.12393 3.108899,-0.664364 1.009734,-0.885065 1.442121,-0.946998 2.414599,-0.345846 1.614164,0.997826 3.118147,0.927537 4.81836,-0.225185 1.157696,-0.784896 1.723544,-0.835254 2.983971,-0.265565 1.392318,0.629292 1.513877,0.948998 1.159354,3.04939 -0.330197,1.956281 -0.20506,2.406779 0.752707,2.709571 0.631811,0.199745 1.640934,0.90094 2.242503,1.55821 1.53035,1.672042 2.132599,1.49606 2.14375,-0.626412 z M 40.614378,161.17431 c 0.645457,-0.45693 1.579648,-0.67593 2.075973,-0.48667 0.716218,0.2731 0.657183,0.4367 -0.286187,0.79288 -2.084349,0.78701 -3.090855,0.61482 -1.789786,-0.30621 z m 4.297535,0.25583 c 0.211011,-0.33031 0.644305,-0.59923 0.962915,-0.59762 0.318592,0.002 0.577836,0.27401 0.576108,0.60536 -0.0017,0.33132 -0.435056,0.60025 -0.962897,0.5976 -0.527858,-0.003 -0.787119,-0.27506 -0.576126,-0.60534 z m -7.34869,-1.19043 c -0.196562,-0.31485 -0.09423,-0.72983 0.227571,-0.92219 0.321734,-0.19236 0.745779,-0.0922 0.942341,0.22271 0.196561,0.31485 0.09423,0.72983 -0.227571,0.92221 -0.321734,0.19234 -0.745779,0.0922 -0.942341,-0.22273 z m 26.438762,0.0815 c -0.20752,-0.33241 -0.08394,-0.60288 0.274618,-0.60109 0.358571,0.002 0.650517,0.27439 0.648789,0.60574 -0.0017,0.33133 -0.125294,0.60182 -0.274634,0.60107 -0.149376,-7.5e-4 -0.441269,-0.27332 -0.648773,-0.60572 z m 7.088924,-1.77174 c 0.0017,-0.33133 0.280184,-0.60104 0.618774,-0.59935 0.338574,0.002 0.614186,0.2742 0.612441,0.60555 -0.0017,0.33133 -0.280184,0.60104 -0.618758,0.59933 -0.33859,-0.002 -0.614185,-0.27419 -0.612457,-0.60553 z m 7.390414,-0.56529 c 0.0017,-0.33136 0.296535,-0.60097 0.655106,-0.59918 0.358572,0.002 0.479294,0.27353 0.268301,0.60382 -0.210994,0.33029 -0.505784,0.59991 -0.65509,0.59916 -0.149375,-7.5e-4 -0.270045,-0.27245 -0.268317,-0.6038 z m -4.30448,-0.92539 c 0.0017,-0.49702 0.281772,-0.90227 0.620345,-0.90056 0.338591,0.002 0.61347,0.40974 0.61087,0.90674 -0.0017,0.49702 -0.281772,0.90228 -0.620346,0.90057 -0.33859,-0.002 -0.61347,-0.40975 -0.610869,-0.90675 z m 9.36657,0.24841 c 0.151121,-0.44132 0.907824,-0.8898 1.681419,-0.99664 0.955673,-0.13201 1.318397,0.063 1.131591,0.60814 -0.151121,0.44132 -0.907824,0.88982 -1.681419,0.99664 -0.955673,0.13201 -1.318398,-0.063 -1.131591,-0.60814 z m 32.382847,-0.75127 c 0.4453,-0.1718 0.97615,-0.14772 1.17965,0.0534 0.20351,0.20122 -0.16072,0.34177 -0.80965,0.31236 -0.717,-0.0324 -0.86212,-0.176 -0.37,-0.36585 z m 13.78663,-0.84456 c -0.40422,-0.39966 -0.73287,-1.12084 -0.73034,-1.60263 0.003,-0.74129 -1.21451,-0.82171 -7.92605,-0.52309 -6.63717,0.29528 -8.05468,0.20501 -8.69115,-0.55338 -1.0019,-1.19383 -3.05796,-1.16536 -3.97975,0.0552 -0.49631,0.6571 -1.17003,0.83645 -2.07154,0.55143 -1.88114,-0.5947 -1.65463,-2.02164 0.36686,-2.31093 1.33796,-0.19148 1.20038,-0.26391 -0.65429,-0.34453 -4.53287,-0.19702 -6.112515,-2.60527 -2.24128,-3.41698 1.84783,-0.38745 3.52595,-1.85233 2.86762,-2.50325 -0.21351,-0.21107 -0.0722,-0.75258 0.31412,-1.20334 0.38627,-0.45073 0.52763,-0.99223 0.31413,-1.20334 -0.21351,-0.2111 -0.0806,-0.74265 0.29515,-1.18119 0.91303,-1.06542 0.18253,-2.84239 -0.99019,-2.40875 -0.50601,0.18712 -0.9185,0.0523 -0.91667,-0.29972 0.002,-0.35197 0.50732,-0.76619 1.12325,-0.92052 0.84108,-0.21072 1.05727,-0.71358 0.86837,-2.01978 -0.24132,-1.66874 -0.18044,-1.71649 1.50417,-1.17946 0.96562,0.30782 6.45994,1.55621 12.2096,2.7742 5.91077,1.25209 11.12205,2.68924 11.99127,3.30693 0.84554,0.60083 2.82762,1.2884 4.40459,1.52796 2.33255,0.3543 3.3333,0.93545 5.36631,3.11622 1.37446,1.47437 2.49696,3.07573 2.49443,3.55859 -0.014,2.55681 -3.28398,6.96446 -5.16074,6.95501 -0.41329,-0.002 -1.7498,-0.81759 -2.97002,-1.81225 -1.79049,-1.4595 -2.35007,-1.65507 -2.89992,-1.01345 -0.37469,0.43726 -0.5066,0.96772 -0.29309,1.17881 0.66514,0.65767 -1.11114,2.21279 -2.51939,2.2057 -0.73728,-0.003 -1.67125,-0.33373 -2.07545,-0.73339 z m 2.93692,-2.72644 c 0.35913,-1.24075 0.6563,-2.5948 0.66034,-3.00898 0.0157,-1.55264 1.75016,-0.64487 4.65035,2.43324 2.9924,3.17599 2.99439,3.17691 3.21189,1.50475 0.13088,-1.00601 -0.42108,-2.80514 -1.38418,-4.51201 l -1.60179,-2.83882 1.63151,1.50098 c 0.89735,0.82552 1.86909,2.11215 2.15947,2.85914 0.7032,1.80911 1.78766,1.73633 1.79741,-0.12056 0.003,-0.81685 -0.88727,-2.49355 -1.98122,-3.72603 -1.60228,-1.80521 -1.72043,-2.0986 -0.60769,-1.50897 1.92763,1.0214 1.72983,0.45113 -0.30322,-0.87427 -0.92794,-0.60495 -3.41177,-1.428 -5.5196,-1.82896 -4.99203,-0.94961 -5.41798,-0.49057 -5.36308,5.77962 0.0225,2.56507 0.20824,5.09735 0.41284,5.62729 0.62499,1.61861 1.55012,1.08662 2.23697,-1.28637 z m -15.26856,-6.85965 0.37872,-3.30639 0.0838,3.16333 0.0838,3.16333 3.9777,0.02 3.9777,0.02 0.66804,-2.37908 c 0.3674,-1.3085 1.34632,-3.1598 2.17535,-4.11399 l 1.50732,-1.73488 -6.27659,-1.69122 c -3.45213,-0.93015 -7.87499,-1.84545 -9.82857,-2.034 -3.11693,-0.30082 -3.50516,-0.22147 -3.16956,0.64773 0.23818,0.61688 0.0674,0.99242 -0.45296,0.99554 -0.64463,0.003 -0.62523,0.13952 0.085,0.59368 0.61355,0.39242 0.66381,0.5904 0.15077,0.59397 -0.42326,0.003 -0.77313,0.68311 -0.77747,1.51148 -0.007,1.20489 0.2999,1.50764 1.5311,1.51384 1.29962,0.007 1.54047,-0.27341 1.5485,-1.7996 0.0105,-1.95865 0.67078,-2.30134 1.8128,-0.94055 0.54594,0.65051 0.55086,1.47388 0.0202,3.36404 -0.88353,3.14659 -0.31998,6.16015 1.10401,5.90342 0.74773,-0.13474 1.12345,-1.07121 1.40058,-3.49064 z m 3.60388,-1.73381 c -0.53008,-0.52732 -1.77117,-1.57869 -2.75803,-2.33638 l -1.79425,-1.37763 1.84378,0.86435 c 1.82821,0.85707 4.41373,3.23614 3.92603,3.61254 -0.1396,0.10776 -0.68746,-0.23558 -1.21753,-0.76288 z m -8.54119,-6.11777 c 0.002,-0.33135 0.62644,-0.59516 1.3882,-0.58625 1.12004,0.012 1.20778,0.12706 0.45862,0.59554 -1.19749,0.74881 -1.8508,0.74553 -1.84682,-0.009 z m -1.61498,15.64601 c 0.21443,-0.33567 0.64694,-0.45306 0.96113,-0.26084 0.85115,0.52073 0.69004,0.88142 -0.39129,0.87599 -0.52786,-0.003 -0.78429,-0.27947 -0.56984,-0.61515 z m -8.58361,-7.8653 c -0.21485,-0.34413 0.31668,-0.60085 1.23438,-0.59624 0.91768,0.005 1.44648,0.26668 1.22804,0.60862 -0.211,0.33029 -0.76646,0.59861 -1.23438,0.59626 -0.46791,-0.002 -1.02053,-0.27625 -1.22804,-0.60864 z m -40.31412,-43.9977 c -0.689711,-0.68196 -0.414936,-1.39145 0.537037,-1.38666 0.507877,0.003 0.922063,0.25974 0.920441,0.57153 -0.0035,0.75967 -0.968168,1.29891 -1.457478,0.81513 z m 0.262839,-7.787624 c 0.0035,-0.800525 0.171537,-0.840858 0.924593,-0.222825 0.505714,0.415051 0.91894,0.856979 0.918277,0.982086 -6.63e-4,0.125177 -0.416734,0.225362 -0.924594,0.222809 -0.507877,-0.0026 -0.921103,-0.444483 -0.918276,-0.98207 z m 48.018501,-0.0216 c 0.002,-0.350883 0.27951,-0.469048 0.617,-0.262574 0.33751,0.206492 0.61303,0.494985 0.61226,0.641097 -7.6e-4,0.146183 -0.27842,0.264276 -0.61699,0.262573 -0.33859,-0.0017 -0.6141,-0.290195 -0.61227,-0.641096 z m -3.02944,-5.981079 c -0.77735,-0.486578 -0.75931,-0.618574 0.12948,-0.947197 1.13185,-0.418534 2.32038,0.08026 2.31571,0.971864 -0.003,0.72137 -1.27373,0.708558 -2.44511,-0.02459 z M 44.71139,87.368263 c -0.193176,-0.309429 -0.06875,-0.731461 0.276415,-0.937855 0.736967,-0.440635 1.85622,0.128968 1.851944,0.942483 -0.0035,0.733055 -1.670076,0.729433 -2.128359,-0.0046 z m 53.223515,0.261442 c 0.0016,-0.311788 0.280882,-0.733046 0.620537,-0.936125 0.339655,-0.20308 0.615337,0.0534 0.612632,0.569985 -0.0035,0.516571 -0.281946,0.937827 -0.620537,0.936124 -0.338573,-0.0017 -0.614272,-0.258194 -0.612632,-0.569984 z m -50.47146,-1.795389 c 0.0017,-0.497014 0.524874,-0.901049 1.160576,-0.897852 0.635719,0.0032 1.498556,0.414194 1.917453,0.913328 0.649331,0.77373 0.478247,0.906094 -1.160576,0.897854 -1.298207,-0.0065 -1.920646,-0.303012 -1.917453,-0.91333 z m 15.401191,-2.031174 c 0.0017,-0.331345 0.263833,-0.601134 0.582426,-0.599532 0.31861,0.0016 0.749059,0.274872 0.95658,0.607269 0.207521,0.332396 -0.05462,0.602186 -0.582443,0.599532 -0.527858,-0.0027 -0.958308,-0.275926 -0.956563,-0.607269 z m 46.203524,-6.093527 c 0.002,-0.497014 0.42027,-0.901575 0.92815,-0.89902 0.50788,0.0026 0.92126,0.411291 0.91866,0.908305 -0.002,0.497016 -0.42028,0.901577 -0.92815,0.899024 -0.50788,-0.0026 -0.92128,-0.411293 -0.91866,-0.908309 z M 53.056081,75.921856 c 0.0017,-0.331343 0.280184,-0.601049 0.618757,-0.599348 0.338591,0.0017 0.614186,0.274195 0.612441,0.605539 -0.0017,0.331343 -0.280184,0.601051 -0.618758,0.599349 -0.33859,-0.0017 -0.614185,-0.274194 -0.61244,-0.60554 z m 63.579069,-3.094279 c -1.34087,-0.532713 -0.82256,-1.409874 0.82818,-1.401575 0.954,0.0048 1.49132,0.293746 1.34288,0.722171 -0.29315,0.846081 -1.10895,1.101377 -2.17106,0.679404 z m -9.6048,-1.152798 c 0.1975,-0.496036 1.09124,-0.896533 1.98612,-0.889994 l 1.62702,0.01195 -1.768,0.891088 c -2.18988,1.103719 -2.28948,1.103015 -1.84514,-0.01298 z M 48.628837,69.062337 c -2.021423,-1.792266 -2.89637,-3.030796 -2.863895,-4.054 0.04537,-1.429621 0.06247,-1.434863 0.573404,-0.176784 0.923651,2.273893 1.839101,2.262565 1.851107,-0.0229 0.01221,-2.491565 1.238317,-3.364052 4.69968,-3.34665 1.276761,0.0065 2.80383,-0.429607 3.431522,-0.979811 0.622056,-0.545256 1.129462,-0.693631 1.127542,-0.329722 -0.007,1.233748 -2.738147,2.523606 -5.317058,2.510641 -2.717661,-0.01366 -3.317903,0.589029 -3.332369,3.346044 -0.0035,0.801262 0.285715,1.458313 0.644287,1.460115 0.358571,0.0019 0.480759,0.271251 0.271529,0.598775 -0.209231,0.327523 0.310896,1.27901 1.155829,2.114417 2.496092,2.467961 0.913111,1.676944 -2.241578,-1.120117 z m 45.706812,0.574061 c 0.0013,-0.257619 0.460517,-1.101449 1.020379,-1.875178 0.916881,-1.267146 1.336686,-1.368491 4.229426,-1.02102 4.260886,0.511807 7.081716,-0.743278 7.094386,-3.156536 0.009,-1.768588 -1.20368,-3.240076 -5.42525,-6.581579 -1.669154,-1.32118 -2.530228,-2.485412 -2.525341,-3.414428 0.01047,-1.940595 3.735751,-4.98237 6.633191,-5.415716 1.27794,-0.191135 3.22459,-0.478112 4.32585,-0.637725 1.10125,-0.159622 2.00096,-0.03841 1.99935,0.269354 -0.002,0.307756 -1.84072,0.664805 -4.08689,0.793436 -3.6644,0.20985 -4.26637,0.431626 -5.85973,2.158835 -0.97668,1.058726 -1.778061,2.359225 -1.780836,2.889995 -0.0052,0.851878 2.168826,3.122556 6.581816,6.87668 0.75845,0.645209 1.37537,1.860543 1.37097,2.700742 -0.009,1.716439 1.25682,2.039351 2.46549,0.62894 0.64442,-0.751996 0.50147,-1.160111 -0.83553,-2.38527 -2.18758,-2.004578 -2.04247,-2.56539 0.21195,-0.819156 2.84261,2.201815 2.22237,3.500611 -2.78241,5.826599 -3.9879,1.853385 -4.51867,1.955591 -6.90668,1.329937 -3.03548,-0.795296 -4.487077,-0.418705 -4.495401,1.166243 -0.0035,0.627238 -0.283011,1.139038 -0.621602,1.137335 -0.338573,-0.0017 -0.614499,-0.213871 -0.613138,-0.471488 z M 53.586504,56.293346 c -2.176452,-1.85237 -3.154078,-1.901324 -2.205751,-0.11044 0.698401,1.318864 0.683864,1.327721 -0.490096,0.298764 -0.987938,-0.86591 -2.389522,-1.066318 -7.642119,-1.092726 -4.825393,-0.02427 -6.772861,-0.268343 -7.795561,-0.977044 -1.461473,-1.012764 -1.718972,-2.433781 -0.704072,-3.885364 0.470673,-0.673181 0.531418,-0.495257 0.240641,0.704783 -0.556721,2.297556 1.040552,2.919971 7.520839,2.930675 4.303939,0.0072 5.173023,-0.130232 4.199394,-0.663623 -4.160759,-2.279425 -5.237206,-5.781269 -2.533454,-8.241553 1.971881,-1.794297 2.577586,-1.645369 0.700966,0.172354 -1.875293,1.81644 -1.95963,4.099695 -0.21094,5.710518 0.728032,0.670639 3.19444,1.929713 5.480918,2.797945 2.286477,0.868228 4.491863,1.97736 4.900883,2.464734 1.26055,1.502038 0.351609,1.434247 -1.461648,-0.109005 z m 59.909346,-1.128343 c -1.74629,-0.38949 -1.27456,-0.490555 2.50154,-0.535923 5.3644,-0.06445 6.57208,-0.70217 6.92962,-3.659224 0.2394,-1.979848 0.25996,-1.951512 0.33981,0.468465 0.0742,2.250808 -0.11412,2.648736 -1.49323,3.153939 -2.3727,0.869188 -5.86518,1.110836 -8.27774,0.572743 z"
       style="fill:#000000;stroke-width:0.60899627" />
  </g>
</svg>
