<?xml version="1.0" encoding="UTF-8" standalone="no"?>
<svg
   xmlns:dc="http://purl.org/dc/elements/1.1/"
   xmlns:cc="http://creativecommons.org/ns#"
   xmlns:rdf="http://www.w3.org/1999/02/22-rdf-syntax-ns#"
   xmlns:svg="http://www.w3.org/2000/svg"
   xmlns="http://www.w3.org/2000/svg"
   id="svg29"
   version="1.1"
   viewBox="0 0 210 297"
   height="297mm"
   width="210mm">
  <defs
     id="defs23" />
  <metadata
     id="metadata26">
    <rdf:RDF>
      <cc:Work
         rdf:about="">
        <dc:format>image/svg+xml</dc:format>
        <dc:type
           rdf:resource="http://purl.org/dc/dcmitype/StillImage" />
        <dc:title></dc:title>
      </cc:Work>
    </rdf:RDF>
  </metadata>
  <g
     id="layer1">
    <path
       id="path42"
       d="m 161.31353,227.66554 c -0.19573,-0.22291 -0.41981,-0.75024 -0.49795,-1.17188 -0.0781,-0.42163 -0.67591,-2.17287 -1.3284,-3.89163 -0.65247,-1.71876 -1.70794,-4.68196 -2.34548,-6.58488 -2.09576,-6.25525 -2.42766,-7.18837 -2.63152,-7.39849 -0.12445,-0.12825 -1.60386,0.25685 -3.86455,1.00595 -4.18995,1.38838 -5.11691,1.6207 -7.66974,1.92217 -1.01255,0.11958 -2.96183,0.42387 -4.33173,0.67617 -3.83251,0.7059 -6.68653,0.92193 -13.84747,1.04814 -7.34363,0.12943 -9.47395,-0.028 -14.63358,-1.0815 -3.15375,-0.64392 -9.46177,-2.64874 -11.185157,-3.55486 -1.319856,-0.69396 -4.271966,-1.76943 -4.856965,-1.76943 -0.637422,0 -0.657483,0.27394 -0.214462,2.92837 0.17173,1.02893 0.40926,2.92546 0.52783,4.21455 0.229911,2.49934 0.75987,7.01326 1.09602,9.33526 0.112361,0.77609 0.15086,1.55455 0.08559,1.72991 -0.18681,0.50172 -0.65397,0.37478 -1.1239,-0.30538 -0.444291,-0.64304 -0.73769,-2.4913 -1.761189,-11.09463 -0.727741,-6.11709 -1.508161,-12.11783 -1.872471,-14.39742 -1.46708,-9.18006 -3.87902,-26.93551 -4.245099,-31.25024 -0.177451,-2.09151 -0.261872,-6.61277 -0.238602,-12.77911 0.0331,-8.77172 0.007,-9.54243 -0.324868,-9.54174 -0.198502,4.5e-4 -1.189341,0.23796 -2.201881,0.52786 -7.97084,2.28215 -10.37092,2.91649 -13.56912,3.58627 -5.78645,1.21185 -9.6778,1.64773 -15.99485,1.79163 -7.55577,0.17215 -13.9012,-0.3706 -15.730371,-1.34544 -0.45473,-0.24236 -1.535518,-0.32054 -4.455509,-0.32231 -3.20898,-0.002 -4.28161,-0.092 -6.39939,-0.53716 -2.240209,-0.47091 -2.852129,-0.70832 -5.121019,-1.98695 -3.73654,-2.10572 -5.49945,-3.48761 -6.08388,-4.769 -0.791371,-1.73512 -0.982941,-3.13922 -0.714361,-5.23584 0.27552,-2.15066 0.15998,-2.51398 -1.332099,-4.1892 -1.407261,-1.57997 -1.856161,-2.48422 -1.856161,-3.73902 0,-1.27584 0.44448,-3.16799 1.19259,-5.07683 l 0.527081,-1.34483 -0.948331,-1.6823 c -1.782091,-3.16137 -2.031571,-4.91429 -1.0771,-7.56813 0.601591,-1.67269 0.955041,-2.02154 3.2767,-3.23403 1.27393,-0.6653 1.69465,-0.74094 5.74599,-1.03294 3.01445,-0.21725 4.09337,-0.52439 4.36027,-1.24121 0.30265,-0.81282 0.0938,-1.94634 -0.633729,-3.44047 -1.182271,-2.42787 -1.685511,-5.13671 -1.536081,-8.26837 0.13807,-2.893532 0.506891,-4.585701 1.45885,-6.693251 1.0663,-2.360677 2.08737,-3.562665 3.96344,-4.665704 1.50384,-0.884189 1.869641,-1.000043 3.76222,-1.191549 3.73622,-0.378066 5.65007,0.555184 6.33899,3.091085 0.465979,1.715278 0.161141,5.985831 -0.65718,9.20652 -0.59347,2.335726 -0.686989,3.043596 -0.60772,4.600089 0.16599,3.25929 1.34979,4.98256 4.91616,7.1565 2.802329,1.70822 3.35276,2.34322 6.393419,7.37583 0.459981,0.76132 0.899501,1.16424 1.62439,1.48915 0.546591,0.24501 1.402671,0.63397 1.902401,0.86437 0.499739,0.2304 1.04492,0.41891 1.21152,0.41891 0.1666,0 1.41461,0.39528 2.77336,0.87841 5.547249,1.97241 10.94913,2.60311 21.74658,2.53901 7.41672,-0.0439 11.84324,-0.38759 18.35313,-1.42453 3.749844,-0.59728 3.934664,-0.6796 3.776794,-1.68223 -0.0799,-0.50762 -0.500817,-1.24156 -1.164596,-2.03086 -1.670548,-1.98641 -1.931038,-2.34881 -3.109618,-4.32619 -1.23932,-2.0793 -3.22589,-6.06965 -3.91391,-7.86177 -0.24472,-0.63741 -0.77069,-2.62997 -1.168831,-4.42792 -1.935699,-8.741178 -1.307699,-16.903393 1.881251,-24.4506 l 0.866089,-2.049762 -0.883269,-1.916026 c -1.09355,-2.372187 -1.305,-3.293719 -1.311711,-5.716689 -0.005,-1.751837 0.0602,-2.047648 0.781752,-3.557224 0.781519,-1.634932 0.785728,-1.659134 0.600079,-3.446449 -0.102828,-0.989975 -0.18897,-3.10577 -0.19143,-4.70177 -0.004,-2.736795 0.03031,-2.974787 0.60704,-4.185241 0.76727,-1.610325 2.431131,-3.504972 3.67553,-4.185329 1.17664,-0.643319 1.66864,-0.497446 1.67028,0.495206 0.003,1.866597 0.782201,3.305988 2.103554,3.886247 2.1993,0.9658 5.02535,-0.416253 9.06105,-4.431231 1.19983,-1.193667 2.53773,-2.323699 2.97311,-2.51118 0.58193,-0.250589 1.59443,-0.340875 3.82263,-0.340875 4.53303,0 5.57639,-0.489695 8.08507,-3.794677 2.58971,-3.411712 3.58147,-4.064561 5.40559,-3.55834 1.53849,0.426957 3.79174,1.721311 5.06462,2.909321 1.5372,1.434709 2.24757,1.739341 6.45488,2.768079 3.05688,0.747448 3.53061,0.926303 4.26538,1.610451 0.98544,0.917534 3.31605,4.132888 4.28614,5.913256 0.48684,0.893458 1.29849,1.805759 2.72657,3.064662 3.28463,2.895524 6.04233,6.509409 7.61657,9.981306 1.11439,2.457732 1.39424,3.926186 1.39762,7.333815 0.002,2.487314 -0.67736,7.899871 -1.31496,10.469174 -0.56922,2.293803 -2.19597,6.466345 -3.38403,8.679942 -0.54101,1.008022 -1.08832,2.236046 -1.21624,2.72893 -0.21354,0.822889 -0.17245,1.01454 0.50259,2.34398 0.72813,1.434025 0.73505,1.475462 0.72578,4.349631 -0.009,2.503753 -0.0789,3.083013 -0.51653,4.222873 -0.90489,2.3571 -2.70154,3.75822 -6.30309,4.91542 -1.2969,0.41668 -2.05785,0.80653 -2.55332,1.30806 -0.88211,0.89289 -2.91523,3.42072 -4.14838,5.15779 -0.83839,1.18101 -0.89878,1.34628 -0.57965,1.58678 0.3773,0.28433 5.99011,2.8021 8.38139,3.75968 2.12775,0.85206 8.92406,4.5454 10.99201,5.97343 0.51224,0.35371 0.97197,0.64314 1.02161,0.64314 0.48586,0 6.64647,4.45746 11.24175,8.13387 1.55796,1.24643 3.27558,2.57869 3.81695,2.96058 1.70498,1.20274 5.1637,5.45487 8.58757,10.5575 0.20596,0.30692 1.21764,1.71318 2.24818,3.12503 3.69757,5.06563 6.31734,8.82921 6.73939,9.68183 0.55316,1.11744 0.74633,3.71149 0.41262,5.54098 -0.84814,4.64986 -4.53246,13.79339 -7.17769,17.81315 -1.87384,2.84751 -4.64124,7.74869 -6.11278,10.82597 -0.80065,1.67433 -2.46668,4.36638 -4.51464,7.29499 l -0.88682,1.26816 0.52824,0.7408 c 0.54296,0.76145 0.679,1.11924 1.91852,5.04619 l 0.72489,2.29648 -0.34695,1.27498 c -0.5384,1.97854 -1.62796,4.46909 -2.38752,5.45747 -1.22807,1.59802 -1.35811,1.62113 -9.1274,1.62113 -6.6416,0 -6.90584,0.0163 -7.21798,0.44643 -0.46263,0.63747 -0.27064,1.6637 0.77255,4.12949 0.49342,1.16631 0.9543,2.53062 1.02418,3.03183 0.12145,0.87102 0.0934,0.92771 -0.63404,1.28348 -0.98072,0.47963 -1.51677,0.47058 -1.95901,-0.0331 z m 13.834,-10.65007 c 1.73595,-0.45856 2.24301,-0.89193 3.06946,-2.62352 0.88961,-1.86392 1.16677,-3.55845 0.79751,-4.87591 -0.58856,-2.09993 -1.40994,-4.31825 -1.73667,-4.69034 -0.90383,-1.02929 -2.34155,-0.64056 -3.60916,0.97586 -1.06306,1.35556 -1.2371,1.78426 -1.2371,3.04692 0,1.34105 0.28073,1.57631 1.68623,1.41303 1.21251,-0.14085 1.56255,0.248 1.56255,1.73578 0,1.26933 -0.26801,1.56448 -1.42063,1.56448 -0.74295,0 -1.07379,-0.15691 -1.88782,-0.89536 -2.38945,-2.16768 -2.57508,-5.48058 -0.43894,-7.83419 0.76951,-0.84786 0.95372,-1.1946 0.85345,-1.60637 -0.15111,-0.62053 -0.68771,-0.89885 -2.9188,-1.51388 -3.08437,-0.85026 -5.24647,-2.16653 -8.04012,-4.89474 -1.73728,-1.69658 -2.28714,-1.8749 -2.74313,-0.88952 -1.67376,3.61704 -2.5273,7.75963 -2.06036,9.9999 0.13559,0.65058 0.24655,1.54008 0.24655,1.97668 0,1.14782 0.94727,4.13404 2.00706,6.32713 1.13007,2.3386 1.58677,2.62234 4.63838,2.88179 3.88327,0.33014 9.8068,0.27861 11.23154,-0.0977 z m -42.56777,-6.37522 c 3.59611,-0.43243 9.89095,-1.57203 12.34539,-2.23497 1.36991,-0.37001 3.85523,-1.15541 5.52294,-1.74532 l 3.0322,-1.07257 0.1083,-7.45264 c 0.0596,-4.09893 0.054,-7.52859 -0.0122,-7.62146 -0.0663,-0.0929 -1.10323,0.18306 -2.30432,0.61317 -3.49083,1.25005 -13.5532,3.39509 -19.50917,4.15885 -3.79848,0.4871 -8.30475,-0.30321 -9.55606,-1.67593 -0.39299,-0.43114 -0.51715,-0.93263 -0.67639,-2.73211 -0.52607,-5.94495 -0.61243,-9.49666 -0.43088,-17.71759 0.20612,-9.33175 0.52243,-13.6686 1.51966,-20.83562 0.35603,-2.55886 0.64734,-4.88302 0.64734,-5.16479 0,-0.28179 0.24976,-1.4025 0.555,-2.49046 0.79377,-2.82926 1.91658,-3.92045 4.31819,-4.19661 1.99642,-0.22957 3.24521,-0.6609 6.45901,-2.23098 3.3391,-1.63132 5.42977,-3.12977 8.18261,-5.86475 3.82088,-3.79608 6.04233,-8.18352 6.04233,-11.9338 v -1.55352 l -1.67855,-0.76791 c -0.92318,-0.42234 -2.23205,-1.06872 -2.90858,-1.43638 -0.67651,-0.36766 -1.47929,-0.66847 -1.78393,-0.66847 -0.60363,0 -0.74844,0.26107 -1.79505,3.23663 -0.30226,0.85938 -0.89775,2.26564 -1.32329,3.12503 -1.73573,3.50546 -2.94147,4.76879 -6.3503,6.65378 -3.70889,2.05088 -6.51951,2.83528 -10.13111,2.82744 -2.81895,-0.007 -3.66543,-0.16136 -6.30048,-1.15535 -2.50637,-0.94548 -3.43008,-1.58619 -4.91612,-3.40995 -0.9969,-1.22346 -1.77836,-1.87901 -3.64521,-3.05788 -1.30695,-0.82529 -2.4861,-1.50565 -2.62033,-1.51188 -0.43039,-0.02 -1.16397,2.11649 -1.15999,3.37829 0.005,1.47385 0.48764,3.87796 1.03545,5.15429 0.2278,0.53074 1.01022,1.899 1.73874,3.04056 1.82093,2.85341 1.90918,3.15663 1.57859,5.42365 -0.14866,1.01949 -0.45219,2.60698 -0.67452,3.52774 -0.53536,2.21713 -1.8932,11.65207 -2.36117,16.40638 -0.6599,6.70455 -0.76597,9.13357 -0.72125,16.51797 0.026,4.29692 0.1546,8.92319 0.28571,10.28063 0.28433,2.94358 0.056,3.84569 -1.09745,4.33813 -0.61749,0.2636 -0.8689,0.24171 -2.16496,-0.18848 -1.60453,-0.5326 -5.273874,-2.32272 -7.152674,-3.48946 -1.35489,-0.84142 -3.892861,-1.98082 -4.05045,-1.81842 -0.18943,0.19524 0.86637,8.03223 1.342161,9.96258 0.166429,0.67522 0.414728,2.31532 0.551759,3.64466 0.13704,1.32933 0.361561,2.88602 0.49894,3.4593 l 0.24979,1.04233 3.25306,1.67467 c 2.27529,1.17131 4.586314,2.12731 7.688794,3.1806 5.45153,1.85081 7.89039,2.39347 11.79965,2.6255 3.65031,0.21666 14.003,0.0637 16.56883,-0.24488 z m 44.33361,-11.48361 c 0.86715,-0.58557 6.44617,-8.48771 8.74099,-12.38078 1.29597,-2.19854 3.90848,-6.96074 4.59206,-8.3706 0.29764,-0.61384 1.20152,-2.47212 2.00866,-4.1295 0.80711,-1.65738 1.85528,-4.16856 2.32924,-5.58039 0.7495,-2.23264 0.87578,-2.89535 0.96946,-5.08789 0.10639,-2.48989 0.0993,-2.53795 -0.57938,-3.90628 -0.62639,-1.26301 -3.03861,-4.76791 -6.24879,-9.07938 -1.23328,-1.65636 -5.41121,-6.77379 -7.50908,-9.19762 -0.60289,-0.69658 -1.29111,-1.51077 -1.52934,-1.8093 -0.67624,-0.84741 -2.87224,-2.77556 -4.6566,-4.08863 -3.906,-2.87438 -5.34082,-3.98177 -6.68712,-5.16111 -0.78916,-0.69131 -2.14411,-1.73501 -3.01099,-2.31933 -0.86687,-0.58432 -1.85102,-1.30076 -2.18695,-1.59208 -0.33595,-0.29133 -1.62468,-1.11587 -2.86386,-1.83231 -1.23918,-0.71644 -2.8866,-1.67773 -3.66088,-2.13619 -2.15909,-1.27843 -3.93402,-2.15611 -4.71073,-2.3294 -0.69001,-0.15394 -0.70391,-0.14148 -0.70391,0.63096 0,5.06395 -5.10771,12.96559 -10.86485,16.80792 -2.63153,1.7563 -8.80278,4.5131 -11.95072,5.3386 -1.0663,0.27962 -2.06892,0.64259 -2.22803,0.80659 -0.31593,0.32558 -0.85019,3.17612 -1.05844,5.64726 -0.0723,0.85938 -0.3169,2.91855 -0.54331,4.57593 -0.22637,1.65738 -0.51806,4.6708 -0.6482,6.69648 -0.13012,2.02568 -0.32531,4.83821 -0.43372,6.25005 -0.10845,1.41184 -0.21947,7.28799 -0.24677,13.05814 -0.0541,11.44792 -0.033,11.67068 1.18756,12.49485 0.91844,0.62024 4.13205,0.91256 6.80176,0.61872 5.16469,-0.56839 12.29248,-1.84395 14.78664,-2.64615 6.44782,-2.07378 7.47552,-2.47469 7.73295,-3.01661 0.14342,-0.30189 0.36596,-1.49914 0.49457,-2.66056 0.34649,-3.12895 0.854,-6.87163 1.10357,-8.13849 0.46897,-2.38039 0.60069,-2.94168 1.83347,-7.81257 1.71574,-6.77909 1.70226,-6.64174 0.69353,-7.0684 -2.79813,-1.18352 -11.04552,-5.94949 -12.00293,-6.93621 -0.34259,-0.35307 -0.34249,-0.3854 8.8e-4,-0.52133 0.39335,-0.15557 2.56447,0.73945 6.59967,2.72067 1.34707,0.66138 2.52589,1.20251 2.61961,1.20251 0.0937,0 0.33889,0.19186 0.5448,0.42636 0.20591,0.2345 0.62588,0.49141 0.93326,0.57092 0.30736,0.0795 1.62889,0.64835 2.9367,1.2641 4.00643,1.88636 11.96169,4.87885 12.97443,4.88056 0.83694,8.4e-4 0.99025,0.44068 0.34431,0.98658 -0.3028,0.25591 -0.70407,0.7782 -0.89173,1.16063 -0.18764,0.38243 -1.58815,2.8662 -3.1122,5.5195 -4.86842,8.4756 -7.16602,13.01946 -7.60773,15.04558 -0.10326,0.47352 -0.10368,1.5944 -8.7e-4,2.51959 0.16158,1.45603 0.26681,1.7392 0.83279,2.24092 0.35631,0.31587 0.64784,0.66742 0.64784,0.78125 0,0.37172 4.16393,4.09006 4.5992,4.10703 0.0875,0.003 0.63481,0.30783 1.21615,0.67647 1.51294,0.95944 3.39211,1.34678 5.87621,1.21124 1.26827,-0.0692 2.23821,-0.23678 2.53663,-0.4383 z m -19.07929,-4.96226 c 0.13125,-0.0902 0.35032,-1.06803 0.48679,-2.17293 0.55743,-4.51312 1.87682,-7.54062 7.37583,-16.92477 0.85051,-1.45142 1.83545,-3.2291 2.18875,-3.95039 0.3533,-0.72131 1.03338,-1.93498 1.5113,-2.69706 0.47794,-0.76208 0.86895,-1.5022 0.86895,-1.64473 0,-0.27529 -1.00823,-0.73881 -4.33171,-1.99141 -1.13168,-0.42652 -2.55556,-0.97733 -3.16422,-1.22398 -1.49248,-0.60486 -1.86711,-0.32922 -2.47566,1.82144 -0.25067,0.88588 -0.54689,1.91204 -0.65825,2.28034 -0.8513,2.81513 -2.19979,10.53913 -3.00072,17.18763 -0.26585,2.20685 0.0113,8.64568 0.39239,9.11904 0.32791,0.4072 0.45518,0.43825 0.80655,0.19682 z m -54.40247,-6.24664 c -0.28369,-0.6443 -0.37482,-20.52244 -0.11071,-24.14252 0.1307,-1.79148 0.33658,-4.76395 0.4575,-6.60548 0.25271,-3.84905 0.99809,-9.12175 1.86172,-13.16974 0.48038,-2.25166 1.16765,-5.29364 1.29782,-5.74447 0.0745,-0.25757 -0.23727,-0.74955 -0.93054,-1.46899 -1.17936,-1.22391 -2.67146,-3.84977 -3.20735,-5.64442 -0.47443,-1.58884 -0.65775,-5.4816 -0.3529,-7.49383 0.35918,-2.37078 0.34542,-2.38591 -2.00915,-2.20862 -1.083796,0.0816 -3.042623,0.29273 -4.352963,0.46918 -5.75668,0.77517 -14.517581,1.23964 -23.391281,1.2401 -5.563489,2.3e-4 -7.75942,-0.29252 -16.762509,-2.23528 -1.714672,-0.37 -3.200991,-0.6196 -3.302931,-0.55467 -0.29508,0.18796 -0.22565,0.70494 0.47697,3.55156 0.706841,2.86373 1.06116,6.15801 1.066851,9.91887 0.007,4.85939 -1.441381,7.88419 -6.762241,14.11869 -0.805469,0.94379 -1.464499,1.82271 -1.464499,1.95314 0,0.38721 13.186019,0.30644 16.352229,-0.10014 4.5146,-0.57972 8.00993,-1.29016 13.861501,-2.81737 2.382449,-0.6218 5.306359,-1.38304 6.497579,-1.69163 1.19122,-0.3086 2.506991,-0.72587 2.923911,-0.92725 0.737979,-0.35648 0.76092,-0.40661 0.866349,-1.89357 0.0968,-1.36528 0.177271,-1.58428 0.75805,-2.063 0.74843,-0.61692 1.51831,-0.69824 1.71099,-0.18075 0.0731,0.19639 0.06231,2.13 -0.0241,4.29692 -0.242651,6.08704 -0.17807,19.83316 0.11185,23.80606 0.14334,1.96432 0.35209,4.94895 0.46388,6.63256 0.344551,5.18887 0.75691,6.48934 2.48956,7.85134 0.687331,0.54031 3.54724,2.13538 7.356903,4.1032 1.390561,0.71826 3.138431,1.35397 3.779021,1.37443 0.40953,0.0131 0.47648,-0.061 0.33851,-0.37432 z M 43.845566,149.25299 c 1.39861,-0.95423 2.34689,-1.92826 4.981581,-5.11685 1.86112,-2.25242 3.51016,-5.39757 3.949019,-7.53181 0.53645,-2.60888 0.29909,-8.18926 -0.466059,-10.95742 -0.459951,-1.664 -0.633931,-1.80615 -0.95254,-0.77823 -0.1462,0.47169 -0.635361,1.81186 -1.087011,2.97817 -0.724519,1.8709 -0.86154,2.54101 -1.163929,5.69199 -0.329961,3.43847 -0.3782,3.64721 -1.295131,5.60564 -1.697179,3.62488 -4.530939,7.16167 -7.008699,8.74748 -1.420161,0.90894 -1.911861,1.32922 -1.750471,1.49624 0.18031,0.18658 2.272121,0.72192 2.95226,0.75556 0.27456,0.0136 1.10301,-0.38728 1.84098,-0.89077 z m -7.547839,-1.24453 c 4.18759,-1.07592 8.64241,-5.51445 10.22792,-10.19054 0.615079,-1.81401 0.95574,-5.553 0.530619,-5.82379 -0.44497,-0.28343 -0.255099,-1.08885 0.606191,-2.57136 1.879189,-3.2346 2.168819,-7.08141 0.8161,-10.8394 -0.73769,-2.04939 -4.317651,-7.6138 -5.418281,-8.42175 -0.3787,-0.27799 -1.51699,-0.95778 -2.52952,-1.51065 -1.530319,-0.83555 -1.980019,-1.21235 -2.664889,-2.23287 -1.509191,-2.24883 -1.656811,-2.74116 -1.66208,-5.54321 -0.004,-1.847578 0.117199,-3.021375 0.447459,-4.352707 0.734621,-2.961251 1.063281,-5.262351 1.063591,-7.446678 2.1e-4,-1.847911 -0.0518,-2.114674 -0.52242,-2.67859 -0.51329,-0.615015 -0.564971,-0.626233 -2.86976,-0.623145 -4.05382,0.0057 -6.173529,1.095308 -7.52902,3.871162 -1.15739,2.370156 -1.63278,4.278419 -1.78296,7.156983 -0.12444,2.385164 -0.08869,2.755195 0.45436,4.700525 0.324191,1.16134 0.85953,2.67259 1.18965,3.35832 0.330119,0.68572 0.66856,1.64311 0.752109,2.12751 0.08351,0.48441 0.20547,1.06779 0.270951,1.29641 0.13711,0.47875 2.6095,1.70021 5.70567,2.81884 3.21184,1.16045 5.7712,3.25603 6.78456,5.5552 0.354539,0.80437 0.47325,1.60015 0.53862,3.61048 l 0.08379,2.57869 -0.88583,1.4392 c -0.48722,0.79156 -0.88677,1.57578 -0.8879,1.74273 -9.66e-4,0.16694 0.488889,0.85714 1.088951,1.5338 1.290619,1.45537 1.725449,2.42138 1.722269,3.82613 -0.004,1.5479 -0.80563,3.96284 -1.64534,4.95364 -0.25234,0.29775 -0.23166,0.47854 0.14043,1.22769 0.83474,1.68065 0.939231,2.37181 0.56117,3.71213 -0.47231,1.6744 -0.985161,2.26519 -2.687131,3.0955 -3.322908,1.62111 -7.011079,2.11839 -11.299709,1.52356 -1.908339,-0.26468 -2.82713,-0.0781 -2.82713,0.57378 0,0.48296 1.584111,1.24486 3.119021,1.50013 1.80888,0.30083 5.421939,0.53822 6.735639,0.44256 0.595611,-0.0433 1.66339,-0.228 2.37285,-0.41028 z m -4.186561,-3.30052 c 3.39745,-0.52781 5.40133,-1.50637 6.24218,-3.04827 0.24459,-0.44851 0.444711,-1.10495 0.444711,-1.45873 0,-0.80152 -0.90191,-2.20219 -1.684751,-2.61641 -1.52498,-0.80689 -7.325279,-2.33849 -10.674019,-2.81852 -2.0815,-0.29837 -5.991789,0.032 -7.47335,0.63135 -0.99722,0.40343 -1.09279,0.51209 -1.43421,1.63063 -1.12578,3.68822 0.149659,5.65161 4.589221,7.06455 0.416928,0.13267 2.220009,0.35874 4.006839,0.50233 1.786829,0.14359 3.289401,0.30124 3.33903,0.35034 0.13714,0.13564 0.390159,0.11295 2.644349,-0.23727 z m 7.06479,-9.85564 c 0.575821,-0.37633 1.052431,-1.46442 1.25686,-2.86936 0.124451,-0.85526 0.051,-1.21193 -0.466949,-2.26693 -0.342141,-0.69691 -1.09734,-1.69726 -1.70342,-2.25633 -1.735351,-1.60077 -6.27283,-3.63975 -9.31296,-4.18492 -0.47314,-0.0849 -2.86099,-0.1417 -5.306351,-0.12633 -3.38785,0.0213 -4.806959,0.11888 -5.962198,0.41002 -1.411991,0.35587 -1.562591,0.45379 -2.193031,1.42598 -1.054531,1.62616 -1.15295,3.06782 -0.38059,5.57433 0.41989,1.36262 2.41555,3.38744 3.162429,3.20864 4.481501,-1.07293 7.153611,-1.00757 12.839511,0.314 0.476491,0.11075 1.64606,0.36575 2.599039,0.56669 0.95298,0.20092 2.07381,0.45223 2.49073,0.55847 0.931351,0.23729 2.325701,0.0714 2.97693,-0.35426 z m 90.151484,-6.56156 c 3.76112,-1.10075 6.96213,-3.64335 8.46493,-6.72378 0.9331,-1.91265 1.06557,-2.64876 0.47666,-2.64876 -0.20631,0 -1.13476,0.26603 -2.06321,0.59121 -1.38576,0.48532 -1.78406,0.54616 -2.2239,0.33962 -0.2947,-0.13838 -0.53582,-0.40138 -0.53582,-0.58442 0,-0.18304 0.75534,-0.8549 1.67854,-1.493 3.18889,-2.20412 6.6936,-5.57602 7.97255,-7.67045 0.49395,-0.8089 3.15371,-4.14211 3.58083,-4.4875 0.16758,-0.13551 1.16107,-0.45822 2.20775,-0.71712 2.66301,-0.65869 4.35975,-1.82725 5.45505,-3.75695 0.72668,-1.280253 0.8128,-1.597014 0.82711,-3.041843 0.0222,-2.241082 -0.51483,-3.968774 -1.58788,-5.108326 -0.47179,-0.50104 -0.85781,-1.044441 -0.85781,-1.207567 0,-0.163127 0.27804,-0.577919 0.6179,-0.921755 0.90171,-0.912313 1.94645,-2.817856 2.21037,-4.031562 0.28667,-1.318322 0.11918,-2.76204 -0.5967,-5.143458 -0.70094,-2.331717 -1.80323,-4.101182 -3.43913,-5.520717 -0.70235,-0.609461 -1.64179,-1.448718 -2.08767,-1.865023 -0.44588,-0.416297 -1.03205,-0.908606 -1.3026,-1.094004 -1.01254,-0.693842 -1.89974,-1.712449 -1.89974,-2.181093 0,-0.312496 0.28845,-0.68168 0.8122,-1.039563 1.83363,-1.252929 3.51952,-3.705828 3.51952,-5.120777 0,-0.894299 -0.61502,-2.625414 -1.22608,-3.451074 -0.32899,-0.44453 -1.05327,-0.943217 -1.92356,-1.324416 -1.24636,-0.545928 -1.56423,-0.596375 -2.96752,-0.470954 -0.86441,0.07726 -2.25389,0.353246 -3.08774,0.613308 -4.17405,1.301776 -5.04187,1.14616 -7.5805,-1.359312 -1.93396,-1.908681 -2.71844,-2.444571 -4.40398,-3.008431 -1.83274,-0.613104 -3.66065,-0.402839 -5.77556,0.664351 -1.56889,0.791663 -1.88626,0.872382 -3.35708,0.853842 -1.42003,-0.0179 -1.81515,-0.12184 -3.14051,-0.826122 -1.92983,-1.025504 -3.15394,-1.070598 -5.24356,-0.193175 -1.63059,0.68468 -3.67442,2.497456 -5.2909,4.692786 -1.31439,1.785081 -1.63648,2.043536 -4.16595,3.34289 -2.52139,1.295214 -3.288315,2.046495 -4.226594,4.140423 -0.34115,0.761348 -1.157609,2.539413 -1.814349,3.951255 -0.656731,1.411839 -1.31353,2.968768 -1.45957,3.45985 -0.146031,0.491074 -0.437291,1.297126 -0.647251,1.791225 -1.007699,2.371414 -1.67181,5.6793 -1.952269,9.724117 -0.25146,3.62654 0.16675,9.779956 0.8508,12.518203 1.30408,5.220282 3.51917,9.914532 6.471997,13.715512 0.678536,0.87343 1.715836,2.20904 2.305086,2.96801 1.60075,2.06179 5.41843,5.09288 8.24181,6.54367 3.78363,1.94423 5.86096,2.63578 9.09662,3.02841 1.19269,0.14471 1.3049,0.2055 1.36506,0.73956 0.0526,0.4679 -0.064,0.63721 -0.59563,0.86415 -0.74666,0.31874 -0.80869,0.49364 -0.32253,0.90947 0.87439,0.7479 6.39437,0.48355 9.62081,-0.46071 z m -17.85396,-15.65633 c -0.47052,-0.11057 -1.01424,-0.34911 -1.20826,-0.53008 -0.19405,-0.18097 -0.48645,-0.32904 -0.64979,-0.32904 -0.18368,0 -0.2185,-0.0762 -0.0912,-0.19989 0.11316,-0.10993 1.22698,-0.23549 2.47518,-0.27902 1.99334,-0.0695 2.27819,-0.0333 2.34153,0.2974 0.14966,0.78124 -1.46999,1.36904 -2.86742,1.04063 z m -0.11915,-4.35285 c -1.23016,-0.16948 -6.10427,-1.82015 -6.98406,-2.36524 -0.44625,-0.27648 -1.41957,-0.90018 -2.16293,-1.38599 -1.08246,-0.70747 -1.53317,-0.87517 -2.263894,-0.84239 -0.774493,0.0348 -0.972389,-0.0511 -1.309579,-0.56761 -0.595781,-0.91269 -1.14103,-2.23739 -1.14103,-2.77212 0,-0.441809 1.813958,-2.412313 2.220646,-2.412313 0.09494,0 0.26695,0.255977 0.382377,0.568831 0.23886,0.647505 1.21723,1.137821 2.88487,1.445779 2.57879,0.476223 8.33888,0.928233 10.11897,0.794093 3.47989,-0.26226 11.31896,-2.467539 11.83597,-3.329706 0.0807,-0.1348 0.20132,-0.589137 0.26772,-1.009636 0.19601,-1.241148 0.69488,-1.371138 1.69354,-0.441298 0.46806,0.435815 1.44302,1.206715 2.16656,1.713106 0.72355,0.506392 1.52852,1.228981 1.78883,1.60573 0.47208,0.683282 0.47234,0.689391 0.0926,2.403454 -0.20945,0.94514 -0.46705,1.8177 -0.57243,1.93902 -0.12059,0.13884 -0.395,-0.0472 -0.74048,-0.50224 -0.3019,-0.39755 -0.7405,-0.72282 -0.97468,-0.72282 -0.23418,0 -1.32357,0.62362 -2.42088,1.38582 -2.23644,1.55342 -6.48756,3.60646 -8.47895,4.09481 -1.39244,0.34147 -5.13363,0.57561 -6.40303,0.40072 z m 4.65661,-1.96742 c 2.64568,-0.49865 4.48279,-1.19517 9.02937,-3.42344 2.56088,-1.25508 3.22061,-1.91446 2.82065,-2.81915 -0.2406,-0.544187 -1.35961,-1.242789 -1.99071,-1.242789 -0.19908,0 -1.08564,0.255475 -1.97013,0.567728 -2.45512,0.866711 -7.03039,2.045591 -9.03556,2.328121 -2.73538,0.38542 -10.62033,-0.42766 -12.93224,-1.33355 -0.31302,-0.12266 -0.95264,-0.22301 -1.42138,-0.22301 -0.79723,0 -0.852236,0.042 -0.852236,0.65139 0,0.35827 0.06026,0.81328 0.133929,1.01112 0.132813,0.35668 5.658937,3.24825 6.207807,3.24825 0.15718,0 0.37838,0.0799 0.49154,0.17765 0.34617,0.29887 1.8642,0.78231 3.34627,1.06565 1.97193,0.37701 4.14499,0.3742 6.17269,-0.008 z m -5.46236,-12.864046 c -0.75015,-0.495175 -2.88202,-4.065571 -2.86852,-4.804154 0.01,-0.511355 0.34399,-1.147426 1.12142,-2.131493 0.3232,-0.409103 1.02615,-1.346506 1.56211,-2.08312 3.3874,-4.655518 4.25801,-5.858131 4.56507,-6.305851 0.33379,-0.486689 0.97399,-0.694183 0.97399,-0.315672 0,0.322962 -2.95767,6.380463 -3.73289,7.645212 -1.20732,1.969682 -1.74388,3.287903 -1.61294,3.962649 0.0651,0.335643 0.51487,1.28282 0.99944,2.104835 1.00615,1.706849 1.03622,1.847755 0.46207,2.164435 -0.56445,0.311343 -0.66345,0.295389 -1.46975,-0.236841 z m -8.37795,-11.484187 c -0.8612,-0.887567 -0.99629,-4.12272 -0.22296,-5.339115 0.42929,-0.67522 1.21307,-1.069645 1.724,-0.867579 1.42725,0.564458 1.19451,5.486916 -0.29836,6.310336 -0.58658,0.323544 -0.80658,0.304588 -1.20268,-0.103642 z m 29.3338,0.01949 c -0.47662,-0.591856 -4.73254,-2.626604 -5.73825,-2.743431 -1.87539,-0.217852 -1.79814,-1.03747 0.16113,-1.709609 2.10375,-0.721696 4.29637,-0.328354 5.58759,1.002391 0.93497,0.96359 1.5988,2.71849 1.26876,3.354056 -0.26078,0.502173 -0.91297,0.551425 -1.27923,0.09659 z m 1.31603,-11.753004 c -0.99276,-1.128825 -1.77256,-1.76515 -2.84556,-2.322049 -0.81294,-0.421909 -1.53066,-0.854848 -1.59495,-0.962084 -0.213,-0.355183 0.73408,-1.155444 1.36741,-1.155444 0.49129,0 0.90882,0.334428 2.06096,1.650712 2.47623,2.829024 3.10872,3.87942 2.55019,4.235178 -0.0938,0.05973 -0.78591,-0.591104 -1.53805,-1.446313 z m -30.52808,-2.426165 c 0.11909,-0.368197 2.79395,-2.04615 3.09626,-1.942298 0.1244,0.04271 0.22617,0.265763 0.22617,0.49561 0,0.30872 -0.33954,0.543124 -1.29952,0.897141 -0.71472,0.263587 -1.48337,0.560284 -1.70808,0.659339 -0.29252,0.12894 -0.38196,0.09775 -0.31483,-0.109792 z M 37.894467,123.75638 c 0.5827,-0.47449 1.36222,-2.42324 1.38462,-3.46145 0.0416,-1.92868 -0.42949,-3.29158 -1.590221,-4.60048 -0.58408,-0.65865 -1.523729,-1.50108 -2.0881,-1.87207 -0.846059,-0.55616 -5.407599,-2.44095 -7.380749,-3.04966 -0.278741,-0.086 -2.228009,-0.0429 -4.33172,0.0959 -6.81216,0.44931 -7.93351,0.73148 -9.3051,2.34146 -1.68573,1.97871 -1.41504,5.94944 0.5862,8.59898 l 0.41325,0.54713 2.023781,-0.37367 c 1.114559,-0.20579 3.748449,-0.42469 5.862639,-0.48722 4.700669,-0.13904 6.505201,0.14031 9.846621,1.52431 1.309198,0.54227 2.566628,1.03247 2.794288,1.08933 0.520011,0.12988 1.407301,-0.0455 1.784491,-0.35258 z M 157.63192,81.696929 c 0.30476,-0.70592 0.78991,-2.087068 1.0781,-3.069216 1.02509,-3.493494 1.21865,-4.928614 1.21935,-9.040248 6.1e-4,-4.224217 -0.0597,-4.545384 -1.53016,-8.155952 -1.82511,-4.480889 -3.53391,-6.772723 -6.81725,-9.14329 -1.0112,-0.730078 -1.39501,-1.204061 -2.10511,-2.599775 -1.09279,-2.147914 -2.58481,-4.203857 -3.78839,-5.220287 -0.975,-0.823389 -1.86279,-1.172458 -5.96137,-2.343904 -3.03552,-0.867604 -3.69638,-1.203309 -5.42198,-2.754328 -2.73466,-2.457998 -4.90662,-3.015118 -6.63817,-1.702743 -0.81138,0.614965 -2.01793,2.014076 -2.01793,2.339985 0,0.284341 -1.60645,2.727989 -2.53404,3.85465 l -0.96484,1.17188 h -1.38304 c -0.84127,0 -1.78917,-0.164327 -2.41983,-0.419504 -1.44974,-0.586587 -3.46667,-0.7906 -4.63109,-0.468441 -0.71394,0.197527 -1.28104,0.613186 -2.25353,1.651712 -1.3202,1.409854 -4.70526,4.273464 -6.28099,5.313439 -0.47649,0.314483 -1.37657,0.740708 -2.00015,0.94717 -1.04554,0.346172 -1.22588,0.347811 -2.31657,0.02101 -1.324092,-0.396708 -3.037294,-1.73736 -3.251333,-2.544304 -0.076,-0.286693 -0.33019,-0.733564 -0.564751,-0.993051 l -0.426489,-0.47179 -0.980071,0.991305 c -1.259939,1.274404 -1.83303,3.046052 -1.82764,5.650037 0.006,2.533425 0.468171,4.56942 1.362451,5.992169 1.403279,2.232541 2.716689,3.083865 4.745376,3.075855 1.677897,-0.0066 4.210527,-1.615761 5.650697,-3.590246 2.05815,-2.821702 4.90598,-5.398914 6.78157,-6.13713 0.83724,-0.329537 1.12494,-0.34326 2.16542,-0.103282 0.65997,0.152212 1.82605,0.578715 2.59131,0.947785 2.46951,1.191003 2.57996,1.173413 6.61594,-1.053339 4.24474,-2.341928 4.9554,-2.504371 6.69278,-1.529828 1.14031,0.639636 3.78331,3.46082 4.8378,5.163942 0.76364,1.23339 1.49259,1.843451 2.38003,1.991871 0.98213,0.16426 2.99701,-0.222457 5.12127,-0.982927 2.21303,-0.792245 4.94615,-0.822805 6.7924,-0.07596 2.34001,0.946589 3.4089,2.622814 3.69189,5.789605 0.20338,2.276124 -0.37901,3.200106 -4.08573,6.482074 l -0.85706,0.758863 0.76312,0.691665 c 0.41973,0.380415 1.63384,1.479411 2.69805,2.442211 1.06421,0.9628 2.26131,2.248594 2.66022,2.857332 0.7349,1.121403 2.19861,4.590213 2.19861,5.210391 0,0.728636 0.48361,0.276444 1.01113,-0.945437 z M 95.345286,70.43479 c 0.15809,-0.393354 0.83327,-1.573608 1.50039,-2.622788 1.724161,-2.711594 1.713681,-2.577846 0.261441,-3.336404 -0.68126,-0.355852 -1.474951,-0.908188 -1.76374,-1.227418 -0.643001,-0.710768 -0.900471,-0.724617 -1.453411,-0.07818 -0.951249,1.11212 -1.160319,2.510129 -0.727289,4.863416 0.24493,1.331002 1.164869,3.116553 1.605688,3.116553 0.159221,0 0.418832,-0.32183 0.576921,-0.715186 z"
       style="fill:#000000;stroke-width:0.21987595" />
  </g>
</svg>
