<?xml version="1.0" encoding="UTF-8" standalone="no"?>
<svg
   xmlns:dc="http://purl.org/dc/elements/1.1/"
   xmlns:cc="http://creativecommons.org/ns#"
   xmlns:rdf="http://www.w3.org/1999/02/22-rdf-syntax-ns#"
   xmlns:svg="http://www.w3.org/2000/svg"
   xmlns="http://www.w3.org/2000/svg"
   id="svg50"
   version="1.1"
   viewBox="0 0 210 297"
   height="297mm"
   width="210mm">
  <defs
     id="defs44" />
  <metadata
     id="metadata47">
    <rdf:RDF>
      <cc:Work
         rdf:about="">
        <dc:format>image/svg+xml</dc:format>
        <dc:type
           rdf:resource="http://purl.org/dc/dcmitype/StillImage" />
        <dc:title></dc:title>
      </cc:Work>
    </rdf:RDF>
  </metadata>
  <g
     id="layer1">
    <path
       id="path63"
       d="m 145.34987,289.06898 c -1.61819,-0.75195 -2.73573,-1.98767 -3.22025,-3.56079 -0.37281,-1.21042 -0.35334,-1.42841 0.24555,-2.74914 0.35778,-0.78896 0.98736,-1.82671 1.39908,-2.30612 0.41171,-0.4794 0.95496,-1.26388 1.2072,-1.74328 0.25224,-0.47941 1.34151,-1.90823 2.42061,-3.17515 1.07912,-1.26693 1.96202,-2.40162 1.96202,-2.52154 0,-0.42734 -0.94423,-1.13118 -1.51754,-1.13118 -0.95346,0 -2.43308,-0.74044 -3.44082,-1.72189 -0.96706,-0.94184 -5.0636,-6.81093 -7.11285,-10.19058 -0.62983,-1.03871 -1.85711,-2.85834 -2.7273,-4.04361 -3.21611,-4.38063 -4.23206,-6.5874 -5.27207,-11.45149 -0.37005,-1.73074 -0.81832,-3.28898 -0.99616,-3.46275 -0.23288,-0.22756 -0.82609,-0.1672 -2.1205,0.21575 -2.23836,0.66222 -2.55535,0.9941 -2.11865,2.21815 0.5008,1.40374 0.4035,1.80755 -0.56532,2.34623 -0.8601,0.47822 -0.89034,0.56655 -0.8955,2.61493 -0.004,1.16599 0.15511,4.49656 0.35123,7.40127 l 0.35658,5.28127 -0.79727,1.17718 c -0.96146,1.41965 -0.99586,2.11452 -0.16937,3.42123 l 0.6279,0.99271 -1.16357,1.07542 c -1.80498,1.66824 -3.48678,2.32287 -7.5568,2.94142 -2.2679,0.34467 -4.60115,0.91256 -6.06477,1.4761 -8.843421,3.40505 -14.888597,4.28927 -18.815298,2.75208 -1.721798,-0.67403 -2.25137,-1.42542 -1.71471,-2.43302 0.679688,-1.27616 1.647745,-1.94128 5.736922,-3.94162 2.166914,-1.06 3.939862,-2.03401 3.939862,-2.16446 0,-0.97727 -1.764277,-7.73372 -3.268844,-12.5183 -1.502388,-4.77765 -2.354322,-7.79659 -2.951716,-10.45972 -1.132302,-5.04778 0.758268,-8.85952 7.949017,-16.02661 1.933137,-1.92677 2.759707,-2.94987 2.636567,-3.26345 -0.36054,-0.91808 -7.355922,-4.82542 -8.639039,-4.82542 -0.231844,0 -2.506842,1.35995 -5.055539,3.0221 -10.979787,7.16056 -16.279827,8.26736 -20.936902,4.37225 -0.676522,-0.56583 -2.138284,-1.43067 -3.248373,-1.92186 -3.031133,-1.34122 -4.053627,-2.27212 -5.468476,-4.97861 -1.669157,-3.19299 -7.283746,-17.55218 -8.827253,-22.57552 -0.212257,-0.69081 -0.356888,-0.73365 -2.954836,-0.87511 -2.628552,-0.14313 -2.771926,-0.18689 -3.798984,-1.15959 -0.657094,-0.62232 -1.189199,-1.48372 -1.384384,-2.24112 -0.343654,-1.33356 -1.436271,-2.69733 -2.161056,-2.69733 -0.248916,0 -0.659487,-0.39095 -0.91237,-0.86878 -0.252884,-0.47785 -0.958799,-1.1205 -1.56872,-1.42814 -0.732171,-0.36932 -1.350669,-1.01265 -1.820447,-1.89358 -0.631696,-1.18451 -0.689366,-1.56723 -0.514037,-3.41062 0.218367,-2.29585 0.918341,-4.09739 2.220309,-5.71454 0.472246,-0.58655 0.951134,-1.39333 1.06421,-1.79283 0.113086,-0.3995 0.421487,-1.22229 0.685333,-1.82842 0.414483,-0.95218 0.422251,-1.15734 0.05719,-1.50859 -0.457447,-0.44005 -5.920075,-3.12782 -7.078259,-3.48272 -0.389766,-0.11944 -1.527125,-0.72456 -2.527462,-1.34472 -1.000338,-0.62016 -1.97579,-1.12881 -2.167669,-1.13032 -0.672414,-0.005 -2.27429,-1.59303 -2.81719,-2.79228 -0.630028,-1.39171 -3.002381,-13.74999 -3.657752,-19.0543 -1.283434,-10.38753 -1.413293,-19.29737 -0.306539,-21.03242 0.451263,-0.70745 4.785752,-3.28102 9.635702,-5.72111 8.830839,-4.44297 10.583111,-5.40704 10.679339,-5.8756 0.0557,-0.27144 -0.175366,-0.74542 -0.51358,-1.05331 -0.810359,-0.7377 -1.391035,-2.80229 -2.034065,-7.23209 -0.443244,-3.05352 -0.527187,-5.762152 -0.527187,-17.009724 0,-11.943285 0.05262,-13.456347 0.490687,-14.109733 0.269881,-0.402535 1.674848,-1.5006 3.122164,-2.440147 1.447307,-0.939554 3.331795,-2.353874 4.187762,-3.14295 0.855958,-0.789067 2.412095,-1.973363 3.458079,-2.631773 4.998092,-3.146112 7.937617,-5.214692 7.837449,-5.515307 -0.06063,-0.181809 -0.733279,-0.622337 -1.494891,-0.978931 -3.011034,-1.409806 -6.299176,-5.576384 -7.631571,-9.670378 -1.26232,-3.878704 -1.044363,-11.601606 0.428565,-15.185207 1.634017,-3.97551 4.87547,-7.832545 8.566817,-10.193742 2.268507,-1.451068 6.07429,-2.680498 9.110675,-2.943133 l 2.452041,-0.212091 0.5372,-1.224582 c 1.08714,-2.478175 5.473263,-5.368745 9.979486,-6.576736 2.010706,-0.539013 2.792779,-0.604312 5.253956,-0.438677 1.590383,0.107031 3.531954,0.374053 4.314604,0.593382 0.782632,0.21933 2.025114,0.484361 2.761048,0.588957 2.464791,0.350314 5.761706,1.335764 7.503062,2.242669 2.991613,1.558045 4.490023,3.605683 6.567793,8.97516 l 1.2822,3.313567 9.94137,0.06704 c 5.46776,0.0369 11.54706,0.0705 13.50956,0.07462 l 3.56817,0.0075 0.72639,1.087573 c 0.39951,0.598156 2.27434,2.656523 4.16629,4.574136 1.89194,1.917621 4.11601,4.205682 4.94236,5.084587 1.78276,1.896159 16.60429,15.941865 20.6432,19.562659 4.5574,4.08561 5.33175,4.917701 5.66279,6.085122 0.59499,2.098237 0.22362,11.916872 -0.7992,21.130431 -0.29864,2.690151 -0.50545,7.783658 -0.57217,14.091581 -0.13989,13.228467 -0.33923,18.433507 -0.72325,18.885637 -0.38724,0.45594 0.13754,10.35253 0.65247,12.30436 0.3123,1.18376 0.54164,1.39707 3.63164,3.37758 3.33643,2.13845 3.98663,2.68206 4.60428,3.84948 0.36785,0.69527 1.00164,4.76148 1.50716,9.66948 0.17286,1.67839 0.7922,5.60079 1.37627,8.71644 0.58409,3.11566 1.24868,6.90692 1.47688,8.42502 0.22819,1.51813 0.61734,4.06768 0.86479,5.6657 0.24743,1.59801 0.65579,4.86668 0.90746,7.26369 0.25167,2.39702 0.64861,5.33882 0.88208,6.53732 0.60063,3.08322 1.12739,7.50867 0.9481,7.96521 -0.0834,0.21225 -0.52132,0.4766 -0.97324,0.58742 -0.45193,0.11084 -1.35068,0.45125 -1.99722,0.75649 -0.64656,0.30523 -1.28988,0.48592 -1.42963,0.40153 -0.13976,-0.0844 -1.76069,0.32397 -3.60208,0.90749 -1.8414,0.58351 -5.06876,1.4415 -7.17191,1.90661 -2.10315,0.46513 -3.94949,0.92153 -4.10298,1.01421 -0.42841,0.25872 0.26455,0.91685 2.41235,2.29116 3.34508,2.1404 6.82301,6.13622 8.32907,9.56938 0.69323,1.58026 1.49703,5.68291 1.49703,7.64099 0,2.50936 -1.11061,7.02291 -2.35404,9.56681 -1.69207,3.46178 -4.70905,7.78306 -9.74371,13.95613 -1.19624,1.46672 -2.17499,2.73494 -2.17499,2.81827 0,0.0833 0.40142,0.73269 0.89205,1.44303 1.08621,1.57265 1.11669,2.20722 0.14868,3.09582 -0.55788,0.51212 -0.74338,0.97884 -0.74338,1.8705 0,1.21434 2.70175,9.91448 3.87635,12.48256 0.71918,1.57237 0.71861,1.58678 -0.2841,7.29276 -1.34828,7.67242 -3.95168,12.84287 -8.56193,17.00431 -2.85959,2.5812 -5.70706,3.8622 -8.85703,3.98453 -1.86528,0.0724 -2.63553,-0.027 -3.56818,-0.46034 z m 5.26285,-2.7233 c 0.93206,-0.32159 2.13632,-0.97539 2.67613,-1.45289 0.53982,-0.47751 1.4408,-1.21419 2.0022,-1.63711 1.80332,-1.35845 4.38467,-4.10629 5.05645,-5.38257 0.35894,-0.68195 0.97827,-1.6102 1.37628,-2.0628 0.398,-0.45258 0.72525,-1.03136 0.72721,-1.28617 0.002,-0.25479 0.33649,-1.03228 0.74338,-1.72774 0.69742,-1.19207 1.00587,-2.95074 0.51677,-2.94655 -0.12265,8.3e-4 -0.62442,0.26664 -1.11505,0.59018 -1.86483,1.22975 -6.5492,2.89448 -8.14478,2.89448 -0.46274,0 -1.45486,0.0822 -2.20471,0.18259 -1.28505,0.17211 -1.40617,0.26808 -2.10862,1.67065 -0.40988,0.81845 -1.41866,2.20717 -2.24174,3.08607 -0.82306,0.87891 -1.49854,1.737 -1.50106,1.90685 -0.003,0.16985 -0.41539,0.69283 -0.91747,1.16218 -2.34106,2.18846 -2.54847,3.97179 -0.60664,5.21601 1.26622,0.81133 2.95391,0.74866 5.74165,-0.21318 z M 99.855538,272.27951 c 2.955652,-0.4413 9.509612,-2.37347 10.768432,-3.17463 0.36221,-0.23053 0.84869,-0.41913 1.08106,-0.41913 0.23236,0 0.80576,-0.19532 1.27419,-0.43404 1.0126,-0.51602 1.89242,-0.56661 1.89242,-0.1088 0,0.2172 0.41362,0.2746 1.21863,0.16909 2.38477,-0.31255 3.50164,-2.53172 1.27415,-2.53172 -0.55332,0 -1.00603,0.10674 -1.00603,0.23723 0,0.13049 -0.9032,0.40903 -2.0071,0.61896 -1.10392,0.20995 -2.14091,0.48099 -2.30446,0.60232 -0.29446,0.21846 -7.18044,0.76572 -8.32576,0.6617 -3.64704,-0.33123 -7.085805,0.30933 -9.115036,1.69791 -0.434098,0.29705 -1.036223,0.54769 -1.338068,0.55699 -0.73164,0.0225 -3.763583,1.49848 -3.885517,1.89144 -0.303325,0.9776 4.734341,1.08952 10.473089,0.23268 z m 56.705072,-2.00868 c 1.66584,-0.53369 3.12217,-1.39 3.71918,-2.18688 0.19792,-0.26418 0.75721,-0.64113 1.24288,-0.83771 0.50565,-0.20465 1.08595,-0.77526 1.35787,-1.33516 0.26116,-0.53778 0.60507,-1.05641 0.76423,-1.15253 0.68239,-0.4121 0.24368,-2.34185 -1.18001,-5.19046 -1.31414,-2.62942 -2.77628,-6.31885 -3.64078,-9.18686 -0.16859,-0.55931 -0.69087,-1.52954 -1.16063,-2.1561 -0.95481,-1.27351 -0.8846,-1.49354 0.8014,-2.51171 1.13793,-0.68721 1.0449,-1.29638 -0.30587,-2.00275 -0.42151,-0.22044 -0.76622,-0.60749 -0.76603,-0.86014 2e-4,-0.25266 0.82205,-1.43996 1.82632,-2.63848 1.00428,-1.19851 2.17493,-2.70043 2.60144,-3.3376 0.42652,-0.63717 0.99995,-1.42165 1.27429,-1.74329 0.27435,-0.32163 1.32778,-1.56539 2.34096,-2.76391 1.01318,-1.1985 2.19369,-2.57709 2.62335,-3.06352 1.1346,-1.28452 2.11927,-2.68116 2.11927,-3.00594 0,-0.15513 0.4229,-1.1737 0.93978,-2.26351 2.08933,-4.40524 2.86526,-9.68455 1.90015,-12.92848 -0.69566,-2.33828 -3.20315,-5.92901 -5.63919,-8.07536 -0.64011,-0.56399 -1.30924,-1.1656 -1.48693,-1.33692 -0.64085,-0.61784 -3.92403,-2.68838 -5.44209,-3.43208 -1.67491,-0.82053 -2.75851,-0.9761 -2.76347,-0.39675 -0.0209,2.43602 -0.29853,5.4692 -0.56023,6.12042 -0.1808,0.44986 -0.32871,1.24089 -0.32871,1.75782 0,0.51694 -0.11736,1.0641 -0.2608,1.21592 -0.14343,0.1518 -0.48864,0.96224 -0.76711,1.80094 -1.00072,3.01398 -6.29293,8.77465 -9.27828,10.0996 -3.68204,1.63412 -3.45613,1.44122 -5.44112,4.64616 -0.89075,1.4382 -1.72622,2.65851 -1.85657,2.71177 -0.13038,0.0533 -0.23704,0.28525 -0.23704,0.5155 0,0.45376 -3.39884,6.95744 -4.6399,8.87845 -0.4195,0.64933 -0.93944,1.65597 -1.15542,2.23695 -0.21599,0.58101 -0.68835,1.69753 -1.04969,2.48117 -0.77746,1.68604 -0.69194,2.8226 0.4673,6.21028 1.1617,3.39486 5.94973,12.5671 7.84798,15.03404 0.61752,0.80252 1.21643,1.74749 1.3309,2.09993 0.25586,0.78772 1.70513,2.536 4.11504,4.96408 1.51464,1.52607 1.95623,1.81576 2.58454,1.69555 0.41678,-0.0797 1.13479,0.007 1.59557,0.19331 1.18228,0.47738 4.64364,0.34134 6.50742,-0.25575 z m -41.73101,-5.92798 c 1.8576,-0.61842 3.51359,-1.25743 3.67999,-1.42 0.92103,-0.89997 0.0238,-12.45361 -1.17377,-15.11452 -0.82276,-1.82809 -0.67812,-2.61376 0.52442,-2.84877 1.00663,-0.19673 1.31055,-0.87289 0.88451,-1.96784 -0.50239,-1.29116 -0.38283,-1.47464 1.53992,-2.36306 1.01466,-0.46883 3.12213,-1.68709 4.68324,-2.70723 1.56112,-1.02013 3.44053,-2.17837 4.17646,-2.57383 2.74802,-1.47668 3.55689,-2.17404 4.38263,-3.77846 0.45154,-0.87734 0.98823,-1.65902 1.19267,-1.73707 0.20442,-0.0781 0.37593,-0.35673 0.38114,-0.61928 0.005,-0.26256 0.20591,-0.73117 0.44601,-1.04138 0.47955,-0.61951 0.59588,-1.45507 0.1665,-1.19576 -0.2575,0.15551 -5.61017,0.77793 -11.02917,1.28253 -1.39011,0.12943 -3.19651,0.20471 -4.0142,0.16728 -1.72539,-0.079 -8.03407,-1.19809 -8.73889,-1.55022 -0.26341,-0.1316 -1.08106,-0.32771 -1.817,-0.43582 -0.73593,-0.1081 -1.75798,-0.34313 -2.27121,-0.52228 -0.80732,-0.2818 -1.04331,-0.24108 -1.74986,0.30199 -0.44918,0.34524 -1.04353,0.62772 -1.32076,0.62772 -0.27722,0 -1.76451,1.2094 -3.30506,2.68756 -2.842462,2.72734 -5.127948,5.55962 -6.57111,8.14327 -0.438131,0.78436 -1.017475,1.66459 -1.28743,1.95607 -0.363761,0.39276 -0.414232,0.66982 -0.194943,1.0702 0.162746,0.29714 0.450509,1.37334 0.639473,2.39156 0.290463,1.56521 0.962272,3.71224 2.961523,9.46483 0.16662,0.4794 0.781952,2.30985 1.367414,4.06767 0.585463,1.75781 1.189935,3.42305 1.343293,3.70055 0.153349,0.27748 0.27893,0.86584 0.27906,1.30746 1.4e-4,0.44161 0.25351,1.45668 0.56305,2.25568 0.56092,1.44786 0.56816,1.45339 2.15554,1.64245 0.87599,0.10433 3.19842,0.13196 5.16091,0.0614 3.16861,-0.11392 3.94639,-0.25419 6.94565,-1.2527 z M 74.580665,225.23823 c 2.513361,-0.9825 6.186658,-2.87008 6.955636,-3.57425 0.233539,-0.21386 0.905023,-0.70794 1.49219,-1.09798 3.646092,-2.42194 5.379131,-4.0213 5.379131,-4.96421 0,-0.36708 -0.119242,-0.6674 -0.264982,-0.6674 -0.553517,0 -2.995117,-2.25434 -4.405579,-4.06768 -1.787179,-2.29766 -2.380587,-3.71581 -1.66682,-3.98345 0.332152,-0.12454 0.997302,0.34956 2.158513,1.53853 2.778157,2.84458 4.491759,4.28355 7.258758,6.09539 1.448638,0.94857 3.054323,1.99984 3.568192,2.33616 0.51387,0.33633 1.268821,0.70171 1.67768,0.81198 0.645209,0.17401 0.583916,0.0549 -0.464256,-0.90203 -0.6642,-0.6064 -1.799725,-1.82163 -2.523373,-2.70055 -0.723668,-0.87891 -1.396008,-1.66338 -1.49409,-1.74328 -0.519792,-0.42345 -3.245448,-4.35569 -3.625108,-5.22986 -0.644362,-1.48368 -1.717281,-2.52608 -2.837224,-2.75651 -2.191222,-0.45084 -7.599998,-6.15497 -8.506473,-8.97097 -0.322009,-1.00035 -0.695028,-1.63773 -0.958445,-1.63773 -0.237181,0 -1.061025,0.6787 -1.830749,1.50821 -0.769732,0.82952 -2.001634,2.12897 -2.737567,2.88766 -0.735934,0.7587 -2.401049,2.62956 -3.700251,4.15747 -1.299193,1.52791 -2.469997,2.77803 -2.601794,2.77803 -0.514633,0 -0.189132,-1.05725 0.949765,-3.08493 1.350752,-2.40484 1.446114,-3.05627 0.572395,-3.91002 -0.339341,-0.33158 -1.048293,-1.47561 -1.575443,-2.54228 -0.965114,-1.95289 -2.882087,-4.97526 -3.161775,-4.98495 -0.08289,-0.004 -0.318954,0.52182 -0.524692,1.16599 -0.573634,1.79593 -3.164485,5.17332 -3.997606,5.21118 -0.11697,0.005 -0.850854,0.40512 -1.630841,0.88847 -0.779996,0.48334 -1.928793,1.01315 -2.552898,1.17737 -1.234295,0.32475 -1.209102,0.16712 -0.437553,2.73787 0.191851,0.6392 0.421329,1.22757 0.509957,1.30746 0.290734,0.26211 0.90451,1.43859 0.90451,1.73376 0,0.1589 0.535235,1.40528 1.189395,2.76974 0.654169,1.36445 1.189394,2.55618 1.189394,2.6483 0,0.0921 0.247211,0.51452 0.549345,0.93869 0.302143,0.42417 1.255456,2.07546 2.118483,3.66952 1.599333,2.95409 2.2477,4.02547 2.905464,4.8011 0.203335,0.23977 0.680481,0.88153 1.060327,1.42616 0.491926,0.70531 1.754377,1.55332 4.387884,2.94744 2.033486,1.07649 3.94205,1.97104 4.24124,1.98791 0.299191,0.0168 1.392357,-0.30098 2.42926,-0.70631 z m 56.199125,-1.32266 c 6.12532,-0.63209 8.77178,-1.35127 8.77178,-2.38379 0,-0.54316 3.38751,-4.60491 4.81336,-5.77139 1.1816,-0.96666 1.4371,-1.07734 1.4662,-0.63515 0.0608,0.9247 -0.074,1.39092 -0.55418,1.91562 -0.72986,0.79761 -0.007,0.60007 1.89532,-0.51748 2.57378,-1.51251 6.44467,-5.75673 6.79402,-7.44927 0.10984,-0.53218 0.3801,-1.35984 0.60059,-1.83924 0.63495,-1.38066 1.02847,-5.29789 0.80265,-7.99007 l -0.20715,-2.46965 -1.1165,-0.0903 c -0.6497,-0.0525 -1.76571,-0.50805 -2.66934,-1.08957 -0.85409,-0.5496 -1.74488,-0.99929 -1.97956,-0.99929 -0.23467,0 -1.00265,0.32982 -1.70661,0.73294 -1.19443,0.68397 -1.25964,0.78513 -0.97602,1.51404 0.16716,0.4296 0.2318,1.06186 0.14366,1.40503 -0.0881,0.34317 -0.29818,2.17871 -0.46677,4.07901 -0.16858,1.9003 -0.51678,4.17418 -0.77379,5.05309 -0.53736,1.83756 -2.39884,5.65964 -2.98988,6.13894 -0.21992,0.17834 -0.39986,0.50438 -0.39986,0.72451 0,0.22013 -0.11113,0.40024 -0.24694,0.40024 -0.13581,0 -0.6557,0.55569 -1.15528,1.23484 -1.42967,1.94353 -4.87885,5.24681 -6.12707,5.86788 -0.92978,0.46264 -1.24118,0.5014 -1.71335,0.21326 -0.31738,-0.19367 -0.89535,-0.27407 -1.28438,-0.17866 -0.38904,0.0954 -0.79674,0.0321 -0.906,-0.14062 -0.10927,-0.17275 -0.61122,-0.31409 -1.11545,-0.31409 -0.97956,0 -4.9432,-1.06392 -5.44507,-1.46156 -0.16572,-0.1313 -0.96082,-0.401 -1.76687,-0.59932 -0.80606,-0.19832 -2.00854,-0.66403 -2.67218,-1.03492 -0.66364,-0.37088 -1.40227,-0.67591 -1.64139,-0.67782 -0.23912,-0.002 -0.97506,-0.51032 -1.63542,-1.12977 -0.66036,-0.61944 -1.93659,-1.60114 -2.83606,-2.18154 -0.89948,-0.5804 -2.23755,-1.58089 -2.97349,-2.2233 -1.9734,-1.72262 -3.86292,-3.16763 -4.73309,-3.61965 -0.42231,-0.21939 -1.14716,-0.79977 -1.61077,-1.28975 -0.4636,-0.48997 -0.94911,-0.89085 -1.07891,-0.89085 -0.45438,0 -3.612393,-4.91453 -3.769784,-5.86659 -0.143047,-0.86525 0.03921,-1.17902 1.823784,-3.14041 1.9839,-2.18043 4.08152,-4.90062 4.89543,-6.34838 0.23809,-0.42352 0.77792,-1.35841 1.1996,-2.0775 1.41909,-2.42 1.8402,-3.89221 1.67986,-5.8728 -0.0813,-1.0047 -0.15741,-1.99016 -0.16904,-2.18991 -0.0334,-0.57459 -0.88502,-0.43536 -3.44067,0.5625 -2.64174,1.03149 -3.02922,1.40647 -3.81107,3.68826 -0.50508,1.47404 -1.92339,3.74094 -3.537234,5.65362 -1.22704,1.45425 -7.029447,3.11234 -10.343946,2.95586 -3.880767,-0.18319 -5.922273,-1.11927 -5.937631,-2.72257 -0.0084,-0.9178 -0.05793,-0.96392 -0.827049,-0.77638 -0.936287,0.22831 -2.71772,1.47596 -2.949266,2.06555 -0.235336,0.59926 1.523269,3.87165 2.876369,5.3523 3.738157,4.09054 4.756954,4.81877 7.227519,5.16619 l 1.523418,0.21422 0.639594,2.24965 c 0.698492,2.45682 1.499388,3.81159 3.810803,6.44615 2.351369,2.68011 2.658765,2.97107 3.369179,3.18898 0.365094,0.11198 0.880621,0.65006 1.145621,1.19574 0.718675,1.47985 4.011153,4.19152 5.097083,4.19792 0.36419,0.002 0.8677,0.31038 1.1189,0.68499 0.45782,0.68275 0.77315,0.80465 4.90926,1.8978 6.04399,1.59739 13.04846,1.98913 20.96307,1.17242 z m 5.42173,-5.25641 c 0.88611,-0.66801 2.027,-1.81205 2.5353,-2.5423 0.50829,-0.73027 1.0038,-1.39313 1.10114,-1.47303 0.37655,-0.30913 2.38975,-3.21043 2.38975,-3.44397 0,-0.13563 0.3086,-0.82175 0.68578,-1.5247 1.36993,-2.55316 2.68308,-11.61299 1.80726,-12.46879 -0.25028,-0.24454 -4.95403,1.04302 -6.29254,1.72247 -0.28163,0.14295 -1.85012,0.40602 -3.48554,0.58458 -1.63542,0.17857 -3.63033,0.51804 -4.43315,0.75439 -3.3297,0.98027 -2.36835,0.25331 3.3785,-2.55478 3.34494,-1.63445 6.4894,-3.19601 6.98769,-3.47014 0.49829,-0.27413 1.44121,-0.64702 2.09538,-0.82863 0.65416,-0.18161 1.7163,-0.57838 2.3603,-0.88169 0.644,-0.30331 1.31409,-0.55147 1.4891,-0.55147 0.17502,0 0.94659,-0.32686 1.71462,-0.72637 0.76804,-0.3995 1.71904,-0.72636 2.11336,-0.72636 0.48831,0 1.30021,-0.58382 2.54599,-1.83076 2.8589,-2.86157 2.83528,-2.81067 2.21742,-4.77761 -0.28892,-0.91974 -0.96501,-2.24673 -1.50246,-2.94887 -0.53743,-0.70212 -0.97717,-1.54355 -0.97717,-1.86983 0,-0.32627 -0.25061,-0.86314 -0.5569,-1.19304 -0.30632,-0.32991 -0.9419,-1.2739 -1.41242,-2.09778 -0.95029,-1.66394 -1.43473,-2.34243 -3.36963,-4.71941 -1.64262,-2.01791 -1.64289,-2.01824 -2.57036,-3.08017 -0.41868,-0.4794 -1.51208,-1.78687 -2.42976,-2.90548 -2.28395,-2.78403 -3.39043,-3.9224 -3.81253,-3.9224 -0.1963,0 -0.96398,0.95171 -1.70594,2.11491 -1.37487,2.15546 -3.03943,3.72803 -4.36647,4.12519 -0.40647,0.12166 -1.29438,0.46443 -1.97311,0.76172 -0.67874,0.2973 -1.98335,0.62659 -2.89916,0.73177 -0.91579,0.10516 -1.66509,0.29569 -1.66509,0.42339 0,0.1277 0.60213,1.09157 1.33807,2.14193 0.73594,1.05036 1.33807,2.029 1.33807,2.17474 0,0.14574 0.61516,1.15775 1.36701,2.24892 1.76374,2.55968 3.45059,5.82306 3.32896,6.44015 -0.18164,0.92167 -1.23657,0.5332 -1.94113,-0.71482 -0.57972,-1.02689 -0.85438,-1.22575 -1.92381,-1.39284 -0.68615,-0.10722 -1.38799,-0.30653 -1.55965,-0.44292 -0.17165,-0.13639 -1.84233,-0.47685 -3.71263,-0.75658 -2.63204,-0.39364 -4.38128,-0.46925 -7.74034,-0.33451 -6.10688,0.24494 -5.74712,0.004 -5.7805,3.87178 -0.0262,3.03703 -0.0778,3.28869 -1.09661,5.35179 -0.58803,1.1907 -1.42178,2.89197 -1.85279,3.7806 -0.92938,1.91614 -4.91686,7.23513 -5.81512,7.75693 -0.34619,0.20111 -0.62946,0.56326 -0.62946,0.80478 0,1.16912 3.42135,4.95501 6.06301,6.709 0.59035,0.39198 1.07337,0.82094 1.07337,0.95324 0,0.13232 0.56867,0.61578 1.26373,1.07438 1.60249,1.05735 2.58686,1.9239 2.6081,2.29597 0.0183,0.32122 1.30245,1.23307 3.09126,2.19515 0.64065,0.34456 1.57729,1.00428 2.08145,1.46606 0.50414,0.46178 1.13735,0.8402 1.40711,0.84093 0.26976,8.3e-4 1.18751,0.45969 2.03944,1.01989 0.85194,0.56019 2.1031,1.10111 2.78036,1.20203 0.67726,0.10091 1.499,0.32073 1.82609,0.48847 1.00227,0.51403 5.25213,1.31298 7.10889,1.33643 1.62253,0.0205 1.87962,-0.0705 3.36776,-1.19234 z M 53.56049,196.86953 c 0.767479,-0.18779 1.765945,-0.56052 2.218819,-0.82828 1.307547,-0.7731 4.106724,-3.96747 4.251784,-4.85206 0.119335,-0.72769 0.09267,-0.75664 -0.274165,-0.29764 -0.50599,0.63312 -1.259284,0.65769 -1.498373,0.0489 -0.09927,-0.25277 -0.180498,-1.02875 -0.180498,-1.72438 0,-0.69564 -0.122483,-1.57958 -0.27219,-1.96432 -0.149707,-0.38475 -0.346476,-1.27581 -0.437265,-1.98012 -0.169387,-1.31395 -0.505506,-2.73173 -1.289535,-5.43935 -0.503978,-1.7405 -0.50883,-1.741 -2.803694,-0.28799 -1.387644,0.87861 -1.801224,1.39602 -1.115854,1.39602 0.179184,0 0.719951,0.27425 1.201725,0.60946 0.73355,0.51039 0.814923,0.68128 0.500598,1.05136 -0.304732,0.35877 -0.768578,0.40203 -2.465453,0.22996 -3.387285,-0.34348 -4.751189,-0.22697 -5.874494,0.50182 -1.205255,0.78195 -3.549156,3.50484 -3.607924,4.19129 -0.06622,0.77418 1.686983,1.08811 3.180197,0.56944 0.681244,-0.23663 2.008005,-0.50586 2.948372,-0.59829 1.561445,-0.15349 1.709764,-0.11838 1.709764,0.40474 0,0.37351 0.607788,0.97612 1.746815,1.73192 2.420178,1.60593 2.75002,2.64396 0.837433,2.63543 -0.886237,-0.004 -3.20093,-0.65646 -3.906789,-1.10134 -1.810212,-1.14088 -5.593931,-1.19133 -5.955094,-0.0794 -0.23298,0.71726 0.876224,2.75982 1.836997,3.38277 0.866371,0.56175 1.656333,0.61263 4.780769,0.30794 2.017347,-0.19674 2.075426,-0.16001 2.290645,1.44867 0.06175,0.4618 0.121562,0.87233 0.132831,0.91229 0.04182,0.14822 0.686851,0.0634 2.044579,-0.2688 z m 17.011374,-1.47449 c 0.391432,-0.51936 0.851469,-1.13599 1.022308,-1.3703 0.170821,-0.23431 1.566596,-1.64376 3.101693,-3.13212 1.535106,-1.48835 2.739365,-2.73968 2.676135,-2.78072 -2.14254,-1.3905 -2.980997,-2.10468 -4.63136,-3.94486 -2.442559,-2.72348 -2.967167,-3.57868 -4.01655,-6.54762 -0.671129,-1.89877 -1.72557,-7.97748 -1.72557,-9.94764 0,-0.18847 -0.330605,-0.72658 -0.734666,-1.19581 -1.378592,-1.60088 -2.238825,-3.66338 -2.238825,-5.36783 0,-1.33997 -0.144267,-1.76522 -0.922066,-2.718 -1.695859,-2.07741 -2.348771,-3.68355 -2.348771,-5.77795 0,-1.06367 0.203745,-2.38543 0.460549,-2.98778 0.849885,-1.99345 3.91071,-4.45775 3.236312,-2.60559 -0.130912,0.35955 -0.224915,1.35244 -0.208886,2.20644 0.03465,1.84603 0.863353,2.95077 2.213482,2.95077 1.521443,0 2.465722,-1.57609 3.220422,-5.37513 0.19255,-0.96926 0.636725,-2.07292 1.000403,-2.48569 0.749867,-0.85111 2.782544,-1.72724 4.007293,-1.72724 0.493332,0 1.073505,-0.26714 1.419859,-0.65374 0.627095,-0.69999 1.455932,-2.77938 1.205414,-3.02415 -0.08317,-0.0813 -1.611878,0.58222 -3.397074,1.47448 -1.785195,0.89228 -3.349416,1.6223 -3.476034,1.6223 -0.219979,0 -1.217103,0.44177 -6.559576,2.90622 -1.308329,0.60352 -2.85897,1.24567 -3.445868,1.42699 -0.586897,0.18132 -1.516097,0.65337 -2.064873,1.04899 -0.548786,0.39562 -1.094927,0.7193 -1.213657,0.7193 -0.371073,0 -7.079405,3.2153 -7.240829,3.47054 -0.08429,0.13322 -0.496769,0.32647 -0.916664,0.42945 -0.419904,0.10298 -1.423864,0.64081 -2.231028,1.19517 -0.807174,0.55437 -2.007865,1.18982 -2.668238,1.41214 -0.660363,0.22231 -2.385457,1.07235 -3.833547,1.88898 -1.448098,0.81663 -3.149918,1.66602 -3.781828,1.88754 -2.80593,0.98365 -6.352534,3.14969 -6.352534,3.87972 0,0.53367 1.730618,1.94644 3.470978,2.83352 0.940544,0.47941 2.761988,1.49269 4.047638,2.25175 1.285651,0.75905 2.665109,1.38009 3.065473,1.38009 0.400345,0 1.226816,0.31416 1.836597,0.69813 1.661865,1.04645 2.263142,1.14389 2.88897,0.46818 0.298091,-0.32187 0.673709,-0.5852 0.834714,-0.5852 0.160985,0 0.945098,-0.39224 1.742464,-0.87165 0.797366,-0.47941 1.748817,-0.86711 2.114329,-0.86156 0.964266,0.0145 4.549019,2.7061 5.439009,4.08369 0.559757,0.86642 0.858519,1.10019 1.127421,0.88211 0.20123,-0.16317 0.93572,-0.4218 1.632192,-0.5747 1.166865,-0.25619 1.325028,-0.21745 2.013882,0.49324 1.283909,1.32462 1.347921,1.61882 0.574947,2.64256 -0.388638,0.51472 -1.152698,1.16869 -1.697899,1.45326 -1.375163,0.71776 -1.454776,1.98192 -0.300708,4.77482 0.482063,1.16661 0.975582,2.56196 1.096687,3.10078 0.402869,1.79224 1.287588,3.47251 1.828429,3.47251 0.545219,0 2.182616,1.37431 2.182616,1.83193 0,0.14876 0.406074,0.74534 0.902387,1.32574 0.980173,1.14623 0.945704,1.10272 2.216713,2.79857 0.840842,1.1219 2.204634,2.43767 2.548949,2.4592 0.09193,0.006 0.487353,-0.41448 0.878786,-0.93383 z m 90.968386,-1.85628 c 5.39733,-1.45716 7.90173,-2.20001 9.67895,-2.87094 0.98124,-0.37045 2.29243,-0.76524 2.91373,-0.87733 0.62131,-0.11209 1.29366,-0.36404 1.49412,-0.55992 0.20045,-0.19587 0.86293,-0.58725 1.47215,-0.86974 0.60923,-0.28249 1.10582,-0.59677 1.10354,-0.69841 -0.003,-0.10164 -0.94839,-1.03467 -2.10246,-2.07337 -3.02967,-2.72681 -5.32495,-4.93556 -6.51649,-6.27081 -0.57241,-0.64143 -1.4152,-1.39589 -1.87289,-1.6766 -0.79011,-0.48459 -3.37504,-2.80515 -8.68299,-7.79495 -7.37877,-6.93647 -9.11626,-8.47399 -12.04262,-10.65659 -6.69776,-4.99549 -6.95906,-5.27328 -6.22341,-6.61643 0.51663,-0.94324 0.87268,-0.85155 1.91185,0.4924 0.49062,0.63452 1.37064,1.40404 1.95558,1.71005 1.10451,0.57782 2.38246,1.59451 4.70876,3.74615 0.75024,0.6939 1.88658,1.67451 2.52519,2.17911 0.63862,0.5046 1.72266,1.44045 2.40898,2.07966 1.94567,1.81211 3.20044,2.86501 4.05032,3.39865 0.42978,0.26986 1.50024,1.13864 2.3788,1.93062 0.87855,0.79197 2.53403,2.25308 3.67882,3.24691 3.77575,3.27779 7.32628,6.51453 8.4291,7.68411 2.58421,2.74065 6.15929,5.90741 6.40488,5.67334 0.15354,-0.14633 0.14332,-0.71565 -0.0244,-1.3615 -0.15858,-0.61049 -0.31682,-2.08956 -0.35164,-3.28682 -0.0348,-1.19725 -0.13651,-2.41584 -0.22597,-2.70799 -0.17745,-0.57939 -0.87645,-4.54301 -1.28978,-7.31363 -0.14304,-0.9588 -0.52392,-3.24687 -0.84641,-5.08458 -0.32248,-1.83772 -0.74134,-4.5834 -0.93078,-6.10151 -0.18944,-1.51811 -0.66504,-4.7214 -1.05689,-7.11842 -1.36189,-8.33068 -1.69623,-11.1378 -1.49601,-12.56026 0.19181,-1.36275 0.16266,-1.43533 -0.99778,-2.48445 -0.65746,-0.59439 -1.27194,-1.0807 -1.36552,-1.0807 -0.0936,0 -1.00261,-0.62651 -2.02006,-1.39224 -1.01745,-0.76574 -2.58584,-1.82883 -3.48532,-2.36246 -0.89948,-0.53361 -1.70232,-1.05744 -1.78409,-1.16405 -0.0818,-0.10661 -0.617,-0.51086 -1.18939,-0.89834 -0.5724,-0.38748 -1.17454,-0.81087 -1.33807,-0.94088 -0.16355,-0.13 -1.12452,-0.75245 -2.13551,-1.38321 -1.01099,-0.63076 -2.01453,-1.39271 -2.23011,-1.69322 -0.21559,-0.3005 -0.99409,-0.9237 -1.73003,-1.38486 -1.81172,-1.13529 -4.80483,-3.32092 -5.35227,-3.90835 -0.66016,-0.70837 -3.27255,-2.69597 -3.37027,-2.56423 -0.17617,0.23751 -0.79262,4.38146 -0.79262,5.32825 0,1.44375 1.9696,3.24412 6.39299,5.84376 1.30834,0.7689 3.00103,1.93762 3.76155,2.59714 0.7605,0.65952 2.21724,1.77924 3.2372,2.48827 1.01995,0.70904 2.33792,1.68857 2.92881,2.17674 1.42003,1.17321 4.98137,3.61344 5.29052,3.62507 0.3733,0.014 1.75054,1.26809 2.25377,2.05216 0.26629,0.4149 0.45277,1.40723 0.45894,2.44216 0.009,1.55557 0.28442,3.80354 1.22696,10.0239 0.67308,4.44199 0.91928,6.68438 0.98844,9.00233 l 0.0735,2.46502 -1.30673,0.17504 c -1.23343,0.16522 -1.40314,0.0966 -3.0256,-1.22271 -0.94537,-0.76876 -1.89613,-1.63526 -2.11277,-1.92557 -0.21664,-0.2903 -0.86224,-0.84073 -1.43463,-1.22317 -0.57239,-0.38245 -1.52471,-1.0962 -2.11628,-1.58612 -0.59155,-0.48992 -1.84105,-1.47914 -2.77667,-2.19824 -0.93561,-0.71911 -1.85658,-1.44289 -2.0466,-1.6084 -0.19002,-0.16551 -1.21523,-1.00133 -2.27826,-1.85739 -1.06302,-0.85607 -1.99966,-1.64134 -2.08143,-1.74507 -0.26791,-0.33984 -7.5593,-6.26983 -8.52035,-6.92946 -0.51586,-0.35409 -1.07984,-0.6438 -1.25326,-0.6438 -0.55201,0 -1.01155,1.22367 -1.13468,3.02142 -0.13281,1.93921 -0.44894,2.499 -1.41125,2.499 -1.2919,0 -1.63624,0.57407 -1.35313,2.25586 0.14161,0.84121 0.53285,1.90736 0.86942,2.36923 0.33658,0.46186 0.61195,0.90838 0.61195,0.99227 0,0.30335 2.32665,3.56671 2.83858,3.98142 1.03134,0.83545 4.26422,5.04545 6.4621,8.41518 0.26056,0.3995 1.09586,1.57623 1.85621,2.61494 0.76035,1.03871 1.99956,2.80379 2.75377,3.9224 0.75422,1.11861 1.54546,2.20641 1.75829,2.41733 0.21284,0.21093 0.4753,0.73391 0.58325,1.1622 0.10794,0.42828 0.50957,1.18327 0.89249,1.67775 0.38292,0.49449 0.69622,1.00889 0.69622,1.1431 0,0.13421 0.25262,0.7756 0.56139,1.42531 0.59673,1.2557 1.22271,2.99628 1.22271,3.39986 0,0.13382 -1.3703,1.54717 -3.04511,3.1408 -2.17036,2.06514 -2.95335,2.98715 -2.72569,3.2096 0.24485,0.23926 2.44647,0.97263 4.26894,1.422 0.0735,0.0181 1.41154,-0.31208 2.97349,-0.73379 z m -69.8618,-1.8671 c 1.063018,-0.16779 2.467995,-0.61177 3.122164,-0.98663 1.345845,-0.7712 4.482007,-3.86408 4.198789,-4.14083 -0.102067,-0.0997 -0.775907,0.23292 -1.497414,0.73923 -1.308609,0.91827 -1.958009,1.14157 -1.958009,0.67325 0,-0.13601 0.952382,-1.21467 2.116406,-2.39701 1.911627,-1.94174 3.908574,-4.79162 5.429034,-7.74789 0.30676,-0.59645 0.83047,-2.19578 1.16378,-3.5541 0.33333,-1.35831 0.68447,-2.55553 0.78034,-2.66048 0.0958,-0.10494 0.6701,-0.25323 1.27611,-0.32951 1.8263,-0.22987 2.61502,-1.44559 2.61502,-4.03078 0,-1.26833 -0.12536,-1.57696 -0.94418,-2.32435 -0.5193,-0.47399 -1.31752,-1.05047 -1.77385,-1.28105 -0.46507,-0.23499 -0.76457,-0.58503 -0.68152,-0.7965 0.0815,-0.20751 -0.35799,-0.77211 -0.97662,-1.25468 -1.27216,-0.99238 -4.974,-3.14542 -6.175632,-3.59183 -0.437684,-0.16259 -0.736707,-0.45825 -0.664499,-0.65703 0.229087,-0.63064 1.490057,-0.24086 3.556011,1.09922 1.10195,0.71478 2.08624,1.29959 2.18732,1.29959 0.42729,0 2.49949,1.82684 2.49949,2.20353 0,0.22627 0.2007,0.4114 0.44602,0.4114 0.54795,0 0.5964,-1.16275 0.0743,-1.7839 -0.47885,-0.56971 -3.64393,-2.57431 -4.06461,-2.57431 -0.1767,0 -0.32129,-0.12061 -0.32129,-0.26801 0,-0.14742 -0.48652,-0.42492 -1.08116,-0.61667 -0.59464,-0.19178 -1.54996,-0.65953 -2.122943,-1.03945 -0.572973,-0.37995 -1.290708,-0.6908 -1.594965,-0.6908 -0.312816,0 -0.5532,-0.20553 -0.5532,-0.47296 0,-0.39148 0.211391,-0.43993 1.227049,-0.28123 1.38038,0.21569 3.779779,1.45713 7.161009,3.70511 0.44311,0.29461 0.97834,0.53033 1.18939,0.52384 0.69408,-0.0214 -1.65349,-1.73 -4.0004,-2.91165 -1.26648,-0.63767 -2.790481,-1.48283 -3.386673,-1.87816 -0.596183,-0.39534 -1.262926,-0.71879 -1.481656,-0.71879 -0.218711,0 -0.616766,-0.32674 -0.88456,-0.7261 -0.452977,-0.67551 -0.450406,-0.80121 0.03688,-1.80463 0.48902,-1.00697 0.491274,-1.13386 0.034,-1.91238 -0.269369,-0.45862 -0.489766,-1.00988 -0.489766,-1.22503 0,-0.5661 -1.451051,-1.59556 -2.248976,-1.59556 -0.375115,0 -0.87614,0.18966 -1.113377,0.42149 -0.237236,0.2318 -0.776531,0.50613 -1.198428,0.60959 -0.421907,0.10347 -0.922784,0.37142 -1.113051,0.59544 -0.453079,0.53344 -2.469252,0.52159 -4.314418,-0.0254 -0.802824,-0.23797 -1.933645,-0.43409 -2.512943,-0.43583 -0.983219,-0.004 -1.128483,0.12248 -2.183743,1.88516 -0.621749,1.03857 -1.233187,1.95035 -1.358744,2.02616 -0.347239,0.2097 -1.78866,0.20435 -3.331431,-0.0123 -1.217122,-0.17098 -1.514338,-0.0986 -2.445466,0.59535 -0.934341,0.69638 -2.562006,3.35903 -2.562006,4.19116 0,0.71072 -1.01537,2.28307 -1.810417,2.80353 -0.765923,0.5014 -0.869276,0.74703 -0.910433,2.16362 -0.08913,3.06846 0.164655,7.03837 0.631509,9.87864 0.946701,5.75955 2.399065,9.20314 5.403887,12.81276 0.849327,1.02029 4.030353,3.35014 5.931335,4.34425 1.325941,0.69339 5.900153,1.76373 7.763071,1.81651 1.113572,0.0316 2.057385,0.18811 2.09735,0.34792 0.151682,0.60637 -2.161223,0.84332 -4.915658,0.5036 -1.494322,-0.1843 -2.77988,-0.2736 -2.856801,-0.19844 -0.263295,0.25727 1.005395,0.97996 2.195516,1.25065 1.64986,0.37525 4.106445,0.3842 6.392992,0.0233 z m -7.954074,-7.58975 c -0.367972,-0.17871 -0.669034,-0.4125 -0.669034,-0.51949 0,-0.10701 0.903196,-0.33425 2.007101,-0.50501 1.103905,-0.17075 2.20781,-0.35741 2.453121,-0.41479 0.245321,-0.0574 0.446029,0.09 0.446029,0.32758 0,0.88574 -3.053197,1.68679 -4.237217,1.11171 z m -7.422863,-2.47518 c -1.259117,-1.58175 -1.240899,-1.50557 -0.854301,-3.57193 0.242611,-1.29673 0.488369,-1.88856 0.784234,-1.88856 0.244706,0 0.470244,0.33197 0.521954,0.76825 0.114874,0.96928 0.722726,1.09564 3.74734,0.77899 1.950242,-0.20418 2.7986,-0.48935 5.495728,-1.84739 1.7542,-0.88327 3.694895,-2.01304 4.312648,-2.51059 l 1.123194,-0.90466 -0.84331,-0.66222 c -0.73653,-0.57836 -0.777948,-0.68718 -0.327104,-0.8594 0.612054,-0.23379 4.478459,0.85679 4.906671,1.384 0.413496,0.50909 0.650025,2.98856 0.330326,3.46274 -0.21196,0.31437 -0.322792,0.29138 -0.569826,-0.11817 -0.168669,-0.27966 -0.403298,-0.50847 -0.521394,-0.50847 -0.118097,0 -0.880835,0.60147 -1.694984,1.33658 -1.944691,1.75593 -3.53282,2.81555 -5.674615,3.78618 -1.596082,0.72334 -2.076758,0.79601 -5.381953,0.81388 -3.611836,0.0195 -3.629765,0.023 -3.716857,0.72356 -0.134982,1.08573 -0.676037,1.02535 -1.637751,-0.18279 z M 86.5453,179.20864 c 2.286464,-0.90921 2.9366,-1.36271 5.504837,-3.83989 1.827927,-1.76313 2.073704,-2.27326 1.095216,-2.27326 -0.497794,0 -2.286175,1.05859 -2.953644,1.74835 -0.08177,0.0845 -0.55009,0.40888 -1.040721,0.72086 -3.218644,2.04665 -5.997555,2.99188 -9.503896,3.23272 -2.706489,0.1859 -3.607655,0.52414 -2.167035,0.81337 0.367971,0.0739 1.204259,0.2659 1.858428,0.42672 1.845613,0.4537 4.8505,0.1081 7.206815,-0.82887 z m -7.725751,-6.97181 -1.536652,-1.43975 0.452278,-0.95727 c 0.248748,-0.52649 0.836903,-2.10613 1.306998,-3.51029 0.635961,-1.8996 0.973514,-2.52997 1.318891,-2.46291 0.529339,0.10277 0.56107,0.79817 0.209062,4.58011 l -0.229878,2.46966 0.947417,0.94489 c 0.783675,0.78159 0.883527,1.0201 0.577761,1.3801 -0.639072,0.75242 -1.459424,0.48189 -3.045877,-1.00454 z m -6.021965,-2.99111 c -0.926686,-0.7809 -1.354311,-2.46727 -1.085753,-4.28177 0.266788,-1.80264 0.908403,-1.83792 2.247989,-0.12363 0.880434,1.12669 1.067116,1.60825 1.067116,2.75278 0,0.76296 -0.08131,1.594 -0.180498,1.84677 -0.256404,0.65291 -1.143422,0.56887 -2.048854,-0.19415 z m 14.952693,-4.10057 c -1.123119,-0.83378 -1.477921,-3.4501 -0.711067,-5.24345 0.527533,-1.23368 0.891276,-1.44641 1.733952,-1.01408 1.660589,0.85196 2.60973,4.53001 1.550363,6.00788 -0.521469,0.72747 -1.766848,0.84829 -2.573248,0.24965 z m 13.757563,-1.92357 c -0.72666,-0.45629 -1.964373,-1.12398 -2.750479,-1.48376 -1.685009,-0.77116 -1.869949,-1.2818 -0.378598,-1.04532 1.163941,0.18456 5.232857,2.46093 5.421037,3.03282 0.20178,0.61322 -0.89818,0.37147 -2.29196,-0.50374 z m -30.822592,-1.48412 c 0.247341,-1.5114 1.190624,-3.33115 1.856053,-3.58067 0.315601,-0.11834 0.725577,0.0151 1.064816,0.34659 0.537283,0.52501 0.535868,0.55861 -0.05458,1.29198 -0.333381,0.41413 -0.606139,0.88193 -0.606139,1.03958 0,0.42378 -1.666549,2.09137 -2.090067,2.09137 -0.260344,0 -0.309054,-0.34025 -0.170169,-1.18885 z m 18.168384,-6.05887 c -0.327075,-0.12854 -1.012557,-0.17032 -1.523269,-0.0928 -1.073179,0.16282 -1.437928,-0.22425 -1.175191,-1.24714 0.240375,-0.9358 0.984113,-0.91247 2.842709,0.0892 2.003274,1.0796 1.891278,2.05079 -0.144249,1.2508 z m -50.825365,30.65758 c 0.56759,-0.55462 0.546048,-0.66769 -0.318581,-1.67176 -0.470561,-0.54642 -0.743375,-1.22196 -0.743375,-1.84071 0,-0.53762 -0.117091,-1.04819 -0.260204,-1.13462 -0.390557,-0.23585 -0.629339,1.84641 -0.366499,3.19598 0.369815,1.89894 0.827681,2.2924 1.688659,1.45111 z m 3.49021,-4.4878 c -0.364236,-0.71492 -0.222865,-5.06548 0.189057,-5.81753 0.199032,-0.36341 0.287372,-0.73354 0.196303,-0.82253 -0.317203,-0.30994 -1.019803,0.5377 -1.811133,2.18501 -0.438159,0.91212 -0.947325,1.96223 -1.131483,2.33359 -0.264767,0.53393 -0.220965,0.98979 0.209407,2.1791 0.299321,0.82716 0.695187,1.60189 0.879708,1.72162 0.507377,0.32923 1.765534,-1.19555 1.468141,-1.77926 z m 4.730197,-1.98374 c 0.4863,-0.0901 0.88428,-0.39736 0.999732,-0.77185 0.105495,-0.34218 0.712035,-1.43612 1.347856,-2.43097 0.635812,-0.99483 1.156042,-1.92749 1.156042,-2.07257 0,-0.46651 1.18593,-0.58399 1.619404,-0.16043 0.53395,0.52175 1.651424,0.53375 1.651424,0.0177 0,-0.71485 -1.804334,-2.84016 -2.736282,-3.22306 -0.846263,-0.34768 -1.032283,-0.30686 -2.413464,0.52973 -1.953753,1.1834 -3.066925,3.0077 -3.850041,6.30956 -0.404993,1.70758 -0.151141,2.43571 0.751971,2.15694 0.365988,-0.11296 1.028996,-0.27276 1.473358,-0.35509 z m 61.846776,-2.37181 c 5.51543,-1.21284 11.24322,-1.64245 14.95328,-1.12154 2.4938,0.35015 4.47959,0.72032 4.98059,0.92843 0.66366,0.27569 0.71457,-0.48899 0.0675,-1.01375 -0.24907,-0.20198 -0.98906,-1.3743 -1.64439,-2.60513 -0.65534,-1.23084 -1.4272,-2.48712 -1.71524,-2.79172 -0.28804,-0.30461 -0.95946,-1.17487 -1.49205,-1.93393 -0.57781,-0.82352 -1.19434,-1.38011 -1.52872,-1.38011 -0.3082,0 -0.63952,-0.24365 -0.73624,-0.54144 -0.12718,-0.39152 -0.56501,-0.58744 -1.58111,-0.70748 -3.17721,-0.37537 -6.90538,-2.02554 -8.83411,-3.91016 -0.78241,-0.76451 -0.81233,-0.74194 -1.17888,0.88829 -0.12849,0.57148 -8.4e-4,1.0631 0.42711,1.651 0.33554,0.46045 0.76294,1.58094 0.94977,2.48997 0.29789,1.44938 0.27288,1.77403 -0.20322,2.63789 -0.29863,0.5418 -1.25608,1.44763 -2.1277,2.01295 -1.06935,0.69356 -1.64185,1.28309 -1.76024,1.81263 -0.18416,0.82364 -0.80639,2.75253 -1.16699,3.61762 -0.25933,0.62218 -0.39935,0.62399 2.59065,-0.0335 z m 22.5514,-11.25669 c 0.88573,-0.25702 1.99074,-0.78 2.45557,-1.16219 0.46484,-0.38219 0.94406,-0.69489 1.06494,-0.69489 0.12087,0 0.53634,-0.55567 0.92326,-1.23483 0.3869,-0.67916 0.97545,-1.59902 1.30786,-2.04415 0.82128,-1.09973 0.778,-3.31648 -0.11182,-5.728 -0.38326,-1.03871 -0.79404,-1.99816 -0.91283,-2.1321 -0.24065,-0.27134 -2.66127,1.18563 -2.66127,1.60182 0,0.14529 -0.43488,0.83587 -0.96638,1.53464 -0.85359,1.12219 -1.09482,1.26624 -2.06661,1.2341 -1.71162,-0.0567 -3.05136,1.73373 -3.6339,4.85613 -0.17645,0.94571 -0.48058,1.77133 -0.67585,1.83472 -0.60183,0.19537 -1.06313,-2.21391 -0.90553,-4.72946 l 0.14644,-2.33747 -1.19811,-0.36538 c -1.13554,-0.34629 -1.3126,-0.31083 -3.3901,0.67903 -2.17016,1.03402 -2.2008,1.03934 -3.07712,0.53352 -1.00549,-0.58038 -1.38365,-1.39534 -0.90756,-1.95588 0.17782,-0.20935 1.12887,-0.4629 2.11346,-0.56346 4.28854,-0.43799 4.82579,-2.46441 0.77951,-2.94019 -2.19147,-0.25768 -5.39021,0.50439 -6.01251,1.43241 -0.27262,0.40656 -0.42551,1.5725 -0.44988,3.43083 -0.0298,2.26943 0.0708,2.9952 0.51889,3.74492 0.56639,0.9476 3.08907,2.54081 4.05057,2.55813 0.29194,0.005 0.86035,0.22055 1.2631,0.47841 0.57118,0.36569 1.30479,0.44559 3.33471,0.36318 l 2.60243,-0.10564 0.094,0.79829 c 0.0701,0.59514 0.29712,0.84192 0.89206,0.9697 0.43891,0.0943 0.93184,0.21501 1.09536,0.26832 0.77938,0.25403 2.87516,0.0969 4.3273,-0.32451 z m -63.9771,-4.31855 c 0.05104,-1.53966 -0.03083,-1.93835 -0.428799,-2.08754 -1.010461,-0.37889 -1.197096,1.34185 -0.374816,3.45577 0.466714,1.19985 0.733586,0.74549 0.803615,-1.36823 z m 101.72695,0.64555 c 8.4e-4,-0.19976 -0.25824,-2.38976 -0.57667,-4.86668 -0.31845,-2.47692 -0.72737,-5.87633 -0.90873,-7.55425 -0.18135,-1.67791 -0.47199,-3.87456 -0.64587,-4.88144 -0.30272,-1.75296 -0.38581,-1.88251 -1.95685,-3.05075 -0.90237,-0.67104 -1.85755,-1.35081 -2.12261,-1.51062 -0.26506,-0.15979 -1.42781,-0.97697 -2.58389,-1.81591 -1.15608,-0.83897 -2.20264,-1.52538 -2.32569,-1.52538 -0.12305,0 -0.39994,-0.16344 -0.61533,-0.36319 -0.76118,-0.70594 -1.50734,-1.23911 -2.24206,-1.60203 -0.40886,-0.20196 -1.41241,-0.77956 -2.23011,-1.28356 -0.81771,-0.50401 -1.97372,-1.18861 -2.56892,-1.52136 -0.5952,-0.33275 -1.90131,-1.22605 -2.90247,-1.9851 -1.00116,-0.75906 -1.93589,-1.3801 -2.07715,-1.3801 -0.39685,0 -0.61154,1.44102 -1.08219,7.26369 -0.58202,7.20059 -0.66588,6.54346 0.974,7.63287 0.77682,0.51606 2.08144,1.5527 2.89916,2.30364 0.8177,0.75095 2.35648,2.05681 3.4195,2.90192 1.06302,0.8451 2.10761,1.76697 2.32131,2.04858 0.2137,0.28162 0.52593,0.51203 0.69385,0.51203 0.16791,0 1.41631,0.94791 2.77424,2.10647 1.35792,1.15856 3.76894,3.08708 5.35784,4.28558 1.58888,1.19851 3.06637,2.34255 3.2833,2.5423 0.21693,0.19975 0.52643,0.36318 0.68779,0.36318 0.16136,0 0.67226,0.39224 1.13534,0.87165 0.90421,0.9361 1.28852,1.08732 1.29221,0.50846 z M 27.454144,160.57947 c 1.169985,-0.64002 3.931946,-2.31298 4.834956,-2.92863 0.453061,-0.30888 1.59042,-0.96629 2.527462,-1.46091 0.937052,-0.49463 1.904438,-1.06423 2.149749,-1.26578 0.245311,-0.20157 1.315762,-0.78183 2.378789,-1.28949 2.48027,-1.1845 3.672561,-1.83579 3.891608,-2.12583 0.0961,-0.12726 1.835591,-0.98858 3.86553,-1.91405 2.029929,-0.92547 4.399153,-2.09613 5.264946,-2.60146 0.865793,-0.50534 1.708973,-0.91879 1.873731,-0.91879 0.164767,0 1.798011,-0.70358 3.62943,-1.56349 6.94581,-3.2613 9.099834,-4.24747 9.277547,-4.24747 0.100876,0 1.279345,-0.50622 2.61882,-1.12492 1.339474,-0.61871 2.970631,-1.34876 3.624801,-1.62232 0.654169,-0.27358 1.992237,-0.8635 2.973491,-1.31094 0.981244,-0.44745 2.118604,-0.91012 2.527462,-1.02817 0.408849,-0.11805 0.877174,-0.31134 1.040712,-0.42955 0.163547,-0.11821 0.698772,-0.30745 1.189394,-0.42053 0.490632,-0.11308 1.6949,-0.53794 2.676145,-0.94414 2.266718,-0.93833 2.622573,-1.08331 4.608905,-1.87763 0.899471,-0.3597 1.708218,-0.75578 1.797191,-0.88019 0.08894,-0.12441 0.996752,-0.48682 2.017263,-0.80539 1.020529,-0.31856 2.285783,-0.76741 2.811714,-0.99745 0.52592,-0.23004 2.276302,-0.92048 3.889726,-1.5343 1.894904,-0.7209 3.097274,-1.35631 3.396064,-1.79467 0.41162,-0.6039 0.42164,-1.32379 0.0911,-6.53733 -0.5166,-8.14709 -0.78321,-11.38948 -1.47321,-17.91644 -0.32943,-3.11613 -0.68113,-7.430766 -0.78157,-9.58808 -0.261138,-5.609024 -0.23303,-5.520413 -1.751204,-5.520413 -0.690232,0 -1.382084,0.116277 -1.537444,0.25838 -0.15537,0.142113 -1.07535,0.479294 -2.044393,0.749304 -0.969054,0.270001 -2.597603,0.939637 -3.618999,1.488072 -1.021405,0.548428 -2.516062,1.119257 -3.321466,1.268502 -1.483965,0.274992 -5.864678,2.152883 -6.178071,2.648377 -0.09392,0.148479 -0.46393,0.271541 -0.822243,0.273469 -0.358323,0.0017 -1.253621,0.344726 -1.989555,0.761772 -2.254135,1.277404 -3.992157,2.223565 -4.460232,2.42809 -0.245311,0.107191 -0.914345,0.432135 -1.48675,0.722099 -1.965134,0.995486 -6.691381,3.274068 -8.177079,3.942268 -0.817707,0.36777 -1.794099,0.8985 -2.169736,1.17942 -0.375655,0.28092 -1.078134,0.59556 -1.561082,0.6992 -0.482948,0.10365 -0.878087,0.30881 -0.878087,0.45591 0,0.14711 -0.156375,0.26747 -0.347519,0.26747 -0.415731,0 -7.924503,3.96398 -8.59635,4.53813 -0.258191,0.22065 -0.755222,0.40118 -1.10451,0.40118 -0.649671,0 -1.479383,0.40991 -6.157115,3.0418 -1.471877,0.82814 -3.679696,2.00685 -4.906252,2.61935 -1.226565,0.6125 -2.564632,1.36628 -2.973491,1.67504 -0.408848,0.30877 -1.144791,0.74301 -1.635414,0.96498 -0.490622,0.22198 -1.092756,0.52627 -1.338067,0.67621 -0.245311,0.14995 -1.717188,0.83229 -3.270838,1.51632 -1.553649,0.68404 -3.025526,1.39861 -3.270837,1.58793 -0.245311,0.18933 -0.981254,0.61145 -1.635414,0.93806 -0.654169,0.3266 -1.83628,1.159 -2.626903,1.84977 l -1.437519,1.25596 0.02692,7.11842 c 0.02449,6.47125 0.337627,11.52468 0.755063,12.18465 0.08857,0.14005 0.301975,1.607 0.474221,3.25989 0.172237,1.65289 0.573486,4.17585 0.891657,5.60657 0.318172,1.43074 0.578497,3.09004 0.578497,3.68735 0,0.59731 0.118646,1.15765 0.26364,1.24523 0.145003,0.0876 0.350285,0.65094 0.45619,1.25196 0.481197,2.73083 0.432691,2.64541 1.456835,2.566 0.523313,-0.0406 1.284644,-0.25602 1.691854,-0.47877 z m 3.621262,-9.2864 c -0.357912,-0.32582 -0.655473,-0.68537 -0.661229,-0.799 -0.0366,-0.72221 -0.89528,-5.65622 -1.167805,-6.71018 -0.181141,-0.70055 -0.383516,-1.61578 -0.449708,-2.03384 -0.06613,-0.41805 -0.263258,-1.60996 -0.437926,-2.64867 -0.633176,-3.76526 -0.874781,-6.00906 -0.941326,-8.7424 -0.06538,-2.6856 -0.03651,-2.82504 0.800663,-3.86335 0.572777,-0.71041 1.678489,-1.46144 3.247283,-2.20568 2.117412,-1.00447 3.856104,-1.89378 5.203597,-2.66156 0.245321,-0.13977 0.646747,-0.3281 0.892058,-0.41852 0.519755,-0.19156 0.322316,-0.0796 4.864051,-2.7597 1.939289,-1.14442 5.752784,-3.17448 8.474426,-4.51125 2.72166,-1.33675 5.617494,-2.81747 6.435201,-3.29047 3.229885,-1.86831 4.761555,-2.64976 6.285802,-3.20701 0.874762,-0.3198 2.123838,-0.91045 2.775698,-1.31254 0.651869,-0.4021 1.409391,-0.73108 1.683416,-0.73108 0.273997,0 0.917074,-0.31219 1.429034,-0.69375 0.51196,-0.38155 1.565571,-0.90431 2.341367,-1.16168 0.775805,-0.25736 2.05732,-0.78819 2.847831,-1.17961 0.790502,-0.39141 2.693264,-1.12601 4.228361,-1.63243 1.535087,-0.50642 2.991782,-1.085695 3.237094,-1.287271 0.24532,-0.201576 1.516479,-0.730822 2.824808,-1.176101 1.308348,-0.44528 2.943557,-1.043288 3.633817,-1.328905 0.690259,-0.285607 1.308962,-0.427522 1.374884,-0.315356 0.293574,0.499505 0.531686,6.173673 0.635151,15.136003 0.08895,7.70339 0.03213,9.78026 -0.275701,10.08106 -0.213245,0.20837 -1.775938,1.05238 -3.472636,1.87557 -1.696697,0.82321 -3.352517,1.63942 -3.679593,1.81383 -0.327094,0.1744 -1.129936,0.55553 -1.784096,0.84694 -0.654169,0.29141 -1.677763,0.78599 -2.274635,1.09905 -0.596881,0.31306 -1.667341,0.64899 -2.378789,0.7465 -2.229911,0.30563 -6.038172,1.88518 -7.733668,3.20769 -0.434759,0.33913 -2.241162,1.17211 -4.014203,1.85107 -1.773041,0.67896 -3.290619,1.32594 -3.372383,1.43774 -0.08177,0.11179 -0.617008,0.38453 -1.189395,0.60609 -0.572405,0.22156 -1.10763,0.49166 -1.189394,0.60022 -0.08177,0.10856 -1.152234,0.68806 -2.378799,1.28779 -1.226565,0.59971 -2.572298,1.32646 -2.990544,1.61496 -0.418237,0.28851 -1.689396,0.99611 -2.824818,1.57242 -2.889081,1.46647 -4.501388,2.37529 -6.249013,3.52248 -0.829675,0.54461 -1.60466,0.99021 -1.722189,0.99021 -0.117519,0 -0.509147,0.27259 -0.870282,0.60576 -0.361126,0.33315 -1.058017,0.80746 -1.548648,1.054 -1.127534,0.56661 -6.29167,4.03632 -7.092575,4.76541 -0.781868,0.71176 -1.70236,0.69551 -2.515187,-0.0444 z m 8.121021,-6.14303 c 3.178837,-1.51094 5.428791,-2.76431 6.164427,-3.43398 0.332374,-0.30257 1.289162,-0.88716 2.126194,-1.2991 1.978584,-0.97371 3.946,-2.03849 4.418004,-2.39105 0.206092,-0.15393 0.843031,-0.45536 1.415427,-0.66984 0.572405,-0.21448 1.441989,-0.66134 1.932425,-0.99298 0.490436,-0.33165 1.922385,-1.07205 3.182097,-1.6453 1.259712,-0.57327 2.46413,-1.17362 2.676471,-1.33412 0.212359,-0.16049 0.988229,-0.52063 1.724163,-0.80031 0.735933,-0.27965 2.341618,-1.04047 3.568184,-1.69067 2.504047,-1.3274 4.785239,-2.43984 6.987694,-3.40759 0.817707,-0.35929 3.522779,-1.6189 6.011283,-2.79911 2.488503,-1.1802 4.696313,-2.14781 4.906251,-2.15021 0.560512,-0.006 2.278724,-0.65083 3.762894,-1.41124 l 1.299751,-0.66594 -0.244827,-2.08261 c -0.134656,-1.14544 -0.251225,-5.34036 -0.25903,-9.32204 -0.0097,-4.94046 -0.116783,-7.27284 -0.337246,-7.3447 -0.311186,-0.10143 -5.713489,1.69907 -7.854027,2.61762 -0.572405,0.24562 -2.512607,0.99409 -4.311558,1.66327 -1.798961,0.66918 -4.006771,1.60292 -4.906261,2.07498 -0.899481,0.47205 -2.438247,1.18953 -3.419501,1.59438 -4.153591,1.71372 -12.015693,5.61671 -17.840918,8.85677 -0.817716,0.45483 -2.434959,1.28181 -3.59388,1.83776 -1.158939,0.55595 -2.450513,1.27472 -2.870184,1.59728 -0.419653,0.32256 -2.180531,1.42637 -3.913039,2.4529 -1.732508,1.02654 -3.959215,2.4326 -4.948246,3.12458 l -1.798207,1.25814 0.139034,3.05076 c 0.27871,6.11564 1.170311,12.26394 2.052962,14.15685 0.371668,0.79705 0.562132,0.75612 3.929663,-0.8445 z m 30.163718,12.60271 c 0.404052,-0.29477 0.959422,-1.11445 1.234165,-1.8215 0.440645,-1.13403 0.670542,-1.87596 1.298615,-4.19103 0.244491,-0.90118 1.714328,-2.41095 2.539309,-2.60829 0.408849,-0.0978 1.479308,0.008 2.378789,0.23575 2.004661,0.50695 2.878129,0.1762 4.101621,-1.55308 1.291182,-1.82497 2.640929,-2.04855 5.949468,-0.98549 1.404968,0.45143 2.479358,0.30802 3.644099,-0.48639 0.418274,-0.2853 1.341653,-0.74593 2.051937,-1.02364 1.135357,-0.44388 1.51063,-0.46091 3.105018,-0.14095 2.154461,0.43235 2.617692,0.78828 3.300855,2.53621 0.492625,1.26042 0.489132,2.43117 -0.01211,4.07023 -0.165121,0.5399 0.107284,0.79223 1.991609,1.84485 1.20059,0.67067 2.82737,1.59862 3.61505,2.06212 0.7877,0.46349 1.47749,0.84272 1.53289,0.84272 0.33213,0 -0.29224,-4.00993 -0.94241,-6.05247 -0.67117,-2.1085 -0.98544,-2.63299 -2.4373,-4.06767 -0.91674,-0.90588 -2.33582,-2.00089 -3.153532,-2.43334 -4.026413,-2.12946 -5.307621,-3.15228 -5.040935,-4.02432 0.144798,-0.47351 -0.889534,-1.5401 -2.359669,-2.43326 -1.181291,-0.71769 -3.107327,-0.48553 -5.512408,0.66442 -2.311005,1.10495 -4.779233,1.2938 -4.779233,0.36565 0,-0.42643 0.295484,-0.5914 1.331139,-0.74314 0.732133,-0.10729 1.394564,-0.29533 1.472072,-0.41789 0.24478,-0.38699 -2.512524,-1.52306 -3.204655,-1.32039 -0.770003,0.22549 -2.869393,2.13849 -2.869393,2.61465 0,0.18635 -0.320109,1.29825 -0.711346,2.4709 -0.79825,2.39257 -2.271347,4.04548 -3.605391,4.04548 -2.134745,0 -3.287462,1.12629 -3.865763,3.77713 -0.301407,1.38158 -2.03616,3.97003 -2.824529,4.21454 -0.963306,0.29874 -2.580699,-0.0919 -3.368434,-0.81358 -0.66353,-0.6079 -1.115575,-1.7742 -1.121108,-2.8925 -0.0019,-0.27965 -0.106529,-0.50846 -0.23365,-0.50846 -0.444632,0 -0.991424,1.61294 -1.141187,3.36627 -0.131695,1.54174 -0.04713,1.95115 0.660214,3.19603 1.071148,1.88515 1.328856,2.17049 2.384377,2.64014 1.151255,0.51225 3.616968,0.2815 4.591851,-0.4297 z m 60.484615,-2.6743 c 0.64874,-0.75337 0.71096,-0.9932 0.44845,-1.72902 -0.16764,-0.46987 -0.82922,-1.43647 -1.47019,-2.14799 -1.15826,-1.28577 -1.50457,-2.43519 -0.7937,-2.63434 1.71574,-0.4807 3.32756,-1.20159 3.80411,-1.70143 0.8717,-0.91424 0.4868,-2.62649 -0.87441,-3.88979 -0.98596,-0.91507 -1.18536,-0.98257 -2.50391,-0.8477 -1.88339,0.19264 -3.13659,1.23121 -4.41136,3.6558 -1.18145,2.24714 -1.2665,4.06882 -0.30165,6.46166 0.33896,0.84063 0.65613,1.84428 0.70483,2.23034 0.10457,0.82899 1.49046,1.42083 3.40728,1.45507 1.02532,0.0184 1.36635,-0.12775 1.99055,-0.8526 z m -19.26911,-4.15874 c 0.008,-0.82713 0.29748,-2.21774 0.64204,-3.09024 0.9727,-2.46299 4.84011,-7.01512 6.59243,-7.75962 l 1.0057,-0.42728 -1.0057,-0.98774 c -0.55315,-0.54326 -1.25836,-0.99189 -1.56716,-0.99696 -0.3088,-0.005 -1.17854,-0.54195 -1.93277,-1.19306 -0.75422,-0.65111 -2.17416,-1.88095 -3.1554,-2.73298 -2.97013,-2.57899 -4.40367,-3.76266 -5.61741,-4.63827 l -1.15718,-0.83481 -1.51896,0.47172 c -0.83543,0.25945 -1.85347,0.55865 -2.26233,0.6649 -0.40885,0.10626 -1.828724,0.69925 -3.155252,1.31776 -1.326537,0.6185 -2.638098,1.12456 -2.914582,1.12456 -0.276475,0 -0.997525,0.24571 -1.602314,0.54602 -1.907464,0.94716 -3.152303,1.43257 -4.07313,1.58823 -0.490622,0.0829 -1.68282,0.50567 -2.64934,0.93941 -1.612,0.72339 -1.711786,0.8211 -1.206895,1.18185 0.747613,0.53416 1.294918,0.4956 2.66685,-0.18784 2.700751,-1.34544 5.021041,-0.49683 8.304648,3.03727 1.631325,1.75579 2.766225,2.68331 4.110775,3.35961 2.39407,1.20424 3.62467,2.08567 5.27775,3.78023 1.4651,1.50188 3.36104,4.9871 3.71001,6.81994 l 0.22127,1.16219 0.6357,-0.82051 c 0.45204,-0.58347 0.64019,-1.25498 0.65125,-2.32438 z m 4.519,-0.7171 c 0.20444,-0.25411 0.37168,-1.06629 0.37168,-1.80484 0,-1.57943 0.99884,-3.78526 2.35763,-5.20657 0.51188,-0.53545 0.87251,-1.03041 0.80138,-1.09992 -0.16412,-0.16036 -2.48943,1.24237 -3.41145,2.05795 -1.60497,1.4197 -2.60585,4.72444 -1.94245,6.41368 0.21796,0.55502 1.2511,0.35085 1.82321,-0.3603 z m 4.87066,-1.51314 c 0.26805,-1.82775 0.83418,-3.77713 1.09693,-3.77713 0.12138,0 0.40693,-0.42492 0.63458,-0.94428 0.22763,-0.51935 0.46883,-1.04234 0.53599,-1.16219 0.0671,-0.11985 -0.0618,-0.2179 -0.28679,-0.2179 -0.55652,0 -2.72216,2.24812 -3.301,3.42673 -0.56313,1.14665 -0.94324,3.37527 -0.65373,3.83298 0.11403,0.1803 0.5617,0.28765 0.9948,0.23854 0.68708,-0.0779 0.81191,-0.25597 0.97922,-1.39675 z m 16.06086,-7.42727 c 0.072,-0.7867 -0.26215,-1.21288 -2.87984,-3.67338 -1.62867,-1.5309 -3.85431,-3.44722 -4.94585,-4.25852 -1.09153,-0.81129 -2.30998,-1.77321 -2.70763,-2.13758 -1.06077,-0.97197 -1.90677,-1.58565 -4.22821,-3.06718 -4.22058,-2.69352 -5.65474,-3.67298 -5.86559,-4.00596 -0.11878,-0.18757 -0.60267,-0.49755 -1.07531,-0.68884 -0.47264,-0.1913 -1.00504,-0.63336 -1.18313,-0.98238 -0.30307,-0.59397 -0.66708,-3.69665 -1.11416,-9.4963 -0.10471,-1.35831 -0.36249,-3.77712 -0.57281,-5.37514 -0.33905,-2.57581 -0.34763,-5.5696 -0.0169,-5.89277 0.15742,-0.15382 4.52477,2.44553 5.32898,3.17169 0.34836,0.31453 1.77073,1.27542 3.16083,2.1353 1.39011,0.85988 3.73172,2.42283 5.2036,3.47322 5.47529,3.90741 12.04436,8.05062 12.86422,8.11367 0.42648,0.0328 0.54514,-0.28937 0.68102,-1.84884 0.31634,-3.63085 -0.67601,-5.37435 -4.55852,-8.00904 -1.38673,-0.94105 -4.07385,-3.10261 -5.48455,-4.41189 -0.38741,-0.35955 -0.81372,-0.65373 -0.94733,-0.65373 -0.30907,0 -3.89982,-2.73732 -5.39546,-4.11308 -0.83024,-0.763708 -4.97918,-3.441167 -5.33235,-3.441167 -0.17606,0 -0.39519,-0.191142 -0.48694,-0.424756 -0.0917,-0.233623 -0.42439,-0.504653 -0.73922,-0.60229 -0.31484,-0.09764 -0.93806,-0.548214 -1.38494,-1.001277 -0.76125,-0.771778 -2.29103,-1.805134 -6.57771,-4.443199 -0.97986,-0.603017 -1.86621,-1.357022 -1.96969,-1.675583 -0.21148,-0.651105 -2.11586,-1.544547 -2.76966,-1.299402 -0.5193,0.194715 -0.37243,4.010983 0.38031,9.882331 0.5496,4.286773 0.99701,10.685173 1.20884,17.287603 0.40727,12.69379 0.28936,12.1314 2.93382,13.99313 1.16383,0.81937 2.98579,2.17201 4.04881,3.00587 1.06302,0.83388 2.78486,2.0898 3.8263,2.79093 1.04145,0.70114 2.37951,1.62813 2.97349,2.05997 0.59397,0.43186 1.94969,1.27401 3.01271,1.87147 1.06303,0.59747 1.99967,1.17735 2.08144,1.28864 0.49027,0.66726 2.60254,1.12699 4.88368,1.06289 2.27691,-0.064 2.53903,-0.009 3.69522,0.77335 0.68446,0.4632 1.32225,1.14503 1.41732,1.51516 0.0951,0.37012 0.59441,0.93438 1.10963,1.25391 l 0.93677,0.58095 0.2037,-0.93392 c 0.11203,-0.51365 0.24033,-1.3344 0.2851,-1.82386 z m 0.95576,-4.41256 c 0.10137,-0.59926 0.18597,-1.74329 0.18799,-2.54229 0.002,-0.79901 0.20402,-2.56409 0.44889,-3.92241 0.24486,-1.35831 0.44539,-3.45106 0.44562,-4.65056 l 2.9e-4,-2.1809 -2.58814,-1.30052 c -1.42347,-0.7153 -3.23097,-1.79704 -4.01666,-2.40388 -0.78569,-0.60684 -1.94658,-1.45902 -2.57977,-1.89372 -3.61504,-2.48187 -4.80487,-3.26001 -4.98472,-3.26001 -0.11042,0 -1.08203,-0.75685 -2.15915,-1.68189 -2.74217,-2.35502 -4.46353,-3.66021 -5.67525,-4.3032 -0.57239,-0.30372 -1.48964,-0.91985 -2.03832,-1.36916 -0.54868,-0.44931 -1.07641,-0.73992 -1.17272,-0.64581 -0.0963,0.0941 -0.14507,0.7232 -0.10836,1.398 0.19447,3.57463 0.67702,9.09155 0.99679,11.39611 l 0.36286,2.61493 2.68963,1.30625 c 1.4793,0.71844 3.17417,1.73172 3.76639,2.25174 0.59222,0.52004 1.18716,0.9455 1.32208,0.9455 0.47898,0 5.04211,3.28449 6.41081,4.61441 0.26614,0.2586 0.85993,0.73167 1.31955,1.05128 1.68915,1.17458 3.58802,2.72739 5.10893,4.17786 0.85805,0.81829 1.67684,1.48782 1.81952,1.48782 0.14269,0 0.34237,-0.49029 0.44374,-1.08955 z m 26.26455,-13.61831 c -0.13877,-2.04385 -0.42452,-4.04878 -0.63502,-4.45539 -0.21048,-0.40661 -0.56337,-1.45838 -0.78419,-2.33729 -0.22081,-0.87892 -0.75827,-2.19917 -1.19434,-2.9339 -0.43606,-0.73473 -0.89354,-1.64996 -1.01661,-2.03384 -0.12307,-0.38388 -0.54493,-1.07329 -0.93746,-1.53205 -0.39252,-0.45874 -0.89695,-1.26265 -1.12095,-1.78648 -0.22399,-0.52384 -0.89596,-1.45596 -1.49327,-2.0714 -1.46368,-1.50813 -2.04591,-2.7599 -1.79755,-3.86476 0.10954,-0.48734 0.0771,-0.88607 -0.0721,-0.88607 -0.14916,0 -0.69097,-0.51039 -1.20402,-1.1342 l -0.93279,-1.134207 0.61729,-0.766812 0.6173,-0.766814 -0.7562,-1.077096 c -0.4159,-0.592407 -0.84483,-1.43192 -0.95317,-1.865587 -0.24354,-0.97478 -3.11865,-4.078214 -5.24403,-5.660456 -0.96614,-0.719251 -2.89989,-1.667981 -4.95635,-2.431648 -3.2905,-1.221935 -3.41236,-1.243982 -5.03598,-0.911215 -2.17668,0.44612 -2.3825,0.674842 -1.75826,1.95395 0.27637,0.566333 0.50495,1.254064 0.50793,1.52829 0.004,0.274234 0.37094,1.026198 0.81771,1.671044 0.44675,0.644838 1.28061,2.176628 1.85301,3.403973 0.5724,1.227338 1.12483,2.236018 1.22765,2.241495 0.10282,0.0058 0.34671,-0.366914 0.54198,-0.827546 0.19526,-0.460631 0.7476,-1.205026 1.22742,-1.65421 0.68684,-0.642984 0.94961,-0.74124 1.23545,-0.461957 0.24403,0.238466 0.26776,0.481617 0.0724,0.741818 -1.36117,1.81262 -1.38553,1.891917 -1.41289,4.598317 -0.0249,2.458721 0.0581,2.878611 0.9349,4.731971 1.57273,3.32447 1.64617,3.45642 2.3431,4.20997 0.36797,0.39787 0.66903,0.85133 0.66903,1.00767 0,0.68376 1.62864,1.55405 3.78371,2.02185 1.27156,0.27604 2.61676,0.62208 2.98932,0.76899 0.65923,0.25994 1.17782,1.02587 0.887,1.31004 -0.0795,0.0777 -1.33372,-0.0753 -2.78721,-0.33976 -1.45348,-0.26452 -3.07226,-0.54352 -3.59726,-0.61999 l -0.95456,-0.13904 0.28553,0.9728 c 0.15703,0.53504 0.28552,0.99146 0.28552,1.01426 0,0.0228 0.46406,0.25662 1.03126,0.51962 0.617,0.28609 1.22603,0.87921 1.51611,1.47657 0.61855,1.27369 1.2221,1.74629 7.75966,6.07607 1.82564,1.20911 3.36441,2.29784 3.41951,2.41939 0.0551,0.12156 0.38158,0.41713 0.72552,0.65684 0.34394,0.2397 1.19696,0.85837 1.89557,1.37481 0.69863,0.51645 1.35627,0.88703 1.46142,0.82354 0.10516,-0.0635 0.0776,-1.78771 -0.0611,-3.83156 z m 2.19449,-14.0969 c 0.15624,-1.97524 0.42418,-7.44836 0.59543,-12.162498 0.17127,-4.714141 0.42965,-10.205496 0.57417,-12.203015 0.14454,-1.99752 0.39854,-5.462299 0.56445,-7.699519 0.16591,-2.23722 0.3194,-6.272656 0.34109,-8.967633 l 0.0395,-4.899961 -1.25696,-1.288688 c -0.69133,-0.708782 -1.74029,-1.536541 -2.33105,-1.83947 -0.59076,-0.302929 -2.8805,-2.410769 -5.08831,-4.684087 -2.20781,-2.273326 -4.6097,-4.666569 -5.33753,-5.318317 -1.07961,-0.966767 -7.29851,-6.793855 -9.19867,-8.619134 -0.26394,-0.253555 -1.59481,-1.626389 -2.9575,-3.050756 -4.10665,-4.292573 -7.31458,-7.376009 -7.67799,-7.380011 -0.22662,-0.0025 -0.40702,1.056332 -0.53151,3.1196 -0.10364,1.717865 -0.32755,4.757725 -0.49758,6.755244 -0.35835,4.209875 -0.58292,36.240987 -0.26378,37.623656 0.28765,1.246181 3.01298,3.924695 3.99329,3.924695 0.40134,0 0.81243,0.130745 0.9135,0.290549 0.10107,0.159795 0.50757,0.290542 0.90333,0.290542 0.94033,0 5.0135,1.305324 6.53038,2.092793 0.65417,0.339595 1.65772,0.969757 2.23012,1.400351 0.57239,0.430595 1.39276,0.964824 1.82305,1.18717 1.10057,0.568729 6.50271,5.614459 6.50271,6.073683 0,0.208609 0.55713,1.100346 1.23807,1.981623 1.26413,1.636017 3.22215,6.011173 3.22215,7.199793 0,0.36256 0.13381,0.74 0.29736,0.83876 0.16353,0.0988 0.29734,0.51178 0.29734,0.91781 0,0.40604 0.74262,1.99996 1.65027,3.54207 2.37498,4.03509 2.84587,4.73764 3.04965,4.54993 0.0501,-0.0461 0.21885,-1.69994 0.37508,-3.67518 z m -5.91206,-12.257336 c -0.49161,-0.851166 -1.20688,-1.750422 -1.58947,-1.998351 -0.38259,-0.247928 -2.51929,-2.199136 -4.7482,-4.336025 -2.22892,-2.13688 -4.74763,-4.4736 -5.59713,-5.192702 -0.8495,-0.71911 -1.98782,-1.699705 -2.52959,-2.179115 -0.54178,-0.479401 -1.88292,-1.525373 -2.98033,-2.324382 -1.09741,-0.799007 -2.41725,-1.98439 -2.93299,-2.634194 l -0.9377,-1.181447 0.0573,-7.099163 c 0.0539,-6.686219 0.32273,-26.03162 0.36792,-26.483019 0.0115,-0.114225 0.27965,-0.343046 0.59603,-0.508499 0.79091,-0.413604 1.99513,0.07453 2.26328,0.917458 0.16377,0.514808 4.5464,5.548315 5.51674,6.336065 0.0984,0.07989 0.52534,0.685762 0.94871,1.346355 0.42336,0.660602 1.5342,1.837321 2.46853,2.614932 1.579,1.31417 5.06551,4.667837 6.34687,6.105037 0.30574,0.34293 0.73935,0.73517 0.96357,0.87164 0.22422,0.136471 0.63228,0.59361 0.90679,1.015862 0.46095,0.709062 2.81891,2.598459 4.76455,3.817791 0.93861,0.588224 1.01599,1.353645 0.53593,5.300725 -0.15497,1.274217 -0.34977,5.716175 -0.43287,9.871007 -0.3183,15.914406 -0.49746,17.257558 -2.3048,17.278469 -0.6474,0.0075 -0.95002,-0.269119 -1.68315,-1.538444 z m 0.0774,-4.481292 c 0.34233,-1.523059 0.79464,-9.548304 0.92111,-16.34332 l 0.12706,-6.827877 -2.51619,-2.179107 c -2.71481,-2.351116 -2.63242,-2.283564 -4.6113,-3.781307 -1.87307,-1.417663 -5.30318,-4.979413 -6.54166,-6.792734 -0.5724,-0.838062 -1.6488,-2.233843 -2.392,-3.101737 -0.7432,-0.867893 -1.7201,-2.068291 -2.17091,-2.667542 -0.45079,-0.599261 -0.99781,-1.089558 -1.21558,-1.089558 -0.43349,0 -0.77553,2.599991 -0.91736,6.973153 -0.0441,1.358306 -0.17754,5.280703 -0.29665,8.716434 -0.1191,3.435732 -0.22406,6.508272 -0.23322,6.827878 -0.009,0.319599 0.007,1.430948 0.0368,2.469656 l 0.0535,1.888557 2.37613,2.397024 c 1.30687,1.318361 2.51659,2.397023 2.68827,2.397023 0.37561,0 0.65217,0.216021 3.20755,2.505458 1.09217,0.978495 2.57816,2.28596 3.3022,2.905472 0.72404,0.619521 1.51279,1.336276 1.75278,1.592803 2.70989,2.896511 5.12279,4.908732 5.88619,4.908732 0.2001,0 0.44464,-0.359559 0.54342,-0.799008 z M 45.200566,108.72478 c 0.237237,-0.23181 0.664163,-0.42148 0.948731,-0.42148 0.810247,0 1.772296,-1.05967 1.989592,-2.19151 0.108932,-0.56739 0.128761,-1.09933 0.04405,-1.1821 -0.08466,-0.0828 -1.261818,0.64244 -2.615821,1.61156 -1.353994,0.96912 -2.571925,1.76205 -2.706497,1.76205 -0.388667,0 -0.283609,0.80724 0.127,0.9758 0.544986,0.22373 1.71715,-0.0699 2.212941,-0.55432 z m -1.774391,-2.48523 c 1.107984,-0.49587 2.552031,-1.38571 3.209004,-1.97743 0.656963,-0.59172 1.63696,-1.33005 2.177783,-1.64073 0.552483,-0.31739 1.452709,-1.32867 2.054675,-2.30816 0.937471,-1.525383 1.683333,-2.525341 3.142421,-4.212947 0.207238,-0.239701 0.972155,-1.145563 1.699809,-2.013028 0.727653,-0.867458 2.179962,-2.436416 3.227342,-3.486572 3.151065,-3.159389 3.989951,-4.095913 3.818748,-4.263195 -0.183897,-0.179693 -2.507866,1.229158 -3.19115,1.934555 -0.66285,0.684322 -5.386321,4.189508 -6.244319,4.633782 -0.95336,0.493658 -3.142365,2.272717 -5.624759,4.571377 -1.07669,0.997002 -2.108499,1.81417 -2.292908,1.815924 -0.734062,0.0066 -1.167191,-1.093412 -1.644514,-4.177985 -0.274732,-1.775287 -0.644697,-4.012276 -0.822158,-4.971087 -0.558286,-3.016436 -0.726387,-9.077608 -0.341232,-12.303487 0.197401,-1.653278 0.426833,-3.178941 0.509873,-3.390359 0.08298,-0.211418 0.86638,-0.715395 1.740788,-1.119939 0.874408,-0.404545 1.700554,-0.90797 1.83588,-1.118721 0.391712,-0.610083 7.388617,-6.005431 11.037159,-8.510823 2.10889,-1.448137 3.063395,-2.235689 4.837731,-3.991563 2.319778,-2.295638 2.324751,-2.289123 3.820414,5.011946 0.180051,0.878913 0.398558,2.186378 0.485584,2.90548 0.08699,0.719111 0.427644,2.614932 0.756936,4.212947 1.065607,5.171297 1.163242,5.700509 1.169864,6.341583 0.0037,0.347362 0.266313,1.19082 0.583814,1.874359 l 0.577267,1.242787 1.784916,-1.35441 1.784907,-1.354402 -0.129273,-1.631668 c -0.07116,-0.897421 -0.269992,-4.115861 -0.441996,-7.152081 -0.171995,-3.036227 -0.381812,-5.823793 -0.466267,-6.194586 -0.08447,-0.370801 -0.276466,-2.920355 -0.426703,-5.665687 -0.310404,-5.672169 -0.562412,-7.75171 -0.93939,-7.75171 -0.329441,0 -3.075298,1.755471 -5.567191,3.559205 -1.048666,0.759063 -2.076749,1.380107 -2.284647,1.380107 -0.207899,0 -0.958138,0.526652 -1.667202,1.170328 -0.709063,0.643685 -1.891333,1.51974 -2.627267,1.946802 -1.698532,0.985635 -4.344324,2.869366 -5.159171,3.673192 -0.34492,0.340254 -1.508088,1.076264 -2.584816,1.635563 -2.762696,1.435083 -4.124485,2.353018 -6.281601,4.234204 -1.035403,0.902971 -2.847906,2.293982 -4.027764,3.091145 -1.179876,0.797163 -2.235154,1.726299 -2.345092,2.064742 -0.333492,1.026708 -0.401966,17.773708 -0.09146,22.371647 0.301826,4.469588 0.975797,9.536055 1.350967,10.155745 0.221515,0.36588 1.393205,1.65065 1.513602,1.65969 0.03679,0.004 0.97343,-0.40069 2.081414,-0.89654 z m 10.340342,-1.73153 c 0.490622,-0.30622 1.226556,-0.70287 1.635414,-0.88144 0.408849,-0.17857 0.944083,-0.4359 1.189404,-0.57185 0.245311,-0.13594 1.44957,-0.72784 2.676135,-1.31532 4.076986,-1.952742 4.604509,-2.233112 5.222756,-2.775856 0.337618,-0.296389 0.711178,-0.53889 0.830112,-0.53889 0.19798,0 1.102108,-0.39527 5.841068,-2.553647 0.89948,-0.409667 2.56861,-1.31015 3.709173,-2.001077 1.140554,-0.690927 2.195479,-1.256229 2.344263,-1.256229 0.148795,0 2.226261,-0.960138 4.616598,-2.133628 2.390338,-1.173498 5.349626,-2.501373 6.576191,-2.950837 1.226565,-0.449471 2.96605,-1.138183 3.86553,-1.530488 0.899471,-0.392297 2.03684,-0.885362 2.527462,-1.095685 1.503627,-0.644599 5.907807,-1.941333 6.608747,-1.94583 0.36399,-0.0025 1.13832,0.404577 1.72074,0.904255 0.58242,0.49967 1.71357,1.232634 2.51367,1.628803 0.8001,0.396167 1.539,0.853537 1.64199,1.01638 0.103,0.162834 0.43742,0.296068 0.74317,0.296068 0.30576,0 0.73273,0.172214 0.94883,0.382693 0.21612,0.21048 1.32958,0.971849 2.47437,1.691939 1.1448,0.720083 2.46818,1.56116 2.94085,1.869055 0.47269,0.307894 1.07482,0.690555 1.33808,0.850358 0.26325,0.159804 0.54554,0.364864 0.62733,0.45569 0.0818,0.09083 1.08532,0.841003 2.2301,1.667058 1.1448,0.826055 2.68358,1.942651 3.41952,2.481327 0.73594,0.538676 1.77562,1.198742 2.31042,1.466807 0.53479,0.268074 1.58932,1.065039 2.3434,1.771046 0.75407,0.705998 2.10169,1.714568 2.99473,2.241268 0.89303,0.52669 2.28049,1.45097 3.08322,2.05393 l 1.45952,1.09631 -0.004,-0.80576 c -0.002,-0.44317 -0.0872,-1.302 -0.18977,-1.90853 -0.17364,-1.0267 -0.25032,-1.09684 -1.11179,-1.01691 -0.90338,0.0838 -0.9268,0.0549 -0.9897,-1.221626 -0.17027,-3.455934 -0.75211,-8.915679 -0.99814,-9.366222 -0.15153,-0.277488 -0.27632,-0.735096 -0.27734,-1.016916 -8.5e-4,-0.281819 -0.21275,-0.904642 -0.47053,-1.384052 -0.2578,-0.479402 -0.79346,-1.649005 -1.19037,-2.599109 -0.39691,-0.950106 -0.96577,-1.996079 -1.26414,-2.324382 -0.29837,-0.328304 -0.89843,-1.2072 -1.33346,-1.953095 -0.47583,-0.81585 -1.32048,-1.684056 -2.12,-2.179115 -0.73096,-0.452609 -1.3339,-0.993731 -1.33987,-1.202489 -0.0197,-0.685639 -1.90442,-2.107808 -4.14127,-3.124781 -1.20872,-0.549531 -2.38247,-0.999143 -2.60834,-0.999143 -0.22588,0 -1.26048,-0.376516 -2.29913,-0.836687 -2.31955,-1.02768 -6.70201,-1.590734 -10.44107,-1.341472 -2.626,0.175073 -4.448052,0.636322 -6.463759,1.636313 -0.61277,0.303983 -1.715222,0.633209 -2.449899,0.731604 -0.734685,0.0984 -1.48743,0.357451 -1.67278,0.575664 -0.185341,0.218221 -0.554765,0.397255 -0.820939,0.397857 -0.266173,5.76e-4 -0.885379,0.239955 -1.376002,0.531922 -0.490622,0.291966 -1.263391,0.621662 -1.717252,0.732658 -0.453852,0.110997 -1.323604,0.629404 -1.932761,1.152019 -1.397786,1.199188 -2.599931,1.940526 -3.146724,1.940526 -0.656479,0 -0.848209,-0.880346 -0.352669,-1.619338 0.486096,-0.724908 2.922006,-2.370519 4.696276,-3.172641 0.613292,-0.277248 1.115063,-0.61994 1.115063,-0.761533 0,-0.371115 -0.263669,-0.327703 -2.085634,0.343384 -0.897171,0.330453 -2.25665,0.790187 -3.021056,1.021627 -1.157244,0.350375 -1.422449,0.565879 -1.58471,1.287732 -0.199088,0.885741 -0.920902,1.157315 -1.520009,0.571908 -0.388145,-0.379268 -1.836505,0.292279 -3.858675,1.789123 -0.832814,0.616456 -1.736011,1.120838 -2.007102,1.120838 -0.271091,0 -0.492895,0.134848 -0.492895,0.299667 0,0.164819 -0.227494,0.384967 -0.505543,0.489227 -0.669751,0.251124 -4.059131,2.7121 -5.738776,4.166825 -2.148389,1.860702 -2.360311,2.017426 -2.7279,2.017426 -0.447147,0 -8.868699,8.270067 -8.868699,8.709178 0,0.181333 -0.511103,1.074312 -1.135794,1.984399 -1.828849,2.664404 -3.822157,7.027754 -3.399263,7.440974 0.249558,0.24384 0.414959,0.19359 1.412902,-0.42928 z M 49.042589,94.142099 c 3.061393,-2.493278 6.336347,-5.014961 6.513026,-5.014961 0.108196,0 0.757755,-0.555675 1.443479,-1.234832 0.685733,-0.679157 1.643889,-1.519469 2.129268,-1.867358 0.485351,-0.347888 1.685316,-1.209128 2.66657,-1.913858 3.161961,-2.270937 3.803278,-2.989653 3.626776,-4.064467 -0.759879,-4.626979 -1.704987,-12.792277 -1.650307,-14.25775 0.01686,-0.451441 -0.120881,-0.968842 -0.306064,-1.149787 -0.473885,-0.463045 -3.095303,0.922465 -5.456126,2.883738 -1.025149,0.851652 -1.959519,1.550271 -2.076386,1.552478 -0.116867,0.0025 -0.785901,0.40055 -1.48675,0.885189 -0.70084,0.48464 -1.608768,1.0965 -2.017626,1.35969 -0.408858,0.263199 -1.024972,0.749213 -1.369147,1.080037 -0.344166,0.330832 -1.199928,1.059125 -1.90169,1.618424 -1.783296,1.421296 -2.677085,2.358528 -2.996607,3.142307 -0.737256,1.808429 -0.03623,14.896213 0.931062,17.382177 0.333893,0.858118 0.428296,0.838713 1.950522,-0.401027 z m 15.428479,-8.792083 c 0.101071,-0.159803 0.0421,-0.29055 -0.131127,-0.29055 -0.173196,0 -0.314902,0.130747 -0.314902,0.29055 0,0.159795 0.05905,0.290542 0.131126,0.290542 0.07218,0 0.213822,-0.130747 0.314903,-0.290542 z m 67.760192,-1.869178 c 0.77576,-0.993838 0.97945,-1.595601 0.55565,-1.641608 -0.63888,-0.06934 -1.48519,-0.240828 -2.08145,-0.421708 -0.46313,-0.14049 -0.66903,-0.08374 -0.66903,0.184404 0,0.599416 0.94557,2.876441 1.1945,2.876441 0.1219,0 0.57206,-0.448887 1.00033,-0.997529 z m -2.35306,-4.334847 c 0.47968,-0.342734 0.51002,-0.547455 0.23696,-1.598634 -0.17821,-0.686017 -0.21331,-1.638174 -0.0815,-2.209381 0.19475,-0.843787 0.45772,-10.15211 0.38202,-13.52234 -0.0126,-0.559308 -0.0137,-2.455137 -0.003,-4.212947 0.0111,-1.757819 0.005,-3.65364 -0.0153,-4.212947 -0.11066,-3.166134 -0.0501,-5.582051 0.24779,-9.878625 0.18281,-2.636725 0.44648,-6.624499 0.58595,-8.86171 0.13947,-2.23722 0.34441,-4.493795 0.45542,-5.014615 0.3653,-1.713846 0.40827,-1.706088 -8.9977,-1.62414 -11.62355,0.101262 -19.55857,0.422952 -28.55341,1.157546 -2.902252,0.237024 -3.101284,0.508112 -3.404022,4.636565 -0.139528,1.902765 -0.387698,6.336 -0.551496,9.851628 -0.163799,3.515629 -0.375898,6.945571 -0.471334,7.622093 -0.251254,1.780945 0.588359,2.451355 3.180076,2.539259 1.05838,0.0359 2.219172,0.245185 2.579544,0.465086 1.048247,0.639674 1.255521,0.10599 0.967488,-2.491102 -0.728389,-6.567612 -0.916673,-8.711271 -1.037536,-11.812341 -0.108205,-2.776448 -0.05113,-3.451997 0.316663,-3.750281 0.254904,-0.206715 2.272958,-0.522311 4.673257,-0.730829 2.32354,-0.201849 5.22816,-0.513252 6.45473,-0.69199 1.22656,-0.178746 5.28236,-0.347395 9.01286,-0.374787 7.41107,-0.05444 7.32754,-0.07322 7.33676,1.650017 0.003,0.468053 -0.14919,1.26645 -0.33709,1.7742 -0.2568,0.693933 -0.25936,4.523074 -0.0102,15.419669 0.33076,14.470815 0.37244,15.007564 1.57966,20.345977 0.18549,0.820199 0.26093,1.611934 0.16764,1.759408 -0.25101,0.396984 3.52804,4.158284 4.17798,4.158284 0.30656,0 0.80495,-0.176876 1.10751,-0.393063 z M 77.938165,75.856045 80.15038,74.787976 79.939511,72.154093 c -0.115982,-1.448631 -0.325473,-2.843126 -0.46555,-3.098879 -0.336166,-0.613747 -0.590921,-9.950583 -0.284726,-10.434687 0.16988,-0.268584 0.607042,-0.317803 1.531567,-0.172421 0.711606,0.111903 2.431187,0.245853 3.821299,0.297657 1.650577,0.06152 3.971733,0.454875 6.690339,1.133785 5.480444,1.368618 6.090318,1.554637 6.656977,2.030546 0.263668,0.221433 1.482941,0.632648 2.709503,0.913818 1.22656,0.281168 2.53748,0.62694 2.91314,0.768386 0.37566,0.141445 0.93912,0.257169 1.25214,0.257169 0.31303,0 0.81874,0.261798 1.12381,0.581775 0.53069,0.556589 2.90725,1.317011 6.7601,2.163005 3.24926,0.713461 4.33435,1.058507 4.43655,1.410754 0.0555,0.191379 0.27054,1.099061 0.47783,2.017071 0.3188,1.411964 0.53257,1.758881 1.38747,2.251748 1.73173,0.998376 2.3347,0.717702 1.86873,-0.869862 -0.15402,-0.524782 -0.35692,-1.883541 -0.45088,-3.019483 -0.26381,-3.189434 -0.52085,-3.720294 -2.15086,-4.44218 -0.7769,-0.344068 -1.61324,-0.634271 -1.85855,-0.644896 -0.9503,-0.04118 -2.37879,-0.395278 -2.37879,-0.589672 0,-0.2702 -2.86902,-1.537177 -5.64963,-2.494934 -1.22656,-0.422473 -2.49772,-0.882364 -2.8248,-1.021981 -0.3271,-0.139608 -1.19684,-0.414773 -1.93278,-0.611465 -0.73593,-0.196693 -1.602,-0.529591 -1.92459,-0.739775 -0.32258,-0.21019 -0.87488,-0.382159 -1.22732,-0.382159 -0.35244,0 -0.807376,-0.196115 -1.010962,-0.435824 -0.203595,-0.2397 -0.721758,-0.441557 -1.151469,-0.448574 -0.429721,-0.0066 -1.316526,-0.211764 -1.970695,-0.455006 -0.654169,-0.243234 -2.661271,-0.814401 -4.460232,-1.269243 -1.798951,-0.454849 -4.020704,-1.094392 -4.937209,-1.421213 -0.916497,-0.326812 -2.552265,-0.732494 -3.635018,-0.901512 -1.082754,-0.169011 -2.339989,-0.447578 -2.79385,-0.619026 -1.326892,-0.501236 -5.700284,-1.713295 -6.181983,-1.713295 -0.3129,0 -0.456973,0.35974 -0.494544,1.234823 -0.0638,1.486064 -0.08215,1.010913 0.322521,8.353252 0.180545,3.275928 0.396844,7.852058 0.480676,10.169175 0.17232,4.76312 0.475767,6.973153 0.957429,6.973153 0.09944,0 1.176291,-0.480637 2.393011,-1.068078 z m 7.351707,-3.331192 c 2.136524,-1.121719 6.55301,-2.071462 9.510751,-2.045222 1.631316,0.01449 3.604861,-0.185903 5.054925,-0.513218 3.785352,-0.854453 8.114162,-1.050717 9.960192,-0.451581 0.83944,0.272439 1.61406,0.409544 1.72139,0.304676 0.28736,-0.280799 -0.56977,-0.7306 -1.40196,-0.735732 -0.85145,-0.005 -4.40525,-1.03099 -6.15827,-1.777494 -0.677,-0.288292 -1.61365,-0.613681 -2.08144,-0.723088 -0.46778,-0.109407 -0.98433,-0.292757 -1.14786,-0.407443 -0.16355,-0.114687 -0.56497,-0.281968 -0.892052,-0.371732 -0.327085,-0.08976 -2.200378,-0.644937 -4.162886,-1.233712 -1.962498,-0.588776 -4.422539,-1.255011 -5.466744,-1.480521 -1.044214,-0.22551 -2.499587,-0.669793 -3.23416,-0.987299 -0.734583,-0.317506 -2.322191,-0.654639 -3.528052,-0.74918 l -2.192451,-0.171893 0.01295,1.987759 c 0.0065,1.093272 0.141306,2.576123 0.298194,3.295225 0.156887,0.719111 0.434265,2.091945 0.616402,3.050756 0.182146,0.958803 0.449382,1.867497 0.593864,2.019303 0.144473,0.151815 0.26269,0.576743 0.26269,0.944283 0,0.853687 0.670012,0.867515 2.234512,0.04612 z M 115.02033,70.24152 c -0.10108,-0.159803 -0.3766,-0.29055 -0.61226,-0.29055 -0.23565,0 -0.42846,0.130747 -0.42846,0.29055 0,0.159803 0.2755,0.29055 0.61224,0.29055 0.33674,0 0.52954,-0.130747 0.42848,-0.29055 z m 5.67796,-8.789076 c 0.13551,-0.359552 0.26696,-5.659667 0.29211,-11.778029 0.043,-10.476345 0.0141,-11.145974 -0.49805,-11.496474 -0.8277,-0.56648 -8.37901,-0.584567 -15.27284,-0.03657 -3.26439,0.259484 -6.040885,0.535578 -6.169981,0.613532 -0.322167,0.194552 -0.271985,5.579662 0.07674,8.242782 0.156972,1.198512 0.368754,3.421204 0.470617,4.939313 0.14831,2.21028 0.30652,2.890451 0.794084,3.413939 0.33489,0.359552 0.75918,0.653733 0.9429,0.653733 0.1837,0 1.25964,0.463193 2.39099,1.029312 1.13134,0.566117 2.99827,1.275987 4.14873,1.57749 2.69181,0.705447 4.90811,1.458202 5.65992,1.922366 0.32708,0.201939 1.12992,0.459421 1.78409,0.572188 0.65417,0.112767 1.52391,0.3787 1.93276,0.590958 0.40886,0.212258 1.29646,0.391161 1.97243,0.39756 1.00911,0.0096 1.27314,-0.105355 1.47542,-0.642103 z m -60.654,-6.043497 c 0.635766,-0.487449 1.289749,-1.044713 1.453287,-1.238375 0.163547,-0.193653 0.631863,-0.512987 1.040721,-0.709629 1.161621,-0.55869 1.836672,-1.008459 3.159456,-2.105032 2.019591,-1.67424 2.918801,-2.316377 3.24949,-2.320486 0.172321,-0.0017 1.019896,-0.347956 1.883501,-0.768461 l 1.570181,-0.764565 1.387346,0.601616 c 0.763036,0.330881 1.855663,0.675649 2.428058,0.766129 0.572405,0.09049 1.375248,0.334447 1.784097,0.542135 0.408849,0.207696 1.3455,0.523604 2.081443,0.702029 0.735933,0.178425 2.274709,0.549374 3.419501,0.824342 1.144801,0.274967 2.329967,0.624198 2.633721,0.776062 1.007947,0.503945 1.180584,-0.164176 1.235161,-4.780177 0.02887,-2.442181 0.208253,-6.191268 0.398604,-8.331286 0.219177,-2.464105 0.246066,-4.244943 0.0733,-4.856269 -0.326358,-1.15496 -3.106396,-4.328292 -4.176287,-4.767114 -0.417567,-0.171268 -1.227534,-0.559275 -1.79993,-0.862252 -0.572396,-0.30297 -1.612521,-0.639584 -2.311396,-0.748028 -1.234193,-0.191503 -1.265645,-0.22336 -1.095569,-1.10924 0.15591,-0.812046 -0.0047,-1.092013 -1.464314,-2.552832 -1.905017,-1.906553 -2.759894,-2.155124 -6.297818,-1.831177 -1.94701,0.178277 -2.494864,0.363282 -4.017127,1.356561 -0.969454,0.632574 -1.762648,1.24861 -1.762648,1.368963 0,0.120353 -0.486226,0.828641 -1.080499,1.573974 -1.216227,1.525383 -2.190338,1.800473 -2.190338,0.618549 0,-0.81473 0.496117,-1.689303 2.022283,-3.564913 0.559748,-0.687912 0.959991,-1.307169 0.889422,-1.376121 -0.163994,-0.160247 -4.569816,1.240911 -5.70427,1.814096 -0.47288,0.238926 -1.402313,0.943796 -2.065404,1.56638 -0.663083,0.622585 -1.446991,1.206822 -1.742009,1.298315 -0.295008,0.09149 -0.536389,0.283237 -0.536389,0.426098 0,0.142854 -0.501771,0.774506 -1.115063,1.403663 -1.22052,1.252136 -3.318318,4.12244 -3.852062,5.270581 -0.185713,0.399503 -0.562589,1.920306 -0.837489,3.379553 -0.426945,2.266417 -0.450453,3.101177 -0.161181,5.726445 0.186253,1.690299 0.4802,3.503538 0.65321,4.029423 0.702218,2.134418 2.667641,5.743608 3.398443,6.240692 0.425659,0.289528 1.215398,0.885972 1.754972,1.325429 0.539575,0.439456 1.187989,0.799007 1.440918,0.799007 0.252921,0 0.639072,0.175106 0.8581,0.389127 1.022355,0.998969 1.985885,0.966833 3.39456,-0.113212 z m 0.409566,-10.663006 c -0.0019,-0.439449 0.288759,-1.610798 0.645359,-2.602981 0.640637,-1.782428 0.641763,-1.818321 0.09434,-3.004519 -1.046486,-2.267619 -0.52986,-5.289541 0.544353,-3.184146 0.554737,1.087218 1.172379,1.019675 1.841114,-0.201354 0.614568,-1.122123 2.022581,-2.129543 2.425749,-1.735598 0.126143,0.12326 0.100279,0.395616 -0.05747,0.605239 -1.121974,1.490832 -1.354404,1.928419 -1.174987,2.212084 0.142964,0.226037 0.350369,0.196363 0.694665,-0.09938 0.269955,-0.231901 1.188873,-0.763403 2.042028,-1.181117 1.228064,-0.601286 1.982811,-0.759499 3.623162,-0.759499 2.702185,0 3.597428,0.332018 3.597428,1.33415 0,0.693051 -0.07926,0.747623 -0.817707,0.563021 -2.548576,-0.637095 -5.896568,0.08547 -7.125675,1.537844 -0.867731,1.025357 -0.843152,1.213756 0.15835,1.213756 2.591949,0 5.565403,1.796964 5.356797,3.237309 -0.135057,0.932473 -1.541933,0.986756 -1.676515,0.06465 -0.120844,-0.827982 -2.218101,-1.445525 -3.407952,-1.003491 -1.015622,0.377308 -1.023259,0.734923 -0.03483,1.630021 0.963698,0.872694 0.761872,1.591896 -0.446737,1.591896 -0.589291,0 -1.05525,-0.236744 -1.421741,-0.722331 -0.299842,-0.39728 -0.968587,-0.803628 -1.486098,-0.902995 -0.854496,-0.164053 -1.015193,-0.07099 -1.749264,1.012879 -0.941736,1.390502 -1.62,1.555238 -1.624368,0.39453 z M 88.766065,28.765812 c 0.644018,-0.834982 1.631382,-1.233177 3.131376,-1.262852 0.779037,-0.0154 2.152375,-0.178836 3.051855,-0.363182 1.607213,-0.329391 1.637016,-0.354115 1.728252,-1.433807 0.120742,-1.428724 -0.930653,-3.216389 -1.743423,-2.964326 -0.408235,0.126603 -0.678273,-0.07528 -1.055363,-0.788927 -1.371159,-2.594987 -4.839258,-5.954851 -6.77078,-6.559476 -0.675302,-0.21139 -1.549263,-0.541361 -1.942158,-0.733268 -0.444594,-0.217167 -1.930515,-0.331578 -3.935093,-0.302988 -4.118077,0.05873 -6.476358,0.731237 -9.542436,2.721181 -1.752858,1.137642 -1.603403,1.320956 1.068244,1.31025 2.262853,-0.0091 5.83858,0.770581 5.83858,1.273045 0,0.102447 0.788053,1.131025 1.75122,2.285729 0.998428,1.19698 1.82978,2.508695 1.933989,3.051464 0.159673,0.831688 0.465588,1.09608 2.420515,2.092028 1.230756,0.627015 2.455207,1.374819 2.720999,1.661803 0.60395,0.652102 0.849671,0.654531 1.344223,0.01334 z m 13.120215,-2.085455 c 0.60018,-0.05114 -1.24627,-4.960331 -1.86569,-4.960331 -0.172549,0 -0.313725,-0.141939 -0.313725,-0.315414 0,-0.173475 -0.434862,-1.175138 -0.966371,-2.225921 -1.174818,-2.32257 -2.714973,-3.560175 -4.430512,-3.560175 -1.542184,0 -1.484645,0.594506 0.131797,1.361878 1.139623,0.541006 1.421807,0.897915 2.630043,3.326564 0.744408,1.496293 1.518416,3.439635 1.720046,4.318541 0.201612,0.878913 0.405943,1.728762 0.454076,1.888565 0.07162,0.237995 1.064816,0.30054 2.640336,0.166293 z m 67.8455,232.489953 c -1.71755,-5.45732 -1.87367,-5.98609 -2.01019,-6.8091 -0.37664,-2.27049 1.17502,-1.4286 2.18024,1.18292 0.72487,1.88324 2.35341,7.78 2.3562,8.53166 8.5e-4,0.34607 -0.23022,0.50845 -0.72495,0.50845 -0.6687,0 -0.81281,-0.27313 -1.8013,-3.41393 z m 3.47194,-9.59301 c -1.49684,-4.49382 -1.19373,-7.72047 0.82439,-8.77583 0.53375,-0.27912 0.6106,-0.2351 0.6106,0.34983 0,0.36804 -0.33451,1.15017 -0.74337,1.7381 -0.93596,1.3459 -0.97078,3.0138 -0.13907,6.66231 0.33237,1.45798 0.55637,2.69773 0.49778,2.75498 -0.0586,0.0572 -0.53123,-1.17097 -1.05033,-2.72939 z m -90.240657,-6.24186 c -0.79094,-2.07611 -1.033289,-4.06702 -0.666762,-5.47752 0.39432,-1.5175 2.089006,-4.03792 2.715001,-4.03792 0.351924,0 0.320891,0.16087 -0.154131,0.799 -1.247129,1.67538 -1.778135,5.35606 -1.23653,8.57117 0.288582,1.71315 -0.03325,1.78424 -0.657578,0.14527 z m 99.775027,-19.39407 c 0.0866,-0.3995 0.39581,-1.57622 0.68712,-2.61493 0.64505,-2.30003 0.72358,-6.31182 0.16097,-8.22388 -0.50629,-1.72073 -0.16905,-2.22137 0.92825,-1.37797 0.95182,0.73157 1.77147,2.68923 1.76709,4.22047 -0.007,2.56144 -1.6417,6.97038 -3.01804,8.14158 l -0.68287,0.5811 z m 3.55013,-25.4768 c 0.0531,-0.26933 0.89918,-0.94631 1.88023,-1.50443 0.98105,-0.55811 1.94004,-1.22009 2.13109,-1.47106 0.42972,-0.56447 0.81069,-0.25376 0.57037,0.46515 -0.18359,0.54925 -3.72319,3.00002 -4.33286,3.00002 -0.18994,0 -0.30191,-0.22035 -0.24883,-0.48968 z m -5.99988,-1.56006 c 0,-0.12491 -0.0751,-0.41832 -0.16687,-0.65201 -0.2792,-0.71096 3.05353,-2.44049 6.54145,-3.39472 1.77977,-0.4869 1.96252,-0.94679 1.62305,-4.08435 -0.26715,-2.46916 -0.097,-5.39729 0.32851,-5.65427 0.37304,-0.22528 0.93242,2.41168 1.17109,5.52064 l 0.22305,2.90548 -1.35513,1.38012 c -0.74532,0.75906 -1.62776,1.46131 -1.96099,1.56056 -0.33323,0.0992 -1.23057,0.61437 -1.9941,1.14472 -1.30389,0.90569 -4.41006,1.80291 -4.41006,1.27383 z m 12.06069,-1.99841 c -0.63578,-0.68648 -0.39372,-2.20476 0.4193,-2.62993 0.66677,-0.34868 0.84867,0.18468 0.66728,1.95668 -0.14097,1.37712 -0.32757,1.49275 -1.08658,0.67325 z m -16.3559,-71.70271 c -0.25442,-0.64786 -0.24501,-5.96834 0.0158,-8.94386 0.20179,-2.30212 0.73178,-3.63185 1.44753,-3.63185 0.21705,0 0.32728,0.27083 0.26605,0.65373 -0.0575,0.35956 -0.23975,3.00718 -0.40501,5.8836 -0.30323,5.27809 -0.47612,6.53733 -0.8976,6.53733 -0.12697,0 -0.31903,-0.22453 -0.4268,-0.49895 z m -1.45353,-11.02612 c -0.26226,-0.25627 -0.1989,-8.17191 0.0729,-9.10383 0.1926,-0.66044 0.23009,-0.62088 0.41311,0.43582 0.288,1.66291 0.25553,8.86171 -0.04,8.86171 -0.13629,0 -0.33701,-0.0871 -0.44603,-0.1937 z M 28.201971,79.611688 c -0.471902,-1.171284 -0.922792,-4.352778 -0.737861,-5.206456 0.235122,-1.085374 1.118518,-2.309087 2.960526,-4.101036 1.459415,-1.419738 4.22253,-3.549248 4.605292,-3.549248 0.131834,0 -0.991834,1.2439 -2.497035,2.764225 -3.459037,3.493787 -3.655182,3.937007 -3.403454,7.690451 0.168484,2.512146 0.132393,2.91053 -0.263705,2.91053 -0.252399,0 -0.551096,-0.228813 -0.663763,-0.508466 z M 27.451155,68.315539 c 0,-0.550717 6.618353,-6.773933 7.216743,-6.785883 0.332161,-0.0066 -0.813525,2.09071 -1.712009,3.134072 -0.676224,0.785269 -4.927374,3.83451 -5.345937,3.83451 -0.08736,0 -0.158797,-0.0822 -0.158797,-0.182699 z m 145.560865,-4.39343 c -0.55961,-5.116025 -1.30471,-7.115974 -3.10626,-8.337579 -1.5921,-1.079576 -4.70747,-4.263137 -5.05204,-5.162616 -0.58577,-1.529121 0.29027,-1.151953 3.32975,1.433567 1.66966,1.420283 3.53639,2.949561 4.14832,3.398406 1.3003,0.95377 1.66338,2.002115 1.71908,4.963732 0.0839,4.465085 0.011,5.375138 -0.43148,5.375138 -0.29752,0 -0.47934,-0.500099 -0.60737,-1.670648 z m -9.67255,-15.76223 c 0,-0.159803 0.13381,-0.290549 0.29733,-0.290549 0.16355,0 0.29736,0.130746 0.29736,0.290549 0,0.159803 -0.13381,0.29055 -0.29736,0.29055 -0.16352,0 -0.29733,-0.130747 -0.29733,-0.29055 z m -48.8723,-26.983775 c -0.39794,-0.152893 0.22783,-0.432745 2.23011,-0.997331 2.85205,-0.804192 7.95105,-1.945326 8.6924,-1.945326 0.49108,0 0.80437,0.946002 0.48205,1.455597 -0.62764,0.992315 -9.63531,2.166835 -11.40456,1.48706 z"
       style="fill:#000000;stroke-width:0.29392859" />
  </g>
</svg>
