<?xml version="1.0" encoding="UTF-8" standalone="no"?>
<svg
   xmlns:dc="http://purl.org/dc/elements/1.1/"
   xmlns:cc="http://creativecommons.org/ns#"
   xmlns:rdf="http://www.w3.org/1999/02/22-rdf-syntax-ns#"
   xmlns:svg="http://www.w3.org/2000/svg"
   xmlns="http://www.w3.org/2000/svg"
   id="svg92"
   version="1.1"
   viewBox="0 0 210 297"
   height="297mm"
   width="210mm">
  <defs
     id="defs86" />
  <metadata
     id="metadata89">
    <rdf:RDF>
      <cc:Work
         rdf:about="">
        <dc:format>image/svg+xml</dc:format>
        <dc:type
           rdf:resource="http://purl.org/dc/dcmitype/StillImage" />
        <dc:title></dc:title>
      </cc:Work>
    </rdf:RDF>
  </metadata>
  <g
     id="layer1">
    <path
       id="path139"
       d="m 145.93923,149.91319 c -3.87996,-1.71408 -3.87308,-1.7016 -8.98912,-16.3794 -1.16235,-3.33472 -3.3548,-8.55452 -4.87214,-11.59956 l -2.75876,-5.53643 -1.86084,5.07003 c -1.02346,2.78853 -2.58229,8.42809 -3.46411,12.53235 -0.88178,4.10427 -1.96716,7.92958 -2.41195,8.50068 -1.05507,1.35475 -15.15264,2.46271 -18.71009,1.47048 -1.81563,-0.50642 -2.85603,-1.45786 -3.047918,-2.78736 -0.23129,-1.6021 0.479488,-2.33159 3.445708,-3.53643 3.39895,-1.38061 3.73709,-1.8211 3.73709,-4.868 0,-2.60558 -0.2451,-3.1013 -1.10263,-2.23069 -1.39874,1.41994 -4.641,1.44506 -6.018548,0.0465 -0.58117,-0.58998 -2.42119,-1.11468 -4.08891,-1.16598 l -3.03223,-0.0934 -0.68384,-13.99185 c -0.37609,-7.69549 -1.27524,-21.547404 -1.9981,-30.782014 l -1.31433,-16.79021 0.61985,17.72297 c 0.3409,9.74765 0.61983,23.803724 0.61983,31.235724 v 13.51274 l -4.5943,0.68721 c -2.68485,0.40157 -5.82771,0.28247 -7.56201,-0.28662 -2.35613,-0.7731 -3.39236,-0.67183 -5.02846,0.49152 -2.75728,1.96057 -4.60244,1.84622 -7.49619,-0.46453 -1.615922,-1.29036 -3.063425,-1.72148 -4.368299,-1.30104 -1.073321,0.34582 -2.917224,0.10412 -4.097518,-0.53715 -1.796865,-0.97622 -2.538588,-0.90477 -4.559035,0.43913 -4.49384,2.98914 -4.728623,2.2024 -5.595552,-18.75088 L 45.902932,91.091616 45.4435,110.21381 l -0.459434,19.12217 -5.513167,0.15944 c -3.032219,0.0878 -6.860756,0.45072 -8.507854,0.80673 -1.9689,0.42554 -3.494413,0.22634 -4.45352,-0.58179 -1.226343,-1.03319 -1.598312,-0.97595 -2.334384,0.35928 -1.240747,2.25068 -3.787645,1.9684 -6.250358,-0.69278 -1.16102,-1.25459 -3.197173,-2.40891 -4.524758,-2.56518 l -2.413774,-0.28406 0.349543,-37.777954 c 0.192222,-20.7779 0.605709,-40.716245 0.918839,-44.307497 l 0.569349,-6.529511 36.664265,-0.229774 c 24.469175,-0.153359 37.049055,0.0944 37.821145,0.744903 0.80473,0.677981 1.33818,0.676949 1.75237,-0.0027 0.37366,-0.613808 5.86819,-0.978116 14.751228,-0.978116 13.05496,0 14.22974,-0.140403 15.10695,-1.804272 0.52317,-0.992341 0.9512,-2.860574 0.9512,-4.151622 0,-4.546601 2.02477,-11.898514 3.42744,-12.444923 0.77564,-0.302171 2.21692,-0.03807 3.20278,0.586996 1.45906,0.925022 2.22485,0.848844 4.11678,-0.409602 1.34692,-0.895909 3.44719,-1.3787 4.99466,-1.148132 1.54289,0.229775 3.09852,-0.12586 3.68435,-0.842366 3.75077,-4.587929 16.05903,6.075409 17.9209,15.525938 0.61878,3.140826 -1.65845,10.338824 -3.8569,12.191036 -0.73145,0.616266 -1.32993,2.473156 -1.32993,4.126449 0,3.182127 -2.3135,6.093495 -4.84213,6.093495 -2.91353,0 -2.49335,1.785445 0.79272,3.368428 9.24036,4.4513 14.67036,21.55037 13.90587,43.789534 -0.32691,9.5101 -2.13346,13.96852 -6.53479,16.12719 -2.11337,1.03652 -2.45633,1.66653 -1.97252,3.62348 0.32212,1.30281 0.95421,7.45431 1.40468,13.66993 l 0.81904,11.30115 -2.29712,2.09878 c -2.64345,2.41522 -3.42808,2.49565 -7.36774,0.75519 z m 6.7208,-2.46623 c 1.41328,-1.43469 0.37215,-4.81688 -1.28414,-4.17166 -0.73297,0.28554 -3.05619,0.53242 -5.16268,0.54863 l -3.83001,0.0296 2.57811,2.30251 c 2.71888,2.42823 6.03131,2.98371 7.69872,1.29104 z m -32.78889,-6.58664 c 0,-0.43834 -1.34384,-0.80067 -2.9863,-0.80511 -1.64246,-0.005 -5.05374,-0.24935 -7.58058,-0.54398 -3.40145,-0.39672 -5.07144,-0.15627 -6.43204,0.92626 -1.69945,1.3521 -1.129,1.45301 7.58061,1.34097 5.18006,-0.0667 9.41831,-0.47977 9.41831,-0.91814 z m 32.80002,-0.4718 c 0.63009,-1.66686 -1.04946,-18.32256 -2.00608,-19.89383 -0.39523,-0.64921 -1.18899,-0.62861 -2.46371,0.064 -3.09056,1.67907 -4.17854,-0.34155 -2.31732,-4.30376 2.01295,-4.28516 1.95992,-4.91748 -0.44257,-5.27636 -2.87774,-0.42986 -3.13524,-2.46919 -0.443,-3.50828 1.99299,-0.76924 2.20678,-1.2438 1.57852,-3.5037 -0.39969,-1.4377 -1.22758,-2.49858 -1.83977,-2.35753 -7.8924,1.81825 -15.32475,2.27965 -21.79788,1.35321 -3.96168,-0.56704 -7.47566,-0.7414 -7.80882,-0.38751 -0.73437,0.78007 -3.90704,16.50342 -5.38903,26.70749 -0.98484,6.78094 -0.93679,7.51162 0.5676,8.62832 0.90394,0.67099 3.60264,1.21999 5.99706,1.21999 h 4.35353 l 1.08053,-5.36352 c 0.59431,-2.94995 2.2947,-8.93147 3.77867,-13.29225 1.48399,-4.3608 2.51298,-8.66329 2.28666,-9.56109 -0.22634,-0.8978 -0.24718,-1.63237 -0.0466,-1.63237 0.72822,0 9.38238,18.34237 11.44262,24.25251 1.16246,3.33472 2.50786,6.58782 2.98974,7.22912 1.36647,1.81839 9.76423,1.5184 10.4797,-0.3744 z M 72.549852,128.86984 c 0.71153,-1.16871 4.65902,-1.21289 6.7524,-0.0756 0.99169,0.53877 3.01735,0.46719 5.45277,-0.19276 l 3.87489,-1.04995 -0.0909,-5.17084 c -0.05,-2.84397 -0.56685,-17.33913 -1.14857,-32.211494 l -1.05766,-27.04062 -4.13488,-2.05397 c -2.27416,-1.12967 -4.44497,-2.07873 -4.82401,-2.109 -1.31672,-0.10524 -0.70598,12.92348 0.78286,16.70093 1.0145,2.5739 1.29638,5.1166 0.90688,8.18076 -0.64743,5.09366 -0.68179,25.452004 -0.05,29.631404 0.34173,2.26058 0.25916,2.43983 -0.4289,0.9328 -0.46858,-1.02608 -0.88103,-4.21762 -0.91655,-7.09228 -0.0354,-2.8747 -0.32167,-7.723844 -0.63592,-10.775904 l -0.57133,-5.54918 -4.25268,2.18156 -4.25268,2.1816 -0.51324,8.594304 -0.51327,8.59432 -0.17581,-8.62829 c -0.13753,-6.742684 -0.46069,-8.628314 -1.47905,-8.628314 -0.71672,0 -1.95718,-0.2549 -2.756571,-0.56619 -1.276404,-0.49723 -1.471049,0.95131 -1.598026,11.893044 -0.127628,10.9965 -0.222176,11.69267 -0.804703,5.92975 -0.363088,-3.59123 -0.711536,-9.73124 -0.774309,-13.644444 -0.08126,-5.05961 -0.510353,-7.44872 -1.485817,-8.27055 -0.754435,-0.63563 -1.811581,-2.81402 -2.349205,-4.8409 -0.82963,-3.12769 -0.691611,-4.28476 0.912275,-7.64814 1.039357,-2.17963 1.896102,-5.82424 1.903838,-8.09919 0.0078,-2.27493 0.414893,-4.76586 0.9048,-5.53543 0.637643,-1.00164 0.894694,-0.008 0.904775,3.49797 0.0078,2.69343 0.241449,4.89714 0.519131,4.89714 0.277785,0 1.78444,-0.67161 3.34811,-1.49248 l 2.843042,-1.49248 -0.60935,-9.43924 c -0.49244,-7.6282 -0.38557,-9.212137 0.55705,-8.255598 0.69534,0.705638 1.29597,4.335548 1.48725,8.988258 0.29792,7.24654 0.47248,7.84322 2.44151,8.34492 1.16637,0.29717 2.69,0.76209 3.38585,1.03316 1.02249,0.39832 1.19345,-0.797 0.89102,-6.23017 -0.34544,-6.20645 -0.61263,-6.9513 -3.477,-9.693736 -2.1791,-2.086295 -3.10281,-3.80027 -3.10281,-5.757426 v -2.78675 l -6.202304,-0.08594 c -3.411247,-0.04732 -7.132629,-0.117928 -8.269738,-0.156795 -5.169172,-0.177157 -4.824005,-3.128584 -4.824005,41.249477 0,22.530744 0.310109,40.811604 0.689137,40.624134 0.379027,-0.18746 1.824551,-0.9187 3.212278,-1.62492 2.184722,-1.11183 2.739303,-1.09067 4.134869,0.15759 1.010341,0.90376 2.659834,1.2774 4.420598,1.00136 1.866148,-0.2926 3.214545,0.0558 4.017655,1.03821 1.33869,1.63749 6.06596,2.0084 6.95637,0.54583 z M 53.667655,59.843426 c -0.247441,-6.412901 -0.331518,-11.841742 -0.186752,-12.06406 0.144817,-0.222371 0.587997,-0.01322 0.985153,0.466397 0.39713,0.478826 0.481208,5.907666 0.186753,12.064063 l -0.535228,11.19349 z m 52.097575,68.583794 c 2.58321,-1.30822 2.79515,-1.8799 4.33735,-11.69893 2.13963,-13.62278 1.20756,-22.282474 -2.40635,-22.357384 -0.37903,-0.008 -0.76214,2.81909 -0.8514,6.282054 l -0.16228,6.29632 -0.52688,-6.31497 c -0.48111,-5.766314 -0.75554,-6.434884 -3.15879,-7.695494 -1.44755,-0.75931 -2.78139,-1.38054 -2.96408,-1.38054 -0.182578,0 -0.456248,7.03088 -0.607898,15.624214 l -0.27569,15.62422 -0.20603,-16.96835 c -0.13675,-11.264654 -0.55044,-17.184504 -1.2308,-17.611374 -0.97617,-0.61243 -0.80346,-3.63043 0.64189,-11.21787 0.49334,-2.58971 0.19639,-3.10139 -2.86513,-4.93504 -1.87855,-1.12516 -3.58691,-1.8718 -3.79634,-1.65917 -0.20942,0.21259 0.0683,6.42108 0.61732,13.79655 0.54897,7.37548 1.24533,20.175914 1.54744,28.445404 0.50067,13.70445 0.69153,14.99771 2.15597,14.60895 0.88367,-0.23454 2.78837,0.22343 4.232618,1.0178 1.44427,0.79438 2.6658,1.46114 2.71448,1.48166 0.0487,0.0211 1.3107,-0.58158 2.80447,-1.33805 z m 1.56292,-13.54923 c 0,-4.36078 0.15835,-6.14474 0.35175,-3.96434 0.19353,2.18039 0.19353,5.74831 0,7.92869 -0.19353,2.1804 -0.35175,0.39645 -0.35175,-3.96435 z m -83.937293,12.59265 c 1.520486,-1.85982 3.379392,-1.77055 4.47389,0.21498 0.795066,1.44223 1.249315,1.48203 4.268199,0.37382 2.125675,-0.78028 4.879223,-1.0117 7.425652,-0.62406 l 4.04717,0.61613 0.01563,-18.47976 c 0.01037,-11.213974 0.550908,-22.294424 1.375225,-28.182024 1.849817,-13.21233 0.968718,-36.470776 -1.381632,-36.470776 -0.848019,0 -1.851718,0.31481 -2.230407,0.699583 -0.378715,0.384774 -4.386816,0.745829 -8.906911,0.802307 -4.520095,0.05658 -8.482954,0.371289 -8.806346,0.699583 -0.977625,0.992447 -4.435991,0.670445 -5.611075,-0.522452 -0.606438,-0.615632 -1.102623,-2.504543 -1.102623,-4.19755 0,-2.004036 -0.445082,-3.078213 -1.275493,-3.078213 -1.036387,0 -1.381424,4.152653 -1.840701,22.153758 -0.310863,12.18455 -0.811527,31.49328 -1.112546,42.908274 l -0.547339,20.75458 h 2.815122 c 1.874743,0 3.143698,0.62319 3.798662,1.86558 1.167895,2.21528 3.011513,2.40243 4.594301,0.46638 z m 14.70177,-26.82392 v -7.079894 l -2.725471,1.38026 c -2.119033,1.07315 -3.487589,1.16664 -6.150653,0.42018 -1.883833,-0.52804 -3.60472,-0.7778 -3.824187,-0.555 -0.219311,0.22289 -0.705337,2.83487 -1.079754,5.804644 l -0.680749,5.39961 -0.120335,-6.709844 c -0.09638,-5.36325 -0.460032,-6.95445 -1.812387,-7.92871 -5.16076,-3.71793 -5.019797,-13.98203 0.252911,-18.42443 1.153959,-0.97222 1.45167,-3.45228 1.503476,-12.52472 0.04089,-7.188986 0.352435,-10.63243 0.854271,-9.446858 0.434324,1.026053 0.819967,5.85325 0.856979,10.727068 l 0.0672,8.86149 3.213295,0.0701 3.213294,0.0701 0.01303,-9.39786 c 0.01037,-6.586037 0.289297,-8.979236 0.933946,-7.998688 0.505926,0.769547 0.855833,5.088198 0.777537,9.596998 -0.122417,7.04662 0.101324,8.3851 1.592947,9.53143 0.954368,0.73348 2.045347,1.34694 2.424375,1.36326 0.379027,0.0158 0.689162,-5.28722 0.689162,-11.78566 0,-6.498421 0.310108,-11.501398 0.689136,-11.117736 0.659704,0.667775 2.061705,21.517716 2.169302,32.260956 0.07345,7.33174 -1.35444,23.040414 -2.169302,23.865604 -0.379028,0.38382 -0.689136,-2.4881 -0.689136,-6.38206 z m -3.303545,-8.284904 c 2.382179,-1.10186 5.143802,-5.87128 5.137812,-8.87324 -0.0078,-4.39139 -6.649416,-10.5861 -11.348215,-10.5861 -4.011462,0 -8.863258,5.10616 -8.863258,9.32789 0,2.85637 3.281926,7.69569 6.326936,9.32931 3.89498,2.08959 5.621025,2.2479 8.746725,0.80214 z m -5.885058,-7.79946 c 0,-4.5769 -0.206548,-5.13034 -1.914281,-5.13034 -3.045321,0 -1.508869,-2.29703 1.75532,-2.62427 l 2.915531,-0.29231 v 6.58864 c 0,5.23468 -0.283228,6.5886 -1.378272,6.5886 -1.058083,0 -1.378298,-1.19189 -1.378298,-5.13032 z M 151.35904,114.41161 c 0.9826,-1.53911 1.5755,-2.16874 1.31753,-1.39919 -0.25785,0.76955 -0.75347,2.23871 -1.10111,3.26475 -0.45,1.32825 0.18624,0.98817 2.209,-1.1807 1.5626,-1.67545 2.84106,-2.70383 2.84106,-2.28532 0,0.41851 -0.51686,1.31712 -1.14856,1.9969 -0.92687,0.99736 -0.88251,1.15651 0.22972,0.82454 1.22468,-0.36553 4.88266,-9.14923 4.13282,-9.92382 -0.16383,-0.16923 -1.3645,0.40172 -2.66809,1.2688 -1.55888,1.0369 -3.19916,1.36536 -4.79197,0.9595 -2.83074,-0.72123 -7.69906,0.17558 -7.69906,1.41831 0,0.47227 1.24886,0.85869 2.77524,0.85869 h 2.77527 l -1.8564,3.69397 c -1.02103,2.03169 -1.85638,4.18187 -1.85638,4.77817 0,1.52564 2.60828,-0.77753 4.84096,-4.2746 z m 6.34272,-9.47247 c 1.41343,-1.29853 1.68034,-3.01814 1.68034,-10.825634 0,-13.10458 -3.18848,-24.36819 -8.60314,-30.39136 -3.73956,-4.15981 -4.74714,-4.16775 -7.42597,-0.0585 -1.35198,2.07394 -3.83501,4.59551 -5.51785,5.60346 -3.46485,2.07529 -5.09997,6.7776 -5.09997,14.6666 0,5.12301 0.7889,5.72101 7.5806,5.74612 4.09606,0.0158 4.23867,-0.78176 1.10984,-6.20163 -2.77467,-4.80641 -1.81173,-5.42239 1.27739,-0.81716 3.08628,4.60093 6.28969,13.22665 7.02821,18.924584 0.61012,4.70721 0.74441,4.89714 3.46246,4.89714 1.55526,0 3.58388,-0.69467 4.50809,-1.54375 z m -15.66799,-4.14192 c 2.87813,-0.73581 3.39739,-1.296784 3.85599,-4.165644 0.85683,-5.36007 0.20056,-6.00436 -6.13175,-6.02038 -8.0423,-0.0211 -8.27366,-0.28897 -7.73487,-8.97993 0.50955,-8.21934 1.73899,-11.64901 4.64744,-12.96454 2.9951,-1.35475 8.38864,-8.94189 6.98338,-9.82354 -0.69846,-0.43821 -2.0965,0.33403 -3.63863,2.00987 -3.36869,3.66088 -9.88373,3.89446 -13.25197,0.47516 -1.86448,-1.89275 -2.38221,-2.03923 -3.28865,-0.93047 -0.63687,0.77899 -0.83849,2.52038 -0.49421,4.26797 0.34608,1.75665 -0.19795,6.3828 -1.34371,11.42433 -1.05891,4.65978 -2.10991,9.4406 -2.33552,10.62408 -0.29868,1.56664 -0.8568,2.00787 -2.05259,1.62259 -1.44961,-0.46705 -1.66132,0.1687 -1.80377,5.417 l -0.16148,5.94619 5.2801,1.041504 c 2.90405,0.57279 6.10707,1.17423 7.1178,1.33644 2.61126,0.41912 10.43409,-0.27888 14.35234,-1.28063 z M 114.2934,95.056236 c 0.0354,-0.38478 -0.34892,-0.69961 -0.85427,-0.69961 -0.50538,0 -0.8898,1.15435 -0.8543,2.56517 0.0573,2.27305 0.15445,2.35274 0.8543,0.69961 0.43432,-1.02608 0.81874,-2.1804 0.85427,-2.56517 z m -42.377388,-4.45467 c 10.06053,-6.22673 4.00312,-22.53522 -6.38836,-17.19948 -7.139083,3.66574 -9.613467,8.82472 -6.842024,14.26535 2.626885,5.15684 7.789334,6.30175 13.230384,2.93413 z m -8.976848,-2.54126 c 0.02084,-0.38477 1.261011,-2.15288 2.756598,-3.92912 4.12426,-4.89822 3.50025,-8.05314 -1.098666,-5.55457 -1.573281,0.85476 -1.810043,0.75008 -1.538692,-0.68031 0.428828,-2.26036 4.936528,-3.86388 7.013078,-2.49476 2.11548,1.39483 1.6821,5.61327 -0.85873,8.35888 l -2.03696,2.2011 h 2.45733 c 2.69814,0 3.29979,1.3378 1.00388,2.23218 -2.0596,0.80232 -7.742508,0.70383 -7.697838,-0.13327 z m 49.641506,3.46515 c 1.02805,-0.55854 1.7773,-1.94666 1.7773,-3.29271 v -2.32707 l -2.68268,2.01345 c -1.89628,1.42326 -3.3777,1.83638 -5.05371,1.40935 -3.23171,-0.82341 -3.13505,-3.30563 0.11982,-3.07615 1.72169,0.12137 2.59372,-0.32848 2.82395,-1.45678 0.20524,-1.00625 -0.22139,-1.63238 -1.11257,-1.63238 -0.7951,0 -1.44566,-0.62965 -1.44566,-1.39919 0,-0.77732 0.81677,-1.39916 1.83773,-1.39916 1.076,0 1.83771,-0.62187 1.83771,-1.50031 0,-1.13454 -0.56002,-1.35762 -2.29714,-0.91503 -1.69518,0.43192 -2.29716,0.21391 -2.29716,-0.83166 0,-0.77933 -0.7901,-1.41695 -1.75574,-1.41695 -2.65434,0 -5.934988,7.36619 -4.722498,10.60366 1.738288,4.64132 8.803218,7.4851 12.970668,5.22093 z m 7.4936,-13.54052 c 0.96682,-4.59097 1.85016,-11.19308 1.96297,-14.67136 l 0.20498,-6.324137 -4.17191,0.727397 c -2.29453,0.40009 -7.68653,0.71302 -11.98222,0.69543 -6.317138,-0.0264 -8.573868,-0.43955 -11.804488,-2.163843 -2.19681,-1.172537 -4.10827,-1.997637 -4.24772,-1.833596 -0.79176,0.931499 -3.24383,6.422719 -3.24383,7.264339 0,1.53243 6.2907,7.38143 10.00342,9.30098 3.10645,1.60612 12.378678,4.72072 14.053708,4.72072 0.41364,0 0.75209,-2.09878 0.75209,-4.66395 0,-7.90969 1.5894,-5.1456 2.0114,3.49794 0.39737,8.13912 1.81307,12.77544 3.70548,12.13506 0.54897,-0.18562 1.78918,-4.094 2.75599,-8.68498 z m 16.75254,-16.42565 c 2.40491,-1.11236 3.15505,-2.64862 1.2933,-2.64862 -1.45067,0 5.05825,-4.39158 8.96489,-6.048629 3.02644,-1.283696 3.18491,-1.570848 2.8338,-5.13513 -0.20446,-2.076485 -0.70578,-4.082478 -1.11385,-4.457732 -0.40809,-0.375281 -0.4741,0.07404 -0.14664,0.998501 0.32744,0.924466 0.22192,1.446522 -0.23468,1.160163 -0.4564,-0.286359 -1.01961,0.008 -1.2515,0.651142 -0.23181,0.644506 -0.37062,0.05764 -0.30821,-1.303844 0.0622,-1.361619 0.40187,-2.294917 0.75438,-2.073999 0.35249,0.221048 0.51627,-1.267119 0.3639,-3.306745 -0.18441,-2.468583 0.13883,-3.870445 0.96711,-4.193056 0.68425,-0.266553 1.2441,-1.337319 1.2441,-2.379501 0,-1.526956 -0.59675,-1.89486 -3.0736,-1.89486 -1.90666,0 -3.70503,-0.708282 -4.7367,-1.865563 -0.99154,-1.112252 -2.83008,-1.86559 -4.55295,-1.86559 -1.5894,0 -3.35415,-0.471369 -3.92168,-1.047471 -0.76321,-0.774782 -1.74503,-0.531945 -3.77133,0.932794 -1.50671,1.089143 -3.18668,1.980267 -3.73318,1.980267 -1.5912,0 -5.70534,6.992048 -6.66476,11.326854 -1.87764,8.483388 3.3466,18.662059 10.30328,20.074499 2.59464,0.52679 2.79009,0.73205 1.27128,1.33521 -1.53241,0.60854 -1.43175,0.72229 0.68893,0.77826 1.36597,0.036 3.53678,-0.42155 4.824,-1.01695 z m -9.77708,-8.882575 c 0.6633,-0.269436 1.45582,-0.236385 1.76114,0.07377 0.30534,0.309971 -0.23729,0.530438 -1.206,0.48993 -1.07041,-0.04469 -1.28816,-0.265787 -0.55514,-0.563569 z m -3.27343,-3.201269 c -3.69961,-2.405203 -3.95119,-4.115531 -0.45943,-3.123216 1.38975,0.394926 5.20913,0.760159 8.48748,0.811615 4.69792,0.07377 6.02092,0.411319 6.24518,1.593508 0.20707,1.091602 -0.66525,1.659321 -3.20405,2.085211 -5.6956,0.955482 -7.91905,0.680889 -11.06918,-1.367118 z m 11.25601,0.107353 c 2.17876,-0.950431 1.3372,-1.159053 -3.84302,-0.952732 -2.11367,0.08408 -4.73336,-0.330621 -5.82155,-0.921848 -1.08822,-0.591226 -2.18644,-0.863915 -2.44053,-0.60598 -0.25421,0.257801 0.71167,1.114657 2.14612,1.903823 2.86555,1.576454 7.1045,1.821935 9.95898,0.576737 z m -7.8103,-7.232135 c 0,-0.899478 1.24045,-2.823953 2.75659,-4.276635 1.51611,-1.452658 2.75657,-2.250919 2.75657,-1.773918 0,0.477 -0.85242,1.65041 -1.89427,2.607558 -1.07267,0.985492 -1.70779,2.464166 -1.46431,3.409336 0.26257,1.019257 -0.0733,1.669052 -0.86232,1.669052 -0.71075,0 -1.29226,-0.73594 -1.29226,-1.635393 z m 10.10746,-2.918454 c 0,-1.026053 0.41349,-2.124978 0.91887,-2.442062 0.50535,-0.317083 0.91884,0.263091 0.91884,1.289091 0,1.026053 -0.41349,2.124978 -0.91884,2.442062 -0.50538,0.317083 -0.91887,-0.263091 -0.91887,-1.289091 z m -12.32719,-1.848508 c -0.34996,-0.574833 -0.2576,-1.732035 0.20525,-2.571519 0.57007,-1.034145 1.04662,-1.189327 1.47774,-0.481178 0.34995,0.57486 0.25759,1.732035 -0.20525,2.571544 -0.57008,1.034145 -1.04662,1.189302 -1.47774,0.481153 z m 15.14896,-3.312192 c -0.68526,-0.838187 -0.97338,-1.800675 -0.64024,-2.138859 0.85814,-0.871161 2.69374,1.203447 2.25285,2.546187 -0.25343,0.771821 -0.75146,0.646013 -1.61261,-0.407328 z m -13.10151,-3.981683 c 0.6633,-0.269463 1.45582,-0.236385 1.76114,0.07377 0.30534,0.309945 -0.23729,0.530412 -1.206,0.489905 -1.07041,-0.04469 -1.28816,-0.265788 -0.55514,-0.563543 z M 87.734572,56.039962 c 1.2365,-3.803496 1.20611,-3.950139 -1.26727,-6.109888 -1.39379,-1.217065 -3.38389,-2.212869 -4.42244,-2.212869 -1.80991,0 -1.79824,0.07615 0.28094,1.834548 2.82286,2.387328 1.03724,2.415515 -1.96562,0.03093 -3.38987,-2.691773 -5.11969,-2.258612 -2.11869,0.530517 l 2.5781,2.396081 -4.2156,-2.396081 c -2.31857,-1.317858 -4.79305,-2.396107 -5.49881,-2.396107 -0.70578,0 0.13544,0.772402 1.86948,1.716461 1.73399,0.944032 3.33567,2.273658 3.55928,2.954678 0.25108,0.764655 -0.87236,0.435833 -2.93731,-0.859737 -2.71461,-1.703135 -3.34392,-1.829259 -3.34392,-0.67018 0,0.78528 1.42341,2.529952 3.16312,3.877003 3.16785,2.452877 11.5343,6.146588 12.52492,5.529688 0.2898,-0.18059 1.097,-2.0818 1.79382,-4.225155 z m -5.07725,-0.809288 c -1.01076,-0.412774 -2.14784,-0.568381 -2.52687,-0.345771 -0.37903,0.222635 -0.68914,-0.08541 -0.68914,-0.684248 0,-1.214077 4.44001,-0.43131 5.92663,1.04488 1.0603,1.052838 -0.11199,1.046412 -2.71062,-0.01586 z m 36.792408,0.68758 c 0.84802,-0.860902 -1.55648,-10.088796 -2.47813,-9.510526 -0.40586,0.254629 -1.54836,0.0238 -2.53885,-0.515472 -1.19579,-0.649662 -1.99232,-0.664152 -2.37038,-0.0431 -0.75616,1.242 -4.78582,1.19972 -5.5517,-0.05817 -0.39447,-0.647942 -1.23027,-0.418987 -2.40278,0.658177 -1.49464,1.373148 -2.10551,1.456728 -3.6216,0.495562 -1.003018,-0.635886 -2.173478,-0.936709 -2.601038,-0.668461 -0.42758,0.268246 -1.29258,-0.142519 -1.92228,-0.912673 -0.85041,-1.040253 -1.45766,-1.136896 -2.361,-0.375837 -0.66887,0.563543 -1.64772,0.753814 -2.17525,0.422849 -0.61039,-0.382975 -0.9591,0.881578 -0.9591,3.478083 0,3.751725 0.26114,4.20625 3.24718,5.651794 1.78595,0.864576 3.4399,1.571932 3.67544,1.571932 0.23546,0 0.42825,-1.91366 0.42825,-4.252601 0,-5.302239 1.51205,-4.652208 2.348398,1.009581 0.47993,3.248891 1.00162,4.175816 2.35024,4.175816 1.49015,0 1.74246,-0.752625 1.79797,-5.363531 0.0466,-3.858917 0.28611,-4.840205 0.85429,-3.497967 0.43433,1.026079 0.81874,3.3697 0.85427,5.208081 0.0357,1.838356 0.24822,3.528904 0.47261,3.756722 0.60079,0.609863 12.22869,-0.494398 12.95346,-1.230153 z M 85.873322,46.262986 c 0,-0.799848 -0.42024,-1.190597 -0.93384,-0.868331 -0.51361,0.322241 -0.69596,0.976635 -0.4052,1.454217 0.78768,1.293824 1.33904,1.052574 1.33904,-0.585886 z M 22.471991,44.918845 c 1.070196,-0.702095 0.801345,-0.907411 -1.202796,-0.918517 -1.489544,-0.008 -2.340923,0.380199 -2.013207,0.918517 0.705103,1.15818 1.450629,1.15818 3.216003,0 z m 48.699591,0 c 0,-0.513039 -0.4379,-0.932795 -0.9731,-0.932795 -0.5352,0 -0.71755,0.419756 -0.4052,0.932795 0.31235,0.51304 0.75024,0.932794 0.97309,0.932794 0.22296,0 0.40521,-0.419754 0.40521,-0.932794 z M 29.133727,44.301071 c -0.631703,-0.25886 -1.665433,-0.25886 -2.297137,0 -0.631731,0.25886 -0.114865,0.470497 1.148569,0.470497 1.263433,0 1.780299,-0.211795 1.148568,-0.470497 z m 81.299953,0.0542 c -0.30534,-0.309945 -1.09786,-0.343102 -1.76115,-0.07377 -0.733,0.297781 -0.51528,0.518804 0.55515,0.563569 0.96861,0.04045 1.51132,-0.180065 1.206,-0.48993 z M 89.548752,43.574699 c 0,-0.226338 -0.41348,-0.670763 -0.91884,-0.98782 -0.50538,-0.317083 -0.91886,-0.131942 -0.91886,0.41132 0,0.543316 0.41348,0.987846 0.91886,0.987846 0.50536,0 0.91884,-0.185089 0.91884,-0.411346 z m 65.206488,-8.312657 c 0.0391,-4.323887 -3.79614,-11.717894 -7.22716,-13.933091 -1.31358,-0.848077 -3.0877,-2.061043 -3.94252,-2.695475 -1.27333,-0.94501 -1.88419,-0.850351 -3.37988,0.523749 -1.19769,1.100327 -2.4959,1.461303 -3.77421,1.049427 -1.17821,-0.379618 -2.82616,-0.04416 -4.16839,0.848711 -2.52564,1.679946 -5.575,1.930662 -6.42862,0.528535 -0.98289,-1.614451 -2.28789,-0.01055 -2.28789,2.813588 0,1.478542 -0.41348,2.947698 -0.91886,3.264756 -0.50536,0.317084 -0.91884,1.181369 -0.91884,1.92064 0,0.739271 0.41348,1.344115 0.91884,1.344115 0.50538,0 0.91886,-0.800192 0.91886,-1.778227 0,-1.292186 0.48058,-1.650676 1.75813,-1.31154 0.98808,0.262297 2.9521,-0.42938 4.48408,-1.579204 2.19433,-1.646947 3.09119,-1.847504 4.59867,-1.028486 1.03001,0.559577 3.10867,0.766478 4.61926,0.459787 2.26997,-0.460872 3.01951,-0.134586 4.31985,1.879947 1.12276,1.739544 2.27304,2.383469 4.01669,2.248591 1.34389,-0.103918 2.94844,0.127712 3.5657,0.51513 1.58806,0.996333 1.39303,4.078643 -0.31963,5.051629 -1.6233,0.922217 -2.44392,5.560967 -1.12964,6.385538 1.47686,0.92658 1.84401,-0.334166 0.75758,-2.601371 -0.99517,-2.076776 -0.97717,-2.093989 0.38498,-0.367983 0.78594,0.995857 1.44365,2.464987 1.46154,3.264755 0.0711,3.170942 2.66041,-3.374565 2.69146,-6.803521 z M 44.529295,40.721293 c 0,-0.567112 -5.224025,-1.033985 -13.325789,-1.190913 -11.545543,-0.223693 -13.32579,-0.06452 -13.32579,1.190913 0,1.255458 1.780247,1.414582 13.32579,1.190915 8.101764,-0.156797 13.325789,-0.623802 13.325789,-1.190915 z m 41.803457,0 c 0,-0.582844 -6.9807,-1.027533 -18.60691,-1.185308 -16.97898,-0.230304 -19.843538,0.08541 -17.97549,1.981772 1.023755,1.039274 36.5824,0.265101 36.5824,-0.796464 z m 31.241248,0 c 0,-0.976608 -23.681578,-1.859084 -25.969688,-0.967749 -0.68924,0.268511 -0.9889,0.922217 -0.66593,1.452736 0.77897,1.279545 26.635618,0.808732 26.635618,-0.484987 z"
       style="fill:#000000;stroke-width:0.92579818" />
  </g>
</svg>
