<?xml version="1.0" encoding="UTF-8" standalone="no"?>
<svg
   xmlns:dc="http://purl.org/dc/elements/1.1/"
   xmlns:cc="http://creativecommons.org/ns#"
   xmlns:rdf="http://www.w3.org/1999/02/22-rdf-syntax-ns#"
   xmlns:svg="http://www.w3.org/2000/svg"
   xmlns="http://www.w3.org/2000/svg"
   id="svg71"
   version="1.1"
   viewBox="0 0 210 297"
   height="297mm"
   width="210mm">
  <defs
     id="defs65" />
  <metadata
     id="metadata68">
    <rdf:RDF>
      <cc:Work
         rdf:about="">
        <dc:format>image/svg+xml</dc:format>
        <dc:type
           rdf:resource="http://purl.org/dc/dcmitype/StillImage" />
        <dc:title></dc:title>
      </cc:Work>
    </rdf:RDF>
  </metadata>
  <g
     id="layer1">
    <path
       id="path84"
       d="m 95.0406,144.32596 c -0.804723,-0.0884 -3.814584,-0.42034 -6.688586,-0.73749 C 51.674821,139.54106 20.518638,119.55198 11.06104,94.000411 8.5283599,87.157866 7.9252857,83.713105 7.9252857,76.088995 c 0,-7.418721 0.6019129,-11.019337 2.8865873,-17.267232 C 15.804154,45.169321 26.111303,33.570773 41.63876,24.132528 77.08467,2.5870109 129.7256,2.0970409 165.89774,22.975944 c 19.51565,11.264614 31.53227,26.495903 34.90264,44.23975 3.32473,17.503629 -3.50537,36.065966 -18.39905,50.003516 -15.87534,14.85618 -38.78092,24.26713 -65.41383,26.87583 -4.35122,0.42619 -18.788881,0.57812 -21.9469,0.23092 z m 28.78694,-4.39262 c 35.02571,-5.07731 62.38543,-22.87124 71.89877,-46.760798 12.20346,-30.644862 -9.95603,-63.115776 -52.16463,-76.438305 -11.08433,-3.498602 -20.04013,-5.000398 -32.51885,-5.453053 -17.857264,-0.647739 -30.092326,0.784691 -44.428695,5.20154 -29.554641,9.105401 -50.337421,27.871232 -55.235899,49.875325 -1.324102,5.947898 -1.320298,14.275937 0.0095,19.755537 7.11031,29.309664 40.334836,51.353194 82.711082,54.876474 7.537202,0.62667 21.553172,0.12847 29.729202,-1.05672 z M 51.173999,119.90901 c -0.447379,-1.10324 -4.696354,-17.31811 -4.656835,-17.77134 0.01718,-0.19695 0.830721,-0.36308 1.807883,-0.36917 l 1.77666,-0.0105 0.894414,3.3898 c 0.491923,1.8644 1.142112,4.755 1.44484,6.42357 0.30274,1.66857 0.652725,3.03279 0.777741,3.03157 0.125004,-0.001 0.774826,-2.55352 1.444046,-5.67181 0.66922,-3.11829 1.348666,-5.997 1.509895,-6.39714 0.178885,-0.44395 1.047076,-0.75243 2.227404,-0.79142 1.543478,-0.051 1.893807,0.096 1.734047,0.72753 -0.110085,0.43527 -1.205473,4.5902 -2.434124,9.23318 l -2.233909,8.44176 -1.979825,0.29215 c -1.534401,0.22642 -2.054609,0.10769 -2.312237,-0.52761 z m 25.854443,-0.17607 c -2.192233,-1.86459 -2.458594,-3.02569 -2.465455,-10.74707 l -0.0059,-6.93771 1.881163,-0.18883 1.881163,-0.18883 v 6.69315 c 0,7.08417 0.318086,8.35135 2.096333,8.35135 1.612183,0 2.08402,-1.93786 2.08402,-8.55917 v -6.21392 h 1.881163 1.881164 l -0.02358,6.46322 c -0.01292,3.55478 -0.248124,7.28601 -0.522554,8.29161 -1.085056,3.9761 -5.689954,5.58552 -8.687254,3.0362 z m 64.514608,0.0896 c -4.15824,-2.59781 -5.47727,-9.20963 -2.84051,-14.23846 1.31562,-2.50912 3.81343,-4.14125 6.3637,-4.15821 2.77269,-0.0184 3.06495,0.29054 3.06495,3.24043 0,2.59331 -0.006,2.60579 -0.92908,1.79019 -1.86362,-1.64748 -4.49703,-0.64681 -5.53033,2.10147 -0.35595,0.94675 -0.6472,2.12445 -0.6472,2.61711 0,0.49267 0.29125,1.67037 0.6472,2.61711 1.0333,2.74828 3.66671,3.74894 5.53033,2.10146 0.9226,-0.8156 0.92908,-0.8031 0.92908,1.79019 0,1.89466 -0.18151,2.69944 -0.66124,2.93178 -1.36574,0.66145 -4.20729,0.28123 -5.9269,-0.79307 z m -82.445877,0.19 c 0.0047,-0.21764 1.274024,-4.40931 2.821745,-9.31481 l 2.814054,-8.91911 1.394169,-0.0503 c 0.766792,-0.0277 1.549759,0.18716 1.739937,0.47734 0.190166,0.29019 1.508379,4.2077 2.929341,8.70558 1.420974,4.49788 2.680376,8.47474 2.798685,8.83748 0.155019,0.47532 -0.36244,0.65951 -1.852712,0.65951 -1.799979,0 -2.129476,-0.17084 -2.543984,-1.31903 -0.430931,-1.19371 -0.714557,-1.31902 -2.985391,-1.31902 -2.327854,0 -2.528164,0.0953 -2.771513,1.31902 -0.235065,1.18208 -0.47461,1.31903 -2.307165,1.31903 -1.124668,0 -2.041396,-0.17808 -2.037166,-0.39571 z m 8.599243,-6.79495 c -0.143703,-0.47266 -0.478721,-1.94927 -0.74449,-3.28139 l -0.483225,-2.42203 -0.730957,2.62186 c -1.043415,3.74262 -1.007593,3.94089 0.712092,3.94089 1.221542,0 1.458242,-0.16317 1.24658,-0.85933 z m 21.168506,-2.12413 0.114114,-9.31478 1.881163,-2.1e-4 1.881163,-2.3e-4 0.116366,7.20457 0.116365,7.20457 h 2.07838 2.078392 v 2.11044 2.11044 h -4.19001 -4.190011 z m 11.610148,2.19206 v -7.12275 h -1.487168 -1.487168 l 0.128548,-2.24235 c 0.07074,-1.23329 0.269643,-2.18299 0.442082,-2.11044 0.172439,0.0725 2.335766,0.13176 4.807406,0.13161 l 4.49389,-3.1e-4 -0.0417,1.97886 c -0.0398,1.88958 -0.11151,1.98632 -1.58992,2.14428 l -1.5482,0.16543 0.12679,7.09011 0.12679,7.09011 -1.98566,-0.001 -1.98567,-7.2e-4 z m 16.72145,0 v -7.12275 h -1.48717 -1.48716 l 0.12854,-2.24235 c 0.0707,-1.23329 0.26964,-2.18299 0.44208,-2.11044 0.17244,0.0725 2.34075,0.13191 4.81847,0.13191 h 4.50493 l -0.15946,2.11044 c -0.15175,2.00823 -0.2282,2.11044 -1.57868,2.11044 h -1.41922 v 7.12275 7.12274 h -1.88117 -1.88116 z m 9.29167,-2.14496 0.11411,-9.26771 4.18036,-0.0414 4.18036,-0.0414 v 2.05455 2.05455 l -2.40371,0.15823 c -2.23809,0.14732 -2.4037,0.2473 -2.4037,1.45093 0,1.21517 0.13789,1.2927 2.2992,1.2927 h 2.2992 v 2.08286 2.08288 l -2.1947,0.15948 c -2.03601,0.14791 -2.20411,0.2624 -2.32488,1.58311 -0.12682,1.38677 -0.0673,1.42775 2.2992,1.58282 l 2.42939,0.15915 0.12975,1.97854 0.12974,1.97855 h -4.42426 -4.42426 z m 28.92454,8.75652 c -2.20645,-1.12658 -3.98551,-5.73979 -3.29505,-8.54424 0.74427,-3.02294 3.5357,-5.71768 5.92286,-5.71768 1.32632,0 4.11668,2.09559 4.83557,3.63157 1.5786,3.37283 0.4835,8.59619 -2.16458,10.32449 -1.34639,0.87875 -3.88928,1.02552 -5.2988,0.30586 z m 4.54374,-1.64422 c 2.26878,-1.30469 3.12136,-6.02253 1.54535,-8.55127 -0.99724,-1.60012 -3.35776,-2.70678 -4.68981,-2.19871 -1.49972,0.57203 -3.21311,2.91208 -3.48842,4.76427 -0.64757,4.35664 3.28868,7.90881 6.63288,5.98571 z m -3.88259,-5.23115 v -3.69328 h 1.58855 c 0.87369,0 1.81427,0.28491 2.09018,0.63314 0.69115,0.87232 0.62835,2.53653 -0.13597,3.60245 -0.57143,0.79696 -0.57143,0.95851 0,1.55708 0.35069,0.36733 0.63761,0.87622 0.63761,1.13087 0,0.90429 -1.3411,0.44488 -2.11378,-0.72412 l -0.78466,-1.18712 -0.014,1.18712 c -0.008,0.69569 -0.27349,1.18713 -0.64096,1.18713 -0.49767,0 -0.62706,-0.7621 -0.62706,-3.69327 z m 2.71725,-1.05523 c 0,-0.42733 -0.32922,-0.85697 -0.73157,-0.95477 -0.51328,-0.12473 -0.73156,0.16012 -0.73156,0.95477 0,0.79467 0.21828,1.07955 0.73156,0.95478 0.40235,-0.0978 0.73157,-0.52745 0.73157,-0.95478 z m -48.2832,3.2044 -2.71723,-0.30254 -0.005,-1.71474 -0.005,-1.71472 h 2.82579 2.82578 v 2.11044 c 0,1.16074 -0.047,2.06852 -0.10451,2.01727 -0.0575,-0.0511 -1.32727,-0.22931 -2.82175,-0.39571 z M 100.89311,91.137958 C 97.565932,90.166707 95.560536,88.963371 92.881214,86.330476 L 90.512809,84.0031 h -9.606102 c -8.466134,0 -9.92139,-0.125929 -12.262872,-1.061525 -4.804117,-1.919528 -4.941954,-2.669507 -0.863581,-4.698423 1.984873,-0.987433 3.080841,-1.098989 10.796608,-1.098989 h 8.587477 L 86.86884,75.429425 C 86.706331,74.486322 86.413853,73.180493 86.218923,72.527578 L 85.864494,71.340454 H 69.626602 c -17.138455,0 -18.968095,-0.218281 -21.339474,-2.545806 L 47.308627,67.83424 49.959271,66.289775 52.609916,64.74531 69.393421,64.58603 86.176927,64.426734 86.45291,62.57002 c 0.151797,-1.021203 0.379136,-2.195985 0.505218,-2.610667 0.193627,-0.636837 -0.975846,-0.753942 -7.528587,-0.753942 -8.431497,0 -10.94101,-0.436308 -13.43462,-2.335736 l -1.62747,-1.239679 2.272943,-1.509857 2.272942,-1.509857 10.850762,-0.165143 10.850762,-0.165143 1.82426,-2.122301 c 6.65517,-7.742486 17.92334,-7.740377 24.82154,0.0045 l 1.94532,2.184039 h 9.78834 c 10.34014,0 12.71611,0.414398 14.95582,2.608532 l 1.0444,1.023148 -2.50752,1.481725 c -2.45983,1.453533 -2.67495,1.485075 -11.30922,1.657636 l -8.8017,0.175911 0.62401,2.566563 0.62402,2.566551 16.5384,0.159385 16.53841,0.159385 2.65065,1.544465 2.65064,1.544465 -0.9785,0.960407 c -2.37009,2.326255 -4.20519,2.545807 -21.2795,2.545807 h -16.17791 l -0.49136,2.242337 c -0.27026,1.233293 -0.59045,2.539122 -0.71153,2.901862 -0.17199,0.51523 1.65891,0.65951 8.36874,0.65951 7.6184,0 8.84617,0.121442 10.86569,1.075149 3.54043,1.671844 3.65661,2.252731 0.804,4.019605 l -2.42236,1.500376 -10.64528,0.172979 -10.64528,0.172965 -1.56728,1.78708 c -2.14684,2.447935 -5.34199,4.400337 -8.64912,5.285053 -3.28506,0.878823 -4.5132,0.875668 -7.57943,-0.01944 z m 8.33787,-4.974749 c 8.67516,-3.40773 13.13338,-15.573765 9.43908,-25.758305 -2.13905,-5.896989 -5.59881,-9.542562 -10.50691,-11.071234 -6.87241,-2.140457 -14.053119,2.406313 -17.256902,10.926954 -0.924975,2.460047 -1.09111,3.624827 -1.09111,7.650355 0,4.028115 0.167118,5.198339 1.101597,7.713681 3.386449,9.115332 10.912525,13.446064 18.314245,10.538549 z m -8.36743,-8.887135 c -6.466065,-4.133599 -5.892023,-15.750947 0.9567,-19.3617 2.90762,-1.532949 6.16676,-0.729265 8.68445,2.141519 1.56714,1.786927 2.93224,5.43253 2.92716,7.817173 -0.008,3.886004 -2.28212,8.185718 -5.21954,9.869946 -2.40944,1.381491 -4.68331,1.237017 -7.34877,-0.466938 z M 36.28654,55.698898 c -1.15325,-1.570563 -1.234967,-2.193895 -0.539985,-4.119018 0.540791,-1.497997 0.797897,-1.623895 1.501873,-0.735411 0.322813,0.407429 0.350708,0.918232 0.08437,1.546185 -0.283318,0.66814 -0.214115,1.169387 0.240682,1.743394 0.777895,0.981794 1.826168,0.558348 2.25704,-0.911741 0.323868,-1.104957 -0.970727,-8.642607 -1.631961,-9.501927 -0.488557,-0.634908 -1.893593,0.032 -3.369468,1.599428 -1.010317,1.07295 -1.165562,1.491655 -0.773877,2.087304 0.418512,0.636463 0.604543,0.614208 1.275955,-0.152685 0.887459,-1.01365 1.794422,-0.374555 1.384027,0.975274 -0.665381,2.188421 -3.67126,2.035183 -4.332505,-0.220869 -0.694686,-2.370165 0.218238,-3.886602 3.726717,-6.190363 1.812813,-1.19034 3.848664,-2.751152 4.524117,-3.468481 2.437217,-2.588326 3.079692,-0.685862 0.717804,2.125561 l -1.434672,1.707739 1.016586,4.158276 c 0.559111,2.28704 1.01661,4.704271 1.016634,5.371588 8.3e-5,1.840487 -1.06209,4.046825 -2.287459,4.751487 -1.612764,0.92743 -2.236528,0.785947 -3.375938,-0.765741 z M 165.68193,56.1389 c -0.70803,-0.723611 -0.86082,-1.25299 -0.62841,-2.177219 0.28312,-1.125835 0.4728,-1.196367 2.43041,-0.903755 1.99405,0.298071 2.06766,0.268189 1.20914,-0.490747 -0.50279,-0.444489 -0.91417,-1.360568 -0.91417,-2.035722 0,-1.33767 -0.89933,-1.858613 -3.23015,-1.871056 -0.98191,-0.006 -1.53957,-0.374331 -2.04942,-1.356425 -0.66343,-1.277936 -0.65635,-1.42431 0.13411,-2.769966 0.45901,-0.7814 2.0868,-2.577453 3.61732,-3.991219 2.30798,-2.131947 2.88968,-2.458479 3.40955,-1.913935 0.86972,0.911008 0.79061,1.293609 -0.43924,2.124335 l -1.06603,0.720066 1.06603,0.704961 c 1.44058,0.952645 1.3522,2.548574 -0.24544,4.432178 -0.72131,0.850422 -1.20596,1.679412 -1.077,1.842177 0.12896,0.162765 1.38763,-0.357206 2.79704,-1.155507 2.29452,-1.299607 2.62911,-1.367417 3.19894,-0.648248 0.56981,0.719184 0.39257,0.976859 -1.69458,2.46352 -2.23833,1.594343 -2.96267,2.706523 -1.76275,2.706523 0.31252,0 1.63375,-0.717644 2.93609,-1.594762 1.88994,-1.272896 2.53462,-1.482129 3.19411,-1.036668 0.45444,0.30697 0.82626,0.656848 0.82626,0.777527 0,0.120694 -1.22277,1.082463 -2.71725,2.137287 -1.49447,1.054839 -2.71722,2.046744 -2.71722,2.204244 0,0.157501 0.94058,0.12892 2.09018,-0.06356 1.20507,-0.20177 2.09017,-0.14268 2.09017,0.139388 0,0.783779 -1.14822,1.129843 -3.74872,1.129843 -1.33917,0 -2.96274,0.353139 -3.62363,0.788176 -1.54598,1.017614 -1.95251,0.996346 -3.08534,-0.161404 z m 1.86087,-1.626708 c 0.12721,-0.259768 -0.0314,-0.599551 -0.35248,-0.755048 -0.61297,-0.296874 -1.08356,0.04517 -1.08356,0.787712 0,0.589202 1.14428,0.563194 1.43604,-0.0326 z m -2.69016,-8.528193 c 0,-0.27305 -0.18812,-0.496461 -0.41803,-0.496461 -0.22992,0 -0.41803,0.370143 -0.41803,0.822544 0,0.452416 0.18811,0.675827 0.41803,0.496476 0.22991,-0.179351 0.41803,-0.549495 0.41803,-0.822559 z m 2.94696,-2.264218 c -0.64905,-0.819179 -1.86316,0.225909 -2.04255,1.75817 l -0.1407,1.201691 1.3225,-1.188545 c 0.96514,-0.867366 1.19773,-1.346015 0.86075,-1.771316 z M 43.005818,48.679395 c -1.000803,-2.442657 -0.827831,-5.638013 0.388307,-7.172921 1.791436,-2.261002 3.572302,-1.426463 3.572302,1.674043 0,1.187916 -0.316012,2.016548 -1.045085,2.740368 -1.255539,1.246469 -1.350575,2.204693 -0.218654,2.204693 1.380294,0 2.288763,-2.464985 2.517856,-6.831792 0.184514,-3.517297 0.309849,-4.002421 1.069436,-4.139551 0.672384,-0.121442 1.076286,0.426317 1.848114,2.506143 0.543233,1.463823 1.143641,2.661491 1.334269,2.661491 0.62489,0 0.520824,-6.480208 -0.108782,-6.770996 -0.517352,-0.238965 -0.485405,-1.670767 0.03733,-1.670767 0.229923,0 0.418039,-0.568175 0.418039,-1.262592 0,-0.694417 0.297562,-1.406691 0.661245,-1.582827 0.934337,-0.45252 1.010899,-0.416835 1.010899,0.471171 0,0.435276 0.28218,0.791406 0.627058,0.791406 0.709901,0 0.840818,0.826208 0.20902,1.319035 -0.513679,0.400683 -0.545058,6.580293 -0.03851,7.589726 0.520575,1.037445 1.231684,-0.782029 1.566087,-4.007087 0.347141,-3.347832 1.188741,-5.342664 2.418328,-5.73216 1.858459,-0.588709 2.524006,-0.09811 2.660563,1.961495 0.102146,1.540666 -0.0852,2.124245 -0.961556,2.99423 -0.598654,0.594317 -1.314147,1.185433 -1.590012,1.313576 -0.387063,0.179814 -0.384196,0.390169 0.01256,0.921417 0.413346,0.553518 0.703964,0.560188 1.482866,0.0341 1.325927,-0.895619 1.93034,-2.263844 2.409903,-5.455416 0.492693,-3.27893 1.454,-4.810114 2.760137,-4.39636 0.833447,0.264002 0.962563,0.04696 1.20968,-2.032819 0.205974,-1.733583 0.494897,-2.400406 1.130985,-2.610342 0.832985,-0.274934 0.847275,-0.144324 0.572063,5.228356 -0.191186,3.732257 -0.140219,5.510348 0.157934,5.510348 0.412683,0 0.84365,-1.008371 1.447044,-3.385804 0.191387,-0.754061 0.377406,-0.859246 0.730804,-0.413202 0.35341,0.446045 0.277642,1.148119 -0.297656,2.758331 -0.809688,2.266191 -1.841834,3.307121 -3.041986,3.067827 -0.393332,-0.07837 -1.219847,0.281246 -1.836714,0.799273 -0.858889,0.721248 -1.313662,0.812075 -1.941775,0.387821 -0.633327,-0.427798 -0.949267,-0.356758 -1.386645,0.3118 -1.190033,1.819026 -2.915951,2.755025 -4.06413,2.20405 -0.735923,-0.353123 -1.130203,-0.34234 -1.229504,0.03365 -0.388687,1.47172 -1.692786,2.809928 -2.73831,2.809928 -0.703158,0 -1.607858,0.58488 -2.346293,1.516886 -1.199062,1.513357 -2.938312,2.055284 -2.938312,0.915525 0,-0.330734 0.271812,-0.864944 0.604023,-1.187124 0.524391,-0.508545 0.515124,-0.829244 -0.07027,-2.432411 L 49.33418,40.47528 49.051526,43.390169 c -0.325267,3.354337 -0.874602,4.8723 -2.181272,6.027433 -1.534401,1.35644 -3.131121,1.051444 -3.864365,-0.738163 z m 2.219132,-4.742888 c 0.09492,-0.818461 -0.0391,-1.130202 -0.418027,-0.972566 -0.306757,0.127573 -0.620588,0.774057 -0.697411,1.436558 -0.09492,0.818461 0.0391,1.130202 0.418027,0.972567 0.306757,-0.127574 0.620588,-0.774043 0.697411,-1.436559 z m 14.919619,-9.040941 c 0.313263,-1.245691 0.04752,-1.813223 -0.609236,-1.300968 -0.548292,0.427693 -0.594282,2.395949 -0.05605,2.395949 0.214435,0 0.513786,-0.492752 0.665227,-1.094981 z m 6.498882,-0.321372 c 0.553968,-1.838947 0.343029,-3.59595 -0.431702,-3.59595 -0.336286,0 -0.783725,0.758293 -0.99432,1.685095 -0.680608,2.995157 0.587503,4.694415 1.426022,1.910855 z m 89.043129,8.31407 c -0.44293,-0.559037 -1.33213,-1.093246 -1.97598,-1.187124 -0.6505,-0.09482 -1.3607,-0.639544 -1.59837,-1.225905 -0.34471,-0.850437 -0.7716,-1.02379 -2.19958,-0.893285 -1.41048,0.12892 -1.97338,-0.09243 -2.75998,-1.0852 -0.54348,-0.685922 -1.07271,-1.567332 -1.17606,-1.958668 -0.12939,-0.489925 -1.09256,-0.747765 -3.09252,-0.827869 -4.14561,-0.166025 -4.03553,-0.129966 -3.75855,-1.231378 0.20921,-0.831937 0.0681,-0.946663 -0.91242,-0.742007 -3.96214,0.826911 -4.14984,0.806676 -4.98776,-0.537784 -0.75663,-1.214029 -0.89204,-1.25293 -1.9428,-0.558079 -0.84111,0.556225 -1.34261,0.602962 -1.96428,0.183045 -1.06822,-0.721547 -1.05521,-1.798685 0.0489,-4.0536 1.34781,-2.752407 0.57818,-2.759347 -1.62966,-0.01496 -2.05068,2.549292 -3.80411,3.408523 -5.71828,2.802166 -1.10079,-0.348697 -1.47832,-1.371036 -0.50629,-1.371036 0.75353,0 2.21822,-2.047283 2.76301,-3.861986 0.41286,-1.375269 0.37553,-1.474995 -0.49361,-1.319035 -0.69064,0.123985 -1.46622,1.359132 -2.92185,4.653407 -1.0899,2.466585 -2.17206,4.460953 -2.40481,4.431939 -0.23274,-0.02902 -0.72699,-0.08839 -1.09831,-0.131911 -0.62148,-0.07283 -0.62148,-0.182477 0,-1.379606 0.99537,-1.917316 0.86891,-2.129001 -1.27189,-2.129001 -2.13913,0 -2.76849,-0.772517 -1.29433,-1.58878 0.99111,-0.548776 2.69315,-4.291294 2.22204,-4.885895 -0.60995,-0.769825 -1.78385,0.998126 -3.37007,5.075521 -1.35331,3.478666 -1.85149,4.298503 -2.61272,4.299624 -1.1073,0.0015 -1.20063,-0.878075 -0.27089,-2.553389 0.36833,-0.663713 0.56456,-1.339435 0.43606,-1.501602 -0.44483,-0.561429 -1.52383,0.333995 -1.53019,1.26986 -0.0107,1.508123 -0.61694,2.328827 -1.4303,1.934904 -0.57809,-0.279989 -0.6924,-0.751743 -0.5155,-2.12758 0.18189,-1.414648 0.057,-1.882813 -0.62493,-2.343454 -0.70542,-0.476495 -1.04685,-0.340291 -1.98216,0.790673 -1.44473,1.746953 -4.36184,1.947048 -5.04084,0.34578 -0.672561,-1.586102 -0.514721,-3.096886 0.45088,-4.315582 0.7492,-0.945586 1.19049,-1.063858 2.90102,-0.777467 l 2.0174,0.337764 1.75441,-3.727188 c 1.95593,-4.155285 2.86677,-5.080681 4.14856,-4.21487 1.05226,0.710764 1.04729,1.654586 -0.0349,6.633133 -0.47903,2.20378 -0.76236,4.143934 -0.62962,4.311469 0.37573,0.474222 1.92728,-1.518052 2.74075,-3.519285 0.67228,-1.653868 0.91048,-1.818801 2.77834,-1.923792 1.12366,-0.06311 2.27817,0.126826 2.56558,0.422085 0.76614,0.787234 0.63625,2.540079 -0.33763,4.556208 -0.47136,0.975827 -0.76838,1.886118 -0.66003,2.022889 0.24113,0.304308 2.24224,-2.482244 3.16439,-4.406394 0.57397,-1.197668 0.99915,-1.427421 2.86133,-1.546275 1.83059,-0.116806 2.26067,0.03365 2.6379,0.923287 0.35687,0.841613 0.2392,1.60227 -0.56521,3.653724 -0.55874,1.424953 -0.86591,2.590825 -0.68258,2.590825 0.61626,0 3.50966,-4.782969 3.55982,-5.884606 0.0867,-1.905485 1.83153,-2.506308 1.83153,-0.630704 0,0.444922 0.37069,1.40376 0.82377,2.130736 0.81993,1.31558 0.81988,1.331418 -0.008,3.380779 -1.13413,2.805785 -0.15756,2.775903 1.64191,-0.05025 1.63012,-2.560149 3.23993,-3.686478 4.74867,-3.322466 1.99369,0.481026 2.451,2.381068 1.35639,5.635619 -0.60699,1.804728 0.76491,0.653857 2.0208,-1.69522 1.24168,-2.322531 1.41494,-2.453051 2.30773,-1.738802 0.44723,0.357775 0.34154,0.987896 -0.52958,3.157577 -0.59857,1.490834 -0.90033,2.710606 -0.67057,2.710606 0.22975,0 1.30122,-1.068419 2.38102,-2.374247 1.07982,-1.305844 2.21182,-2.374248 2.51557,-2.374248 0.9745,0 0.59294,1.326079 -0.91086,3.165668 -2.5259,3.089903 -1.57182,3.742249 1.23208,0.842421 2.21768,-2.293546 4.15396,-2.674816 5.42663,-1.068539 0.89174,1.125461 0.82553,2.123737 -0.22913,3.454841 -0.7327,0.924768 -1.20295,1.063469 -2.71723,0.801516 -1.39612,-0.241522 -1.83119,-0.144623 -1.83119,0.408087 0,0.398694 0.29755,0.868997 0.66125,1.045133 1.47323,0.713515 3.05123,0.232923 5.01183,-1.526384 2.24824,-2.017415 4.08321,-2.375743 4.7284,-0.923317 0.37419,0.842361 0.51901,0.791825 1.65158,-0.576355 1.21337,-1.465752 2.56331,-1.724609 2.8729,-0.5509 0.0852,0.323122 -1.16896,2.068893 -2.78709,3.879513 -1.61815,1.81062 -2.94207,3.505003 -2.94207,3.765296 0,0.759759 1.40392,0.54595 2.44223,-0.371953 1.00739,-0.890549 1.61228,-0.705903 1.1019,0.336358 -0.3518,0.718421 -2.80707,2.091716 -3.73973,2.091716 -0.35226,0 -1.00288,-0.457396 -1.44582,-1.016433 z m 0.95798,-3.770351 c 1.15796,-1.149584 1.47448,-2.599767 0.56743,-2.599767 -0.76454,0 -2.31097,1.460592 -2.82172,2.66511 -0.36106,0.851498 -0.29947,1.028172 0.35842,1.028172 0.43693,0 1.29007,-0.492078 1.89587,-1.093515 z m -5.59922,-4.689599 c 0.33822,-0.269954 0.49349,-0.644135 0.34504,-0.831503 -0.36551,-0.461314 -2.00507,0.230829 -2.00507,0.846459 0,0.627788 0.86454,0.620011 1.66003,-0.01496 z m -13.36505,-6.061967 c 0,-1.755119 -1.59987,-0.379042 -2.7103,2.33119 -0.33035,0.806272 -0.48443,1.612634 -0.34237,1.79191 0.37225,0.469839 3.05267,-3.150489 3.05267,-4.1231 z m -33.91575,-0.998022 c 0.25609,-0.389436 0.34182,-0.864286 0.19053,-1.055228 -0.42566,-0.537215 -2.14591,-0.409731 -2.43492,0.180458 -0.69026,1.409623 1.36575,2.210974 2.24439,0.87477 z m 5.58976,-4.153356 c 0.38281,-1.803217 0.63366,-3.357283 0.55744,-3.45348 -0.28626,-0.361289 -2.76475,5.743616 -2.52804,6.226976 0.6142,1.254291 1.32916,0.248043 1.9706,-2.773496 z M 74.768298,34.211423 c -0.608869,-0.561922 -0.707223,-1.256339 -0.554751,-3.916873 0.237435,-4.142917 1.155088,-5.612483 3.238243,-5.185836 0.792849,0.162391 1.671835,0.05399 1.953305,-0.24079 0.812366,-0.85093 0.949445,0.07792 0.497421,3.37064 -0.231345,1.685215 -0.29063,3.228109 -0.131747,3.428638 0.479824,0.605594 1.481906,-1.565209 2.182848,-4.728724 0.704782,-3.180894 0.895742,-3.332741 4.726253,-3.758296 1.165942,-0.129518 1.265196,0.580767 0.665819,4.764304 -0.477454,3.332442 0.331464,2.808582 1.845424,-1.195125 1.468777,-3.884225 2.825572,-5.389775 4.088481,-4.536721 0.703241,0.475014 0.863392,0.289352 1.285957,-1.490728 0.470119,-1.98037 1.556347,-3.123837 2.177018,-2.291721 0.16943,0.22715 -0.239746,2.646893 -0.909262,5.377181 -0.669528,2.730303 -1.107309,5.10304 -0.97286,5.272745 0.134472,0.169704 0.779874,-0.519403 1.434258,-1.531349 1.382379,-2.13772 2.090869,-1.848877 1.029159,0.419573 -1.053831,2.251594 -2.862461,3.484349 -3.992367,2.721134 -0.642831,-0.434214 -1.015319,-0.440824 -1.345645,-0.02393 -0.606771,0.765816 -2.267504,0.737595 -2.473407,-0.04203 -0.107122,-0.405634 -0.605444,-0.206003 -1.447826,0.580049 -1.059731,0.988869 -1.439519,1.093829 -2.170678,0.599956 -0.977033,-0.659959 -1.003659,-0.876759 -0.506108,-4.122846 0.255708,-1.668285 0.210643,-2.242352 -0.176029,-2.242352 -0.788371,0 -1.317312,1.096417 -1.649807,3.419755 -0.534973,3.738329 -1.197463,4.352015 -5.033826,4.663067 -0.689768,0.05593 -1.651395,0.387807 -2.136954,0.73749 -0.696842,0.501845 -1.038746,0.4919 -1.622919,-0.04726 z m 3.132814,-5.665875 c 0,-1.82239 -0.548849,-1.956515 -1.439424,-0.351762 -0.687137,1.238153 -0.859268,3.136849 -0.343397,3.787923 0.511001,0.644943 1.782821,-1.806327 1.782821,-3.436161 z M 92.501427,28.38727 c 0.686248,-1.043637 1.092188,-4.53177 0.527389,-4.53177 -0.727426,0 -1.750542,2.227172 -1.750542,3.810672 0,1.604797 0.462689,1.877562 1.223153,0.721098 z"
       style="fill:#000000;stroke-width:0.46963853" />
  </g>
</svg>
