<?xml version="1.0" encoding="UTF-8" standalone="no"?>
<svg
   xmlns:dc="http://purl.org/dc/elements/1.1/"
   xmlns:cc="http://creativecommons.org/ns#"
   xmlns:rdf="http://www.w3.org/1999/02/22-rdf-syntax-ns#"
   xmlns:svg="http://www.w3.org/2000/svg"
   xmlns="http://www.w3.org/2000/svg"
   id="svg113"
   version="1.1"
   viewBox="0 0 210 297"
   height="297mm"
   width="210mm">
  <defs
     id="defs107" />
  <metadata
     id="metadata110">
    <rdf:RDF>
      <cc:Work
         rdf:about="">
        <dc:format>image/svg+xml</dc:format>
        <dc:type
           rdf:resource="http://purl.org/dc/dcmitype/StillImage" />
        <dc:title></dc:title>
      </cc:Work>
    </rdf:RDF>
  </metadata>
  <g
     id="layer1">
    <path
       id="path126"
       d="m 12.880471,191.04047 c 0.137872,-0.64879 0.490726,-2.86124 0.784116,-4.91655 0.29339,-2.05533 2.269313,-8.89701 4.390931,-15.20373 2.121611,-6.30674 4.573125,-13.826 5.447814,-16.70946 3.000125,-9.89019 7.3308,-17.31561 14.648161,-25.11591 2.338521,-2.49287 6.149508,-5.97914 8.468866,-7.74727 5.287839,-4.03116 16.380117,-9.54931 21.510703,-10.70108 2.232675,-0.50122 3.948711,-1.17685 4.117692,-1.6212 0.166981,-0.43909 -0.470529,-1.5791 -1.504733,-2.69087 -0.986958,-1.06095 -3.704736,-4.52412 -6.039509,-7.69594 -2.334781,-3.17181 -4.825655,-6.18608 -5.535274,-6.69839 -0.709628,-0.51231 -1.88308,-1.95224 -2.607679,-3.19986 -1.224524,-2.10842 -1.328815,-2.81921 -1.47864,-10.078153 -0.09371,-4.540242 -0.519144,-9.565569 -1.016231,-12.003861 -0.495431,-2.430217 -0.862657,-6.753919 -0.873164,-10.280627 -0.01734,-5.827677 0.05203,-6.223787 1.631981,-9.31497 1.993911,-3.901109 6.361558,-9.100027 10.467467,-12.459654 1.663883,-1.361468 3.509587,-3.435037 4.101562,-4.607937 1.774745,-3.516357 3.378177,-5.293448 6.149368,-6.815374 2.279579,-1.251945 3.183556,-1.438224 6.790107,-1.399278 2.750208,0.02974 4.66865,-0.220237 5.659762,-0.737405 1.777459,-0.92748 7.360274,-1.042298 8.988842,-0.184857 0.624173,0.328623 2.250369,1.64031 3.613767,2.914857 3.74183,3.497944 4.91919,3.827374 13.67879,3.827374 h 7.61832 l -0.2951,-1.834934 c -0.46801,-2.910069 1.21498,-2.404973 3.91059,1.173646 2.16499,2.874196 2.50035,3.093795 7.50783,4.916157 6.83113,2.48604 11.15333,4.845919 14.45894,7.894421 2.24999,2.074982 3.12221,2.529481 5.45315,2.84149 2.40408,0.321798 3.07879,0.693494 5.05065,2.78244 2.40993,2.553051 18.63484,26.278514 21.00917,30.721452 2.24689,4.204473 5.67508,13.963553 5.7213,16.286953 0.0623,3.12767 -1.33916,7.45666 -4.7838,14.77767 -3.337,7.09224 -5.9046,11.02271 -11.8962,18.21059 -6.23539,7.48037 -10.77837,12.13373 -16.91727,17.32838 -3.14334,2.65986 -6.58419,5.63047 -7.64631,6.60133 l -1.93115,1.76521 -0.35291,20.57747 -0.35293,20.57747 h -1.94572 -1.94574 l -0.33342,-19.26681 c -0.18339,-10.59674 -0.3842,-20.63872 -0.44627,-22.31555 l -0.11281,-3.04876 2.85758,-1.5936 c 3.62392,-2.02097 7.58635,-4.86008 9.68837,-6.9418 0.89935,-0.89063 2.85731,-2.56303 4.35102,-3.71642 1.49374,-1.15338 3.79537,-3.39463 5.11479,-4.98053 1.31939,-1.58592 4.40927,-5.12472 6.86639,-7.864 2.45711,-2.73929 5.43759,-6.32365 6.62329,-7.96522 2.44958,-3.39135 7.4586,-13.36496 8.95137,-17.82331 0.99537,-2.97281 0.99508,-2.99146 -0.0847,-5.5048 -0.59588,-1.38703 -1.75948,-4.35776 -2.58578,-6.60161 -1.75355,-4.76178 -8.14566,-17.918984 -9.91162,-20.401558 -0.66914,-0.940667 -1.45042,-2.103469 -1.73616,-2.584035 -2.89764,-4.872908 -11.80044,-15.662412 -12.92362,-15.662412 -0.35151,0 -0.585,0.993907 -0.585,2.490274 0,6.074657 -5.14992,12.078436 -11.56024,13.476923 -0.92871,0.202616 -1.68857,0.592294 -1.68857,0.86594 0,0.662318 2.59141,5.678316 5.11696,9.904465 2.64588,4.427522 7.61255,14.048703 8.11916,15.727993 0.21745,0.72087 0.74679,1.71475 1.17628,2.20861 1.46826,1.68832 0.46622,2.55464 -2.57843,2.22926 l -2.74165,-0.29299 -3.63692,3.46848 c -2.00032,1.90766 -5.55881,5.10952 -7.90777,7.11522 -3.94639,3.36972 -4.24732,3.7652 -3.96165,5.20654 0.26314,1.32758 0.14935,1.55982 -0.76424,1.55982 -0.59037,0 -1.19372,0.19645 -1.34076,0.43653 -0.14713,0.24008 -2.61578,0.7385 -5.48607,1.10761 l -5.21869,0.67109 v 1.65219 c 0,3.41345 -2.7912,9.19966 -6.22245,12.89923 l -1.69268,1.82503 0.86692,5.77683 c 0.4768,3.17726 1.2627,8.01807 1.74643,10.75737 0.71965,4.07521 0.88007,8.45884 0.88251,24.11626 0.003,20.56334 -0.19751,23.06774 -1.84891,23.06774 -0.79784,0 -0.96498,-0.26186 -0.75295,-1.1796 1.76546,-7.64119 0.86642,-44.37204 -1.26076,-51.50921 -0.25781,-0.86503 -0.61964,-2.98831 -0.80404,-4.7184 -0.18441,-1.73008 -0.58508,-3.86928 -0.89039,-4.75378 -0.525,-1.52101 -0.41579,-1.74874 2.01428,-4.20082 2.967,-2.99385 5.37827,-7.59133 5.75625,-10.97517 l 0.26268,-2.35157 h -2.68168 c -2.10023,0 -2.74281,0.19893 -2.96356,0.91747 -0.65638,2.13638 -1.80193,3.65727 -4.17625,5.54456 -5.92492,4.70957 -11.805943,6.03138 -21.289975,4.78507 -1.851824,-0.24336 -6.705134,-2.77318 -7.471231,-3.89444 -0.142873,-0.20912 -0.785073,-0.65933 -1.427094,-1.0005 -0.642029,-0.34115 -1.640435,-1.55607 -2.2187,-2.69982 -0.903253,-1.78656 -1.292092,-2.07953 -2.759977,-2.07953 -4.129497,0 -4.504173,3.0075 -1.028627,8.2567 2.034367,3.07256 6.785704,7.3167 9.814853,8.76714 0.941501,0.45081 1.834854,1.22838 1.98524,1.72792 1.219749,4.05171 2.484893,11.88051 2.963503,18.33829 0.65021,8.77319 0.800261,34.11272 0.226632,38.27328 -0.343584,2.49212 -0.503473,2.75241 -1.690668,2.75241 h -1.311182 l 0.450713,-4.06307 c 0.69349,-6.25164 0.555167,-33.75058 -0.195804,-38.9268 -0.355591,-2.45095 -0.877379,-6.18393 -1.159539,-8.29553 -0.752082,-5.62838 -1.51457,-7.82875 -2.828143,-8.16143 -2.019155,-0.51136 -6.8171,-4.10733 -8.379679,-6.28041 -2.039274,-2.836 -4.391429,-7.944 -4.391429,-9.53653 0,-0.97929 -0.275705,-1.27917 -1.175988,-1.27917 -1.350871,0 -12.1656,5.42732 -16.202589,8.13118 -6.659886,4.46061 -18.789743,19.41461 -22.91676,28.25237 -2.039415,4.3673 -3.028729,7.43943 -5.250765,16.30525 -0.433604,1.73008 -1.258596,4.56112 -1.833307,6.2912 -0.574711,1.73008 -1.239511,4.32521 -1.477334,5.76694 -0.237831,1.44172 -0.798683,3.98937 -1.246355,5.66144 -0.447664,1.67205 -0.813933,3.73637 -0.813933,4.58733 0,1.4568 -0.122038,1.54723 -2.088146,1.54723 -1.893384,0 -2.064768,-0.10997 -1.837475,-1.1796 z m 85.496782,-69.82049 c 3.926937,-0.97706 4.546127,-1.25206 7.657387,-3.40098 4.15157,-2.86745 3.66439,-3.5429 -0.98139,-1.36059 -3.52345,1.65511 -6.675997,1.78131 -6.675997,0.26726 0,-0.71231 0.346376,-1.04854 1.08016,-1.04854 2.463377,0 17.208247,-9.14787 17.882757,-11.09466 0.16607,-0.4793 1.00236,-1.76079 1.8584,-2.84776 0.85607,-1.08695 2.42498,-3.74774 3.4865,-5.91283 1.88384,-3.84231 1.9343,-4.10046 2.10744,-10.78319 0.16566,-6.392832 -0.64024,-14.448494 -1.44542,-14.448494 -0.18793,0 -0.62929,0.802557 -0.98082,1.783446 -0.63165,1.762659 -1.96397,3.315009 -2.43618,2.838516 -0.13403,-0.135236 0.22234,-1.21907 0.79189,-2.408585 0.56955,-1.189492 1.03554,-2.716743 1.03554,-3.39387 0,-0.677119 0.25863,-1.492099 0.57473,-1.811063 0.41994,-0.423737 0.4035,-1.616932 -0.061,-4.430066 -0.75805,-4.590754 -1.25692,-5.685055 -2.59177,-5.685055 -0.97573,0 -0.973,0.06617 0.10266,2.490274 1.61866,3.647943 1.52723,9.688738 -0.19369,12.796344 -1.17701,2.125432 -1.39342,2.268031 -3.26499,2.151307 -2.45114,-0.152873 -3.50762,-1.067189 -5.20531,-4.504885 -1.74189,-3.527167 -1.88505,-10.212223 -0.27135,-12.670905 0.56776,-0.865034 1.03382,-1.850934 1.03571,-2.190884 0.002,-0.33995 -1.73585,-1.711939 -3.86162,-3.04887 -2.61804,-1.646543 -3.91716,-2.800293 -4.0266,-3.576045 -0.15349,-1.088099 -0.48572,-1.160843 -6.656082,-1.457474 -7.05434,-0.339128 -11.023427,-1.288979 -14.172149,-3.391572 -2.908807,-1.94239 -6.437423,-2.232789 -9.421092,-0.775345 -4.395878,2.14728 -5.85954,5.738179 -3.928872,9.638966 1.443877,2.917269 1.108094,4.231822 -0.963666,3.772674 -1.535296,-0.340258 -4.258262,1.218563 -9.312329,5.331065 -1.922588,1.564415 -2.903643,3.299355 -1.865675,3.299355 0.404353,0 5.419504,-3.737686 7.858716,-5.85694 1.719839,-1.494254 3.922129,-1.947861 4.542149,-0.935565 0.491519,0.802519 -0.748443,2.073661 -2.026039,2.077004 -1.347114,0.0031 -9.678163,6.599371 -9.678163,7.662372 0,0.962873 0.634967,0.587735 5.450644,-3.220302 3.833431,-3.031304 5.979711,-3.67995 5.979711,-1.807185 0,0.585755 -0.409152,1.192773 -0.909234,1.348943 -3.463149,1.081536 -8.232661,4.520851 -7.631182,5.502886 0.45723,0.746519 3.565216,0.548184 4.67429,-0.298276 1.294767,-0.988175 3.346563,-1.029841 3.346563,-0.06793 0,0.404317 -0.701407,0.981849 -1.558683,1.283407 -1.788922,0.629265 -1.878654,0.957089 -0.719216,2.627415 1.25092,1.802097 0.320719,2.245154 -2.908861,1.385499 -3.641439,-0.9693 -4.807791,-0.633138 -6.147261,1.771712 -1.718805,3.085896 -1.949061,5.812253 -0.699579,8.283606 1.30875,2.58858 4.402387,5.40574 5.946837,5.41534 2.636873,0.0164 3.371434,0.58749 4.46514,3.4714 1.949162,5.1396 7.647351,12.56806 12.641006,16.47946 1.631398,1.27782 2.975759,2.73617 2.987479,3.24079 0.02574,1.10988 -0.919803,1.1572 -2.286142,0.11442 -1.494646,-1.14074 -2.368611,-0.94094 -2.368611,0.54148 0,0.98296 0.79264,1.93452 3.166174,3.80094 1.741389,1.36934 3.90407,2.76667 4.80594,3.10516 2.234518,0.83868 8.296938,0.81131 11.771224,-0.053 z m -0.521267,-16.45753 c -1.942877,-1.60113 -0.793518,-2.31885 4.001014,-2.49844 4.60566,-0.17253 5.87236,0.0656 5.87236,1.10353 0,0.79495 -2.5822,1.69007 -6.23644,2.16186 -1.876784,0.2423 -2.596405,0.0905 -3.636934,-0.76695 z m 1.665821,-5.58678 c -3.458624,-1.08951 -5.372944,-2.12711 -9.687972,-5.25103 -2.194062,-1.58843 -4.208792,-2.88805 -4.477187,-2.88805 -0.268394,0 -0.487996,0.57588 -0.487996,1.27973 0,0.70384 -0.244045,1.43192 -0.542319,1.61793 -0.812106,0.50645 -2.05549,-0.76673 -2.05549,-2.10475 0,-0.64668 -0.483711,-1.79627 -1.074909,-2.55468 -1.177831,-1.51093 -0.966714,-3.48088 0.373043,-3.48088 0.43274,0 2.183034,-0.82573 3.889536,-1.834954 1.706509,-1.009199 3.440922,-1.834926 3.85425,-1.834926 0.868731,0 0.997628,1.114742 0.219664,1.899755 -0.863062,0.870875 0.937986,2.090485 5.207898,3.526635 5.512155,1.85396 10.139295,2.5955 13.847265,2.21912 4.06694,-0.41281 6.2972,-1.19994 6.96444,-2.45799 0.76337,-1.43927 1.09901,-1.27535 3.19826,1.56196 1.85502,2.50725 1.87711,2.59362 1.17283,4.58734 -0.39479,1.11759 -0.72806,2.45224 -0.7406,2.96591 -0.0316,1.29833 -1.49572,1.7365 -2.48083,0.74249 -0.7453,-0.75205 -1.03945,-0.71332 -3.27871,0.43167 -2.3527,1.203 -7.61623,2.3751 -10.36968,2.30914 -0.71439,-0.0171 -2.30356,-0.3476 -3.531493,-0.73442 z m 7.688003,-3.41426 c 5.02228,-1.36112 6.59535,-1.91343 7.70169,-2.70408 1.88922,-1.35018 0.52538,-1.57091 -2.6807,-0.43386 -6.81616,2.41739 -15.756645,0.59394 -23.56299,-4.80574 -4.203659,-2.90769 -2.780742,0.0869 1.718455,3.61664 3.806608,2.98633 8.38076,4.84558 11.887705,4.83197 1.71454,-0.008 3.93567,-0.23387 4.93584,-0.50493 z m -3.76683,-11.22156 c -0.97247,-0.744887 -1.24709,-2.41579 -0.39704,-2.41579 0.2817,0 1.14244,-0.960993 1.91275,-2.135561 l 1.40058,-2.135569 -1.13343,-4.360588 c -0.62338,-2.398311 -1.13341,-4.844228 -1.13341,-5.435352 0,-2.746914 2.7132,-1.46519 3.6137,1.707118 0.3336,1.175214 1.31624,3.561598 2.18364,5.303069 l 1.57709,3.166302 -1.91644,3.518086 c -1.74435,3.202215 -2.06375,3.516595 -3.55732,3.501425 -0.90248,-0.009 -2.05004,-0.33008 -2.55012,-0.71314 z M 83.891361,73.050346 c -2.3824,-3.889721 -3.109424,-11.634817 -1.092143,-11.634817 0.584043,0 0.731473,0.531462 0.609163,2.195818 -0.165193,2.247873 0.938328,6.328773 2.272035,8.402141 0.410809,0.638626 0.746918,1.523333 0.746918,1.96599 0,1.397818 -1.432125,0.873118 -2.535973,-0.929132 z m 3.872332,-1.064038 C 87.061851,71.278112 86.12133,69.427263 85.673642,67.873332 84.697556,64.48531 84.524299,58.588118 85.354844,57.022189 c 0.484605,-0.91371 0.445992,-1.185788 -0.204008,-1.437456 -1.343786,-0.520334 -0.902865,-2.032509 1.152042,-3.950991 2.686919,-2.508556 5.104331,-3.325975 6.705429,-2.267401 1.331094,0.880073 1.480624,1.345684 0.688754,2.144722 -0.351905,0.355096 -0.05716,1.636421 0.898361,3.905797 1.192063,2.831085 1.423719,4.140481 1.432297,8.095738 0.0096,4.392579 -0.09846,4.881306 -1.563706,7.077598 -1.328831,1.991787 -1.873763,2.384463 -3.499102,2.521466 -1.485532,0.125277 -2.216538,-0.131816 -3.201218,-1.125354 z m 4.620815,-9.261766 c -0.01734,-3.005344 -0.399167,-4.208638 -1.10853,-3.49285 -0.505339,0.509914 -0.876617,5.923114 -0.478119,6.970983 0.67075,1.763781 1.605018,-0.284259 1.586649,-3.478133 z m 33.176032,46.310268 c 2.88914,-0.818 3.62003,-1.39375 11.14758,-8.78147 9.03783,-8.86996 10.50792,-10.82153 10.50792,-13.94942 0,-2.238869 -2.42867,-7.318558 -6.25965,-13.092394 -2.89588,-4.364493 -6.20983,-11.320634 -6.20983,-13.034732 0,-1.793967 -1.79062,-3.225036 -4.00833,-3.203442 -1.26996,0.01191 -1.62271,0.413409 -2.88224,3.276662 -1.65519,3.762761 -1.78508,6.238488 -0.64316,12.260055 1.36077,7.175682 0.8248,15.766191 -1.34335,21.530761 -0.93085,2.47493 -5.0574,9.21218 -6.96854,11.37727 -1.0007,1.13367 -1.81947,2.60818 -1.81947,3.27666 0,1.11477 0.22309,1.21543 2.69363,1.21543 1.48147,0 4.08493,-0.39392 5.78544,-0.87538 z m -9.14986,-45.492703 c -0.39184,-1.137166 -1.01714,-2.170058 -1.38958,-2.295327 -1.05355,-0.354359 -0.4188,5.25122 0.80025,7.066988 l 1.00035,1.490017 0.15069,-2.097059 c 0.0829,-1.153388 -0.1699,-3.02746 -0.56171,-4.164619 z M 61.401695,58.454933 c 3.685224,-2.726003 4.275722,-3.368241 3.967625,-4.315163 -1.411828,-4.339233 -0.318433,-9.099467 2.711922,-11.806627 3.380191,-3.019699 4.52014,-3.373575 9.616826,-2.985341 2.51503,0.191589 4.573444,0.162909 4.574276,-0.06378 7.78e-4,-0.226616 0.70941,-0.88387 1.574656,-1.460564 0.865239,-0.576702 2.017795,-1.801759 2.561226,-2.722361 0.887754,-1.503898 1.31218,-1.710825 4.180616,-2.038288 2.68142,-0.306129 3.265339,-0.557636 3.647147,-1.57097 0.5723,-1.518875 2.024716,-2.316506 4.237,-2.326819 3.291531,-0.01529 3.470341,-0.706436 0.918902,-3.551415 -1.272448,-1.418835 -2.850597,-2.849828 -3.506998,-3.179996 -1.529518,-0.769312 -4.533959,-0.770857 -5.95575,-0.0031 -1.095339,0.591519 -1.09138,0.608955 0.413166,1.819496 1.093022,0.879435 1.36081,1.381963 0.954784,1.791668 -0.406026,0.409705 -1.641695,0.175328 -4.405607,-0.835601 -6.360422,-2.326381 -8.668294,-2.094655 -12.0209,1.206974 -2.243858,2.20972 -3.510535,4.441063 -3.510535,6.184034 0,0.641261 -0.350707,1.459626 -0.779341,1.818588 -0.428641,0.358955 -0.779341,0.977646 -0.779341,1.374856 0,0.397209 -0.382967,0.722205 -0.85103,0.722205 -0.468072,0 -2.806437,1.977555 -5.196365,4.394562 -5.802487,5.868237 -7.127927,8.681823 -7.376475,15.658639 -0.100161,2.811381 0.01517,5.107077 0.256255,5.101567 0.241097,-0.0061 2.386669,-1.45125 4.767941,-3.212702 z m 65.663915,-0.543342 c -0.69973,-0.706075 -1.2561,0.259921 -0.81609,1.416952 0.3186,0.837792 0.36855,0.8376 0.83487,-0.0031 0.31852,-0.574312 0.3118,-1.080183 -0.0187,-1.41374 z m 16.21461,0.576195 c 2.8106,-0.849596 5.81211,-4.621117 6.72268,-8.447316 0.24103,-1.012811 0.005,-1.906501 -0.8355,-3.149825 -5.33358,-7.899423 -9.57748,-10.521498 -22.9936,-14.20652 -6.00563,-1.649578 -7.359,-1.841481 -12.2097,-1.731343 -10.2986,0.233839 -13.66205,1.119199 -11.98733,3.155396 0.85031,1.03383 7.3378,2.404051 11.40162,2.40814 2.54221,0.0031 3.84705,0.272001 4.98612,1.029633 0.90856,0.604313 2.00664,0.908729 2.67102,0.740472 0.62051,-0.157146 1.2844,-0.03059 1.47531,0.281023 0.19093,0.311709 0.88921,0.566743 1.55176,0.566743 0.66254,0 1.49567,0.35389 1.85142,0.786404 0.35573,0.43252 1.18608,0.786403 1.84521,0.786403 0.99777,0 1.33234,0.460831 1.9983,2.752401 0.59147,2.035237 1.31178,3.162205 2.76457,4.3252 1.79354,1.435795 2.39462,1.595623 6.90052,1.834934 4.47786,0.237804 4.93584,0.358032 4.93584,1.295741 0,0.741032 -0.63943,1.271926 -2.25895,1.875601 -1.62713,0.606496 -2.5714,1.393706 -3.37611,2.814501 l -1.11715,1.972514 1.25359,1.024285 c 0.72033,0.58856 1.60396,0.879796 2.0772,0.684619 0.45298,-0.186816 1.50742,-0.546363 2.34318,-0.799006 z m -13.09698,-5.495411 1.41162,-0.302956 -1.34739,-2.153736 c -0.74107,-1.184542 -1.67168,-2.936919 -2.06805,-3.894139 -0.79734,-1.925583 -2.02356,-2.286682 -2.5103,-0.739219 -0.45775,1.455315 -1.38113,2.079462 -5.05012,3.413535 l -3.27776,1.191797 -2.94464,-1.001861 c -2.55743,-0.870129 -4.06401,-2.163556 -3.35429,-2.879706 0.12107,-0.122164 2.18228,-0.292927 4.5806,-0.379573 4.72431,-0.170678 7.6933,-1.252668 7.6933,-2.803681 0,-1.159759 -2.46798,-2.274309 -4.15648,-1.877092 -5.8549,1.377361 -11.91424,3.752578 -11.93652,4.679036 -0.0184,0.765425 2.51087,3.086934 4.40287,4.04118 3.69543,1.863821 14.88158,3.495239 18.55716,2.706415 z M 104.22231,43.89297 c 1.07161,-0.02213 1.94836,-0.276305 1.94836,-0.564652 0,-0.314414 -2.07174,-0.524254 -5.17612,-0.524254 -5.315765,0 -9.972595,-1.162195 -12.079942,-3.01475 -1.111399,-0.977016 -2.487274,-0.499739 -2.487274,0.862836 0,0.628013 0.655593,1.368539 1.688576,1.907378 1.77973,0.928341 8.566134,1.786259 12.07981,1.527106 1.14304,-0.08426 2.955,-0.171462 4.02659,-0.193664 z m 5.19562,-3.522474 c 2.74708,-0.45818 2.42311,-1.179878 -0.51956,-1.157454 -2.93604,0.02244 -8.36527,-1.322937 -11.173956,-2.768784 -2.183773,-1.124172 -6.12914,-1.182514 -6.483013,-0.09586 -0.777023,2.386053 11.584899,5.121509 18.176529,4.022114 z M 46.613912,191.30259 c 0.144553,-0.50459 0.7424,-3.20231 1.328543,-5.99493 1.530778,-7.29318 2.855962,-10.48355 5.54988,-13.36132 1.869664,-1.99726 2.433168,-2.34511 2.807922,-1.73326 0.469837,0.76711 0.178375,2.93643 -0.526648,3.91978 -0.206738,0.28835 -0.901332,2.29368 -1.543548,4.45627 -1.155635,3.89149 -1.205245,6.9732 -0.194349,12.07345 l 0.308703,1.55749 h -3.996672 c -3.560106,0 -3.96796,-0.10016 -3.733831,-0.91748 z M 163.45234,45.536631 c -1.51484,-0.23865 -1.50661,-1.580477 0.0132,-2.163549 2.0454,-0.784713 14.48446,-3.19087 16.43592,-3.179297 1.68279,0.01038 1.5094,0.140439 -1.77156,1.333489 -8.56123,3.112984 -12.87965,4.292617 -14.67761,4.009357 z m -12.79479,-9.830025 c -0.16865,-0.443425 -0.0183,-0.907369 0.33408,-1.030986 6.77058,-2.374979 20.41598,-6.041189 22.35321,-6.00577 1.11394,0.02036 1.10945,0.04219 -0.15071,0.729798 -2.07574,1.132709 -19.78881,7.113204 -21.06798,7.113204 -0.63909,0 -1.29997,-0.362805 -1.4686,-0.806246 z m -8.11756,-8.46781 c 0,-0.27025 1.69508,-1.149877 3.76683,-1.954724 2.07174,-0.804847 7.40744,-3.090099 11.85708,-5.078351 7.54702,-3.372253 10.88929,-4.388561 10.07837,-3.064571 -0.18543,0.302725 -2.245,1.447983 -4.57682,2.544997 -2.33184,1.097013 -6.77606,3.250019 -9.87601,4.784441 -4.05116,2.005274 -6.42562,2.855922 -8.44287,3.024725 -1.56495,0.130925 -2.80658,0.01752 -2.80658,-0.256517 z"
       style="fill:#000000;stroke-width:0.52190882" />
  </g>
</svg>
