<?xml version="1.0" encoding="UTF-8" standalone="no"?>
<svg
   xmlns:dc="http://purl.org/dc/elements/1.1/"
   xmlns:cc="http://creativecommons.org/ns#"
   xmlns:rdf="http://www.w3.org/1999/02/22-rdf-syntax-ns#"
   xmlns:svg="http://www.w3.org/2000/svg"
   xmlns="http://www.w3.org/2000/svg"
   id="svg8"
   version="1.1"
   viewBox="0 0 210 297"
   height="297mm"
   width="210mm">
  <defs
     id="defs2" />
  <metadata
     id="metadata5">
    <rdf:RDF>
      <cc:Work
         rdf:about="">
        <dc:format>image/svg+xml</dc:format>
        <dc:type
           rdf:resource="http://purl.org/dc/dcmitype/StillImage" />
        <dc:title></dc:title>
      </cc:Work>
    </rdf:RDF>
  </metadata>
  <g
     id="layer1">
    <path
       id="path21"
       d="m 66.096825,136.59823 c -3.458972,-0.68009 -6.926506,-3.83929 -9.014273,-8.21274 -0.661773,-1.38628 -1.277888,-2.75863 -1.369145,-3.04968 -0.103343,-0.32957 -1.878619,-1.03749 -4.706726,-1.87687 -4.205129,-1.24808 -8.119949,-2.51235 -32.458249,-10.48217 l -8.8674495,-2.90374 -0.217458,-1.45263 c -0.119602,-0.79895 -0.32082,-3.63521 -0.4471508,-6.3028 l -0.229693,-4.850161 1.0811308,-0.37688 c 0.9973915,-0.34769 1.0573855,-0.45968 0.7745595,-1.44584 -0.168615,-0.58792 -0.483998,-1.28274 -0.7008525,-1.54403 -1.3521098,-1.62919 -2.3022108,-12.29541 -2.0098598,-22.56349 0.144534,-5.07639 0.292249,-6.32222 0.962044,-8.11388 1.2073573,-3.22962 3.4845263,-5.35585 6.8805113,-6.42444 1.634026,-0.51416 6.7967,-0.60275 8.020101,-0.13761 0.718277,0.27309 1.051659,0.0935 2.401095,-1.29319 2.087252,-2.14493 4.741975,-3.32989 7.903953,-3.52801 1.368807,-0.0858 3.038996,-0.0115 3.711531,0.16493 0.943776,0.24766 1.519558,0.17749 2.523379,-0.3075 2.534844,-1.22471 6.757206,-2.18534 9.710549,-2.20925 2.095288,-0.017 3.050589,-0.17563 3.527778,-0.5859 1.392502,-1.19726 3.794209,-1.81316 7.709947,-1.97716 2.795965,-0.11711 4.338536,-0.0195 5.519159,0.34919 l 1.638604,0.51173 -0.492076,-1.17771 c -0.596671,-1.42804 -0.63282,-3.498223 -0.08934,-5.116473 0.761601,-2.26773 2.419491,-3.33116 2.419491,-1.55195 0,1.41045 1.163101,2.29306 3.021803,2.29306 2.166164,0 2.815022,-0.41759 3.677126,-2.36652 1.054821,-2.3846 2.385921,-3.98298 3.813791,-4.57958 1.54897,-0.6472 4.60525,-0.70341 5.72292,-0.10525 0.74196,0.39709 0.90123,0.35853 1.38538,-0.33536 1.45493,-2.08525 2.3474,-2.80231 3.72203,-2.99046 0.77612,-0.10623 2.04612,-0.42723 2.82223,-0.71333 0.7761,-0.28611 1.69419,-0.52717 2.04019,-0.53568 0.99666,-0.0245 3.808205,1.54366 5.598655,3.12277 1.30336,1.14951 1.92126,1.45043 2.99862,1.46035 1.72349,0.0159 2.60575,0.5177 4.0095,2.28056 2.2773,2.85989 5.12474,10.017483 6.18066,15.536253 0.61137,3.19534 0.67289,8.91837 0.12342,11.48049 -0.48366,2.2552 -2.14411,6.33921 -3.15399,7.75745 -0.74219,1.0423 -0.74446,1.09436 -0.16199,3.71246 l 0.59076,2.65533 1.03567,-0.22747 c 3.34261,-0.73416 6.19167,0.21453 9.3712,3.12044 6.46159,5.90553 9.2862,15.17627 8.83266,28.990051 -0.18171,5.53467 -0.6481,8.81875 -2.05409,14.46389 -1.43905,5.77787 -1.24265,5.3817 -3.2341,6.52382 -1.01105,0.57985 -1.96057,1.05576 -2.11003,1.05759 -0.14947,0.002 0.0291,-0.59201 0.39678,-1.31961 0.90451,-1.78985 2.30089,-6.041 3.04178,-9.26042 0.33489,-1.4552 0.83501,-3.58743 1.11138,-4.73828 2.57899,-10.73933 0.37665,-25.364231 -4.78481,-31.774221 -1.40921,-1.75008 -4.46207,-4.29166 -5.45457,-4.54106 -0.68239,-0.17147 -0.69231,-0.14944 -0.12423,0.27597 1.04169,0.78008 0.68886,0.9366 -0.78338,0.34753 l -1.40075,-0.56047 -1.69937,1.74468 c -2.62682,2.69685 -4.74094,3.37245 -10.66858,3.4093 -2.61938,0.0163 -5.476885,-0.0932 -6.350005,-0.24326 l -1.5875,-0.27286 1.05833,0.75105 c 0.58916,0.41809 0.74555,0.63624 0.35278,0.49209 -7.53034,-2.76384 -13.10216,-2.92547 -17.82308,-0.51704 -1.89101,0.96473 -4.757671,3.68352 -6.587335,6.24757 -2.48967,3.48896 -5.415856,10.747911 -7.139697,17.711361 -0.404742,1.63495 -0.832792,3.0637 -0.951227,3.175 -0.118431,0.1113 -0.145259,-1.18839 -0.05962,-2.8882 0.178629,-3.5454 0.587382,-3.36271 -3.775146,-1.68734 -1.358194,0.52159 -3.144131,1.37543 -3.96875,1.89742 l -1.499305,0.94906 0.01231,2.55321 c 0.02268,4.70578 1.715784,11.43246 3.552402,14.11368 1.240895,1.81155 2.848465,3.43647 4.372789,4.42001 2.015233,1.30028 6.54473,1.52261 9.363552,0.4596 5.658797,-2.134 10.626737,-8.61425 12.940757,-16.88009 0.52975,-1.8923 1.05775,-3.4841 1.17332,-3.53734 0.11558,-0.0532 0.14982,-0.5295 0.0761,-1.05834 -0.0737,-0.52884 0.0178,-1.59653 0.20332,-2.37264 l 0.33737,-1.41111 0.0333,1.94028 c 0.0429,2.49676 -0.79119,7.91249 -1.7372,11.27923 -1.45359,5.17315 -5.12245,10.89802 -8.35733,13.04072 -3.22715,2.13757 -7.568388,2.92197 -11.688398,2.11191 z M 54.756159,121.32542 c 0,-0.66376 -1.032786,-1.60749 -5.027084,-4.59359 -6.086062,-4.54988 -10.003082,-7.78491 -10.661789,-8.80548 -0.705604,-1.09323 -5.26098,-17.556981 -7.091436,-25.629421 -0.857931,-3.78355 -2.053761,-8.71774 -2.6574,-10.96488 l -1.097525,-4.08571 -3.577522,-1.30178 c -3.681092,-1.33946 -4.624808,-1.52243 -4.970184,-0.9636 -0.109768,0.17761 0.03503,4.58293 0.321766,9.78959 0.28674,5.20666 0.602285,11.29228 0.701211,13.5236 0.09893,2.23132 0.281329,6.34263 0.405339,9.13625 0.215394,4.852241 0.19598,5.070391 -0.434257,4.879831 -0.362852,-0.10972 -1.850356,-0.53771 -3.305564,-0.95109 -1.455208,-0.41339 -3.485226,-1.0615 -4.51115,-1.440251 -2.7555,-1.01727 -2.813653,-0.99028 -2.506913,1.163451 0.145077,1.01865 0.277798,2.72521 0.294934,3.79236 0.01713,1.06716 0.159091,2.14185 0.315457,2.38821 0.285839,0.45035 7.828955,3.30434 12.757672,4.82695 2.80982,0.86802 18.961231,6.2793 25.752778,8.62805 4.852095,1.67803 5.291667,1.7285 5.291667,0.60751 z m -0.483204,-3.48613 c -0.116995,-0.43657 -0.214887,-1.0584 -0.217537,-1.38185 -0.0028,-0.32345 -1.909815,-2.12909 -4.238148,-4.01252 -2.328334,-1.88343 -4.233334,-3.55072 -4.233334,-3.70508 0,-0.15436 0.799765,-0.54629 1.777256,-0.87096 1.557729,-0.5174 1.748402,-0.68431 1.543674,-1.35127 -0.128467,-0.41853 -0.289334,-0.82321 -0.35748,-0.89929 -0.15017,-0.16765 -7.09079,1.63145 -7.778445,2.01628 -0.379091,0.21215 -0.260649,0.49006 0.532855,1.25029 1.873783,1.7952 12.212909,9.71787 12.701757,9.73311 0.329653,0.0103 0.414849,-0.23598 0.269402,-0.77871 z m -0.343651,-5.08959 c -0.09807,-0.0981 -0.534183,-0.0654 -0.969144,0.0727 l -0.79084,0.251 0.852449,0.64752 c 0.833663,0.63324 0.855017,0.63164 0.969144,-0.0727 0.06418,-0.39612 0.03646,-0.80045 -0.06161,-0.89852 z m -0.767161,-0.66307 c 1.272374,-0.53163 1.294546,-0.57108 0.693959,-1.23472 -0.710624,-0.78523 -1.350165,-0.84824 -2.949758,-0.29062 l -1.132875,0.39492 0.788948,0.83981 c 0.934018,0.99421 0.919636,0.9926 2.599726,0.29061 z m -2.110398,-3.03455 c -0.581498,-0.15552 -1.216201,-0.49599 -1.410455,-0.7566 -0.256917,-0.34468 -0.665695,-0.39193 -1.499715,-0.17333 -1.38079,0.3619 -1.433756,0.70874 -0.25038,1.63959 0.856213,0.67349 0.970153,0.67969 2.556979,0.139 l 1.660839,-0.5659 z m 6.959487,-0.1216 c 0.869029,-0.4857 2.82085,-1.20045 4.337378,-1.58831 1.516528,-0.38786 2.807797,-0.75568 2.869491,-0.81737 0.06169,-0.0617 0.499671,-1.63974 0.973282,-3.50677 0.473608,-1.86702 1.190057,-4.138231 1.592107,-5.047131 0.90956,-2.05621 0.916316,-2.69692 0.03683,-3.49284 -0.700327,-0.63379 -4.842514,-1.29213 -6.096797,-0.969 -0.86529,0.22292 -0.768304,1.01622 0.248549,2.03307 0.921851,0.92185 2.470224,1.15644 2.804707,0.42493 0.110899,-0.24253 0.104391,0.11466 -0.01446,0.79375 -0.219512,1.25423 -1.352673,3.175 -1.873088,3.175 -0.447756,0 -0.958035,-0.78925 -1.221196,-1.88882 -0.588483,-2.4589 -1.868336,-3.21205 -3.891707,-2.29013 -0.788667,0.35933 -2.209476,2.00131 -1.901818,2.19785 0.06401,0.0409 0.552944,0.26185 1.08652,0.491 0.533577,0.22915 0.970139,0.58438 0.970139,0.7894 0,0.25921 -0.20785,0.26151 -0.682364,0.007 -0.856446,-0.45836 -3.571293,-0.47413 -4.745828,-0.0275 -1.319134,0.50153 -2.055301,2.245011 -2.109498,4.995991 -0.04865,2.46958 0.315003,3.31041 1.272791,2.94288 0.722665,-0.27732 1.461329,-2.07649 1.224435,-2.98238 -0.101836,-0.3894 -0.04127,-0.708 0.134599,-0.708 0.175863,0 0.31975,0.28229 0.31975,0.62731 0,0.84258 2.357053,5.72269 2.764014,5.72269 0.177165,0 1.033142,-0.3974 1.902171,-0.88311 z m -4.537833,-0.34958 c -0.111256,-0.28993 -0.3444,-0.43931 -0.518093,-0.33196 -0.498098,0.30784 -0.368297,0.8591 0.202282,0.8591 0.314706,0 0.438683,-0.20694 0.315811,-0.52714 z m -9.124185,-3.24189 c 2.328333,-0.71546 4.254885,-1.31105 4.281227,-1.32354 0.02635,-0.0125 0.156802,-0.68228 0.289916,-1.48842 0.237959,-1.4411 0.222342,-1.46995 -0.929838,-1.71818 -2.402395,-0.51759 -4.791378,-2.208581 -5.772531,-4.085981 -0.264407,-0.50594 -0.970506,-3.12531 -1.56911,-5.82084 -0.598603,-2.69552 -1.558724,-6.99048 -2.1336,-9.54435 -1.624237,-7.21561 -1.360973,-9.55884 1.407913,-12.53134 l 1.603801,-1.72175 6.173611,-1.54847 c 11.481516,-2.87981 23.057238,-5.87365 23.306684,-6.02781 0.447576,-0.27662 0.570385,-2.24605 0.15011,-2.40732 -0.357152,-0.13706 -13.592838,3.13552 -28.219294,6.97733 -2.716389,0.71349 -6.477658,1.59713 -8.358377,1.96364 -3.777183,0.7361 -5.014856,1.23956 -4.749185,1.93189 0.283056,0.73764 2.24783,8.88839 3.375683,14.00384 1.547062,7.0168 6.36157,24.640211 6.731768,24.641501 0.09784,3.5e-4 2.082889,-0.58475 4.411222,-1.3002 z m 6.526389,-6.814311 c 0.485069,-0.37942 1.358194,-0.69536 1.940278,-0.70207 0.818783,-0.01 1.242656,-0.29669 1.872675,-1.26904 0.794505,-1.2262 3.096877,-2.59115 4.397862,-2.60725 0.34435,-0.004 0.776986,-0.40462 0.961407,-0.88969 0.315366,-0.82947 0.488008,-0.88183 2.901686,-0.87998 3.148845,0.002 5.022751,0.49023 5.722856,1.48977 0.292298,0.41731 0.591256,0.68895 0.664348,0.60365 0.07309,-0.0853 0.734723,-1.10693 1.470296,-2.27027 1.817981,-2.87522 4.883185,-5.79215 7.421334,-7.06236 1.15731,-0.57917 2.14131,-1.06368 2.18667,-1.0767 0.0454,-0.013 -0.7571,-0.89047 -1.78322,-1.94988 -1.937265,-2.00012 -4.1084,-5.98341 -5.461995,-10.0209 -0.762275,-2.27371 -1.833086,-7.95482 -1.833086,-9.72532 0,-0.86609 -0.123169,-1.04484 -0.617361,-0.89597 -0.339549,0.10228 -2.125486,0.58242 -3.96875,1.06697 -8.767865,2.30488 -11.536313,3.04655 -17.033184,4.56324 -6.214431,1.71468 -7.451862,2.19766 -8.446555,3.29679 -0.9015,0.99614 -1.734417,3.59595 -1.729541,5.39846 0.0037,1.35755 1.464387,8.71257 2.522233,12.7 0.18016,0.6791 0.660425,2.58399 1.067255,4.23311 0.852661,3.45633 1.805866,4.89778 3.936104,5.95222 1.866519,0.92391 2.67311,0.93349 3.808688,0.0452 z m -3.527778,-1.39389 c -0.679097,-0.36143 -1.524384,-1.15303 -1.878414,-1.75911 -0.875253,-1.49837 -4.824364,-17.95168 -4.824364,-20.09991 0,-0.39372 0.375695,-1.56537 0.834878,-2.60366 0.957054,-2.16407 1.633283,-2.58797 6.044289,-3.7889 1.552222,-0.42261 4.171597,-1.14752 5.820833,-1.61093 1.649237,-0.46341 5.141737,-1.40499 7.761112,-2.09241 2.619375,-0.68741 5.23875,-1.38838 5.820833,-1.55772 3.312266,-0.96357 3.117236,-1.13016 3.705348,3.16518 0.68822,5.02647 3.696237,12.37349 6.201103,15.14608 l 1.245662,1.3788 -1.871888,1.20609 c -1.818273,1.17154 -4.48485,3.79808 -6.281614,6.1873 -0.774058,1.0293 -0.990925,1.13115 -1.772825,0.83262 -0.489987,-0.18708 -2.432851,-0.45574 -4.317474,-0.59704 l -3.426594,-0.25691 -0.998852,1.06928 c -0.54937,0.5881 -1.645338,1.24336 -2.435486,1.45612 -0.921364,0.2481 -1.892787,0.89176 -2.708448,1.7946 -0.699501,0.77426 -1.550045,1.40834 -1.890098,1.40907 -0.340053,7e-4 -1.138054,0.31822 -1.773333,0.70555 -1.399653,0.85337 -1.678594,0.85473 -3.254668,0.0159 z m -27.582598,0.60014 c 0.101095,-0.53042 -0.171648,-0.6179 -1.936674,-0.62124 -1.129886,-0.002 -2.689339,-0.0829 -3.46545,-0.17937 l -1.411111,-0.1755 1.219777,0.56305 c 1.377993,0.63609 3.722883,1.16961 4.773841,1.08616 0.386074,-0.0307 0.754902,-0.33355 0.819617,-0.6731 z m 43.457598,0.0674 c 0,-0.18257 -0.15875,-0.33195 -0.352778,-0.33195 -0.194027,0 -0.352777,0.24749 -0.352777,0.54998 0,0.3025 0.15875,0.45188 0.352777,0.33196 0.194028,-0.11992 0.352778,-0.36741 0.352778,-0.54999 z m -43.744444,-3.50695 v -1.76389 h -1.607672 c -2.685985,0 -5.800662,0.94734 -5.800662,1.76429 0,0.60544 3.743702,1.60675 6.438195,1.722 0.934514,0.04 0.970139,-0.0233 0.970139,-1.7224 z m -5.115278,-2.76232 c 0.970139,-0.20476 2.538834,-0.47361 3.485989,-0.59745 l 1.7221,-0.22516 -0.223158,-1.99989 c -0.122737,-1.09995 -0.327262,-7.32857 -0.454501,-13.84138 l -0.231343,-11.84148 2.965734,-0.80775 c 1.631154,-0.44427 3.799172,-1.03347 4.817818,-1.30935 1.018646,-0.27588 1.852083,-0.57331 1.852083,-0.66096 0,-0.39071 -3.019138,-1.64123 -5.19595,-2.15215 -5.565882,-1.30638 -10.528516,0.34254 -12.467055,4.14238 -1.5479445,3.03423 -1.8284623,5.5475 -1.6287913,14.59301 0.1780418,8.06565 0.6655068,12.60754 1.6198093,15.09234 0.351471,0.91516 0.430599,0.94752 1.175111,0.48068 0.439046,-0.27531 1.592015,-0.66808 2.562154,-0.87284 z m 92.707927,-6.06488 c 2.70065,-0.39049 4.64612,-1.26988 6.91385,-3.12518 l 1.54955,-1.26773 -1.54955,-0.46909 c -2.89066,-0.87507 -8.21743,-0.92663 -12.13289,-0.11745 -3.243615,0.67034 -8.643055,2.89768 -8.643055,3.56537 0,0.13497 1.54781,0.513 3.43958,0.84009 5.550155,0.95962 7.147205,1.04757 10.422515,0.57399 z m -14.974885,-2.41644 c 1.4657,-1.03356 4.58514,-2.53315 7.286405,-3.50276 2.0411,-0.73266 3.24964,-0.90665 6.96743,-1.0031 2.4739,-0.0642 4.50427,-0.23773 4.51195,-0.38567 0.008,-0.14795 -0.16934,-1.03305 -0.39337,-1.96689 -0.32398,-1.3505 -0.52534,-1.65109 -0.98416,-1.46916 -1.43968,0.57086 -5.95758,1.5871 -7.9743,1.79372 -4.584365,0.46968 -9.518165,-1.42012 -13.485595,-5.1654 -3.03136,-2.86162 -5.48348,-5.6321 -4.98491,-5.6321 0.6947,0 1.88457,0.87348 4.65381,3.41635 1.33209,1.22319 3.41232,2.71152 4.62273,3.30741 2.0811,1.02452 2.42985,1.08375 6.41421,1.08942 3.960745,0.006 8.910215,-0.68721 10.312515,-1.44359 1.55097,-0.83657 3.67991,-4.36214 4.47691,-7.41385 1.51183,-5.78881 -0.22401,-15.26059 -4.28168,-23.363333 -1.64576,-3.28642 -2.48324,-4.16716 -3.96447,-4.16927 -1.32152,-0.002 -1.9481,-0.32138 -4.65018,-2.37122 -0.82532,-0.62609 -2.033175,-1.23827 -2.684125,-1.36039 -1.54739,-0.29029 -4.42122,0.41548 -5.96915,1.46594 -1.19838,0.81324 -1.76496,0.47348 -0.80734,-0.48414 0.23663,-0.23662 0.26735,-0.42333 0.0696,-0.42333 -0.19453,0 -1.18226,0.81136 -2.19496,1.80301 -1.49737,1.46624 -1.9881,1.75528 -2.62729,1.54745 -3.42102,-1.11228 -5.1827,-0.37223 -8.03573,3.37566 -1.897159,2.49221 -3.082369,3.622183 -4.568339,4.355413 -0.291042,0.14361 -0.17198,-0.0542 0.264583,-0.43967 0.812761,-0.71757 1.094645,-1.344463 0.415925,-0.92499 -0.722164,0.44632 -3.500893,-0.235873 -4.547341,-1.116403 l -1.047962,-0.8818 -0.227263,0.90548 c -0.614002,2.446383 0.813453,4.659373 3.673377,5.694843 4.393716,1.5908 5.34561,2.17642 6.03288,3.71149 0.94464,2.10991 2.19092,2.57657 5.06878,1.89797 1.20179,-0.28338 2.7407,-0.50506 3.4198,-0.49261 l 1.23472,0.0226 -1.5875,0.54962 c -0.87312,0.30228 -1.66228,0.61588 -1.75367,0.69688 -0.34073,0.30198 0.9112,0.80385 2.01825,0.80907 0.63059,0.003 1.14653,0.13279 1.14653,0.28849 0,0.1557 0.82991,0.58152 1.84425,0.94627 2.46214,0.88537 3.53874,1.97159 3.23224,3.26111 -0.44401,1.868 -1.15116,2.30968 -3.31204,2.06868 -1.06746,-0.11906 -2.17896,-0.23109 -2.47,-0.24896 -0.29105,-0.0179 -1.57339,-0.27374 -2.84967,-0.56861 -2.03988,-0.47128 -2.43929,-0.47387 -3.30287,-0.0214 -0.97035,0.50842 -0.98297,0.5584 -1.03089,4.08261 -0.0275,2.02316 -0.2139,3.73317 -0.4305,3.94966 -0.66283,0.66248 -1.5301,-0.007 -1.74987,-1.3511 -0.11593,-0.70887 -0.606939,-2.63823 -1.091147,-4.28747 -0.484209,-1.64923 -0.969,-3.44659 -1.077313,-3.99412 -0.230121,-1.16325 -1.779425,-1.98583 -2.303508,-1.22302 -0.646385,0.94082 0.48369,10.09449 1.709607,13.84791 0.777786,2.38135 2.939101,6.05338 5.147111,8.74483 0.99427,1.21196 1.8452,2.25486 1.89095,2.31754 0.0457,0.0627 0.97403,-0.0931 2.06286,-0.34628 1.52462,-0.35447 1.93199,-0.58339 1.7722,-0.99592 -0.34538,-0.89167 -0.61114,-2.47594 -0.41534,-2.47594 0.10104,0 0.69287,0.79345 1.31517,1.76322 0.78616,1.22512 1.47026,1.86138 2.24164,2.08485 1.64907,0.47775 1.97025,0.44827 2.996,-0.27505 z m -13.32753,-20.9029 c -0.49684,-2.31671 -1.305742,-4.18957 -1.809494,-4.18957 -0.542795,0 -0.09781,2.28815 1.543624,7.9375 l 0.41,1.41111 0.11346,-1.71449 c 0.0624,-0.94296 -0.0535,-2.49301 -0.25759,-3.44455 z m -43.390789,2.49918 c 8.45689,-2.23345 26.277537,-6.51254 31.108194,-7.46969 1.115659,-0.22106 2.028472,-0.50752 2.028472,-0.63658 0,-0.12907 -0.969642,-0.52825 -2.154763,-0.88707 -1.185118,-0.35883 -2.495797,-0.92067 -2.912615,-1.24854 -0.719374,-0.56586 -0.9906,-0.53574 -5.341764,0.59311 -4.421075,1.147 -7.26687,1.78269 -18.084315,4.03967 -4.800258,1.00154 -12.49513,2.89971 -16.662099,4.11021 l -1.940277,0.56365 3.351388,1.16985 c 3.916841,1.36722 4.599652,1.35212 10.607779,-0.23461 z m 55.865629,-4.06812 c 0.78174,-0.78173 0.69117,-1.45757 -0.33254,-2.48128 -0.68604,-0.68604 -1.17922,-0.86217 -2.17759,-0.77771 -1.06169,0.0898 -1.34973,0.28746 -1.62348,1.11398 -0.47775,1.44241 0.51979,2.23787 3.33986,2.66327 0.13167,0.0199 0.48886,-0.21335 0.79375,-0.51826 z m -53.984592,-2.05265 c 3.473363,-0.70045 6.398222,-1.27354 6.499688,-1.27354 0.101466,0 -0.200374,-0.41278 -0.670761,-0.9173 -1.163539,-1.24797 -4.395355,-2.81974 -6.302792,-3.06531 -1.908405,-0.24569 -5.027086,0.29323 -6.712092,1.15988 -1.713079,0.88108 -4.174703,3.1707 -3.649201,3.39421 0.230414,0.098 1.024164,0.63991 1.763888,1.20423 0.75119,0.57307 1.65644,0.96983 2.05051,0.8987 0.388056,-0.07 3.547398,-0.70043 7.02076,-1.40087 z m 48.679032,0.61803 c -0.11462,-0.6321 0.07,-1.18481 0.57551,-1.7229 l 0.74428,-0.79224 -1.57825,-0.53776 c -2.05889,-0.70153 -3.05383,-0.1387 -3.05383,1.72753 0,1.05226 0.16707,1.30437 1.14653,1.73008 1.81033,0.78685 2.3631,0.68355 2.16576,-0.40471 z m -4.45882,-1.01368 c 0,-0.84177 -0.35433,-0.99901 -7.099653,-3.15053 -3.904809,-1.2455 -7.419396,-2.35374 -7.810189,-2.46275 -0.482829,-0.1347 -0.858097,0.0381 -1.170972,0.53905 -0.253238,0.4055 -0.409748,0.76957 -0.347796,0.80904 0.06195,0.0395 2.335138,0.8092 5.051527,1.7105 3.935374,1.30577 5.242221,1.5975 6.431774,1.4358 1.211599,-0.16471 1.537279,-0.0873 1.728489,0.41103 0.2224,0.57957 1.95422,1.54993 2.81994,1.58005 0.21829,0.008 0.39688,-0.38489 0.39688,-0.87219 z m -29.633333,-2.67774 c 2.958923,-0.65853 5.379861,-1.32021 5.379861,-1.47039 0,-0.46647 -3.267096,-2.37174 -4.757074,-2.77418 -2.39412,-0.64665 -6.759519,-0.21821 -9.08431,0.89158 l -2.023331,0.96588 1.846942,1.89043 c 1.217058,1.24572 2.087562,1.85694 2.552495,1.79222 0.388056,-0.054 3.126493,-0.63701 6.085417,-1.29554 z m 30.318843,0.18477 c 0.0696,-0.2092 -0.71095,-0.62478 -1.73465,-0.92352 -1.0237,-0.29874 -4.60775,-1.37631 -7.964554,-2.3946 -5.542658,-1.68138 -7.148001,-1.96452 -6.220425,-1.09715 0.181091,0.16934 1.758008,0.7171 3.504258,1.21724 1.74625,0.50013 5.000625,1.53929 7.231945,2.30923 4.126156,1.42377 4.957866,1.56639 5.183426,0.8888 z m -20.961659,-2.59343 c 0.391152,-0.36319 -3.956403,-3.75315 -4.627221,-3.60803 -0.307513,0.0665 -0.859684,0.33149 -1.227046,0.5888 -0.634185,0.4442 -0.614658,0.49539 0.386405,1.01306 0.579885,0.29987 1.50967,1.02989 2.066188,1.62226 0.837723,0.8917 1.193976,1.03923 2.070184,0.85729 0.582084,-0.12086 1.181252,-0.33389 1.33149,-0.47338 z m 2.725455,0.16398 c 0,-0.0902 -0.357188,-0.33707 -0.79375,-0.54863 -0.762222,-0.36937 -0.766548,-0.36285 -0.108963,0.16398 0.719759,0.57665 0.902713,0.6546 0.902713,0.38465 z m 0.508398,-1.05952 c -0.376632,-0.28488 -0.526037,-0.52543 -0.332009,-0.53457 0.194027,-0.009 0.114652,-0.17051 -0.176389,-0.3586 -0.412352,-0.26648 -0.31501,-0.34316 0.440972,-0.34737 1.058496,-0.006 1.302096,-0.50809 0.412119,-0.84961 -1.106675,-0.42467 -4.298146,-0.23299 -4.491059,0.26973 -0.198328,0.51684 1.697016,2.13666 2.163064,1.84862 0.150629,-0.0931 0.504416,-0.0234 0.786193,0.15484 0.281778,0.17825 0.820477,0.32653 1.197109,0.3295 0.677866,0.005 0.677866,1.7e-4 0,-0.51254 z m 12.897157,0.28114 c 0,-0.44301 -1.165775,-1.52709 -1.642177,-1.52709 -0.683422,0 -0.584309,0.95931 0.142872,1.38286 0.711341,0.41432 1.499305,0.49012 1.499305,0.14423 z m -4.586111,-1.87986 c 0.427906,-0.27654 0.377275,-0.34301 -0.264583,-0.34738 -0.436563,-0.003 -0.79375,0.15335 -0.79375,0.34738 0,0.442 0.374382,0.442 1.058333,0 z m -3.354504,-0.35782 c -0.12163,-0.1968 -0.885063,-0.70029 -1.696515,-1.11885 -1.209689,-0.62399 -2.078877,-0.76018 -4.826759,-0.7563 -1.843263,0.003 -3.748263,0.17853 -4.233333,0.39094 -0.718227,0.3145 -0.227072,0.39123 2.645833,0.41335 2.417738,0.0186 4.193802,0.23752 5.644445,0.69573 2.546177,0.80426 2.750778,0.83537 2.466329,0.37513 z"
       style="fill:#000000;stroke-width:0.35277778" />
  </g>
</svg>
